<?xml version="1.0" encoding="UTF-8" standalone="no"?>
<svg
   xmlns:dc="http://purl.org/dc/elements/1.1/"
   xmlns:cc="http://creativecommons.org/ns#"
   xmlns:rdf="http://www.w3.org/1999/02/22-rdf-syntax-ns#"
   xmlns:svg="http://www.w3.org/2000/svg"
   xmlns="http://www.w3.org/2000/svg"
   xmlns:sodipodi="http://sodipodi.sourceforge.net/DTD/sodipodi-0.dtd"
   xmlns:inkscape="http://www.inkscape.org/namespaces/inkscape"
   width="15mm"
   height="15mm"
   viewBox="0 0 15 15"
   version="1.1"
   id="svg1160"
   inkscape:version="1.0.2-2 (e86c870879, 2021-01-15)"
   sodipodi:docname="bootstrap.svg">
  <defs
     id="defs1154" />
  <sodipodi:namedview
     id="base"
     pagecolor="#ffffff"
     bordercolor="#666666"
     borderopacity="1.0"
     inkscape:pageopacity="0.0"
     inkscape:pageshadow="2"
     inkscape:zoom="1.979899"
     inkscape:cx="91.129041"
     inkscape:cy="123.02595"
     inkscape:document-units="mm"
     inkscape:current-layer="layer1"
     inkscape:document-rotation="0"
     showgrid="false"
     fit-margin-top="0"
     fit-margin-left="0"
     fit-margin-right="0"
     fit-margin-bottom="0"
     inkscape:window-width="1920"
     inkscape:window-height="1017"
     inkscape:window-x="-8"
     inkscape:window-y="-8"
     inkscape:window-maximized="1" />
  <metadata
     id="metadata1157">
    <rdf:RDF>
      <cc:Work
         rdf:about="">
        <dc:format>image/svg+xml</dc:format>
        <dc:type
           rdf:resource="http://purl.org/dc/dcmitype/StillImage" />
        <dc:title></dc:title>
      </cc:Work>
    </rdf:RDF>
  </metadata>
  <g
     inkscape:label="Capa 1"
     inkscape:groupmode="layer"
     id="layer1"
     transform="translate(-43.648297,-32.305079)">
    <g
       id="g1131"
       transform="matrix(0.48382,0,0,0.48382,-12.540158,21.44301)">
      <rect
         style="fill:#7952b3;fill-opacity:1;stroke:none;stroke-width:0.264583;stroke-opacity:1"
         id="rect965-8-3"
         width="31.003265"
         height="31.003265"
         x="116.13504"
         y="22.450642"
         ry="0" />
      <path
         d="m 131.48617,33.666254 h -1.187 v -1.98792 h 1.40817 c 0.76559,0 1.20008,0.341571 1.20008,0.959279 0,0.659586 -0.50582,1.028641 -1.42256,1.028641 z m 0.21202,0.789146 h -1.39835 v 2.190769 h 1.45986 c 0.95469,0 1.46051,-0.382795 1.46051,-1.102583 0,-0.719785 -0.52021,-1.088186 -1.52202,-1.088186 z m 7.7907,-0.690995 v 0.797001 c -0.7381,0.07068 -1.18895,0.617709 -1.45658,1.484069 -0.26632,0.863089 -0.30297,1.92183 -0.27483,2.739116 0.0295,0.850656 -0.63341,1.635877 -1.52922,1.635877 h -9.18186 c -0.89646,0 -1.55932,-0.785221 -1.52922,-1.635877 0.0282,-0.817286 -0.008,-1.876027 -0.27482,-2.739116 -0.26829,-0.86636 -0.71979,-1.413399 -1.4579,-1.484069 v -0.797001 c 0.73811,-0.07066 1.19027,-0.617706 1.45724,-1.484069 0.26698,-0.863088 0.30362,-1.921829 0.27483,-2.739113 -0.0294,-0.850658 0.63341,-1.63588 1.52987,-1.63588 h 9.18186 c 0.89646,0 1.55867,0.785222 1.52922,1.63588 -0.0281,0.817284 0.008,1.876025 0.27483,2.739113 0.26763,0.866363 0.71848,1.413399 1.45658,1.484069 z m -5.18704,1.84331 c 0,-0.885992 -0.6236,-1.526602 -1.5495,-1.628028 v -0.03729 c 0.68052,-0.110599 1.21447,-0.742689 1.21447,-1.44808 0,-1.005737 -0.79372,-1.660743 -2.00362,-1.660743 h -2.7221 v 6.656064 h 2.73584 c 1.45135,0 2.32491,-0.710627 2.32491,-1.881918 z"
         id="path1045"
         style="fill:#ffffff;stroke-width:0.654351" />
      <text
         xml:space="preserve"
         style="font-style:normal;font-weight:normal;font-size:4.93889px;line-height:1.25;font-family:sans-serif;fill:#ffffff;fill-opacity:1;stroke:none;stroke-width:0.264583"
         x="120.92811"
         y="48.894836"
         id="text874-7-4-7"><tspan
           sodipodi:role="line"
           id="tspan872-5-8-8"
           x="120.92811"
           y="48.894836"
           style="font-style:normal;font-variant:normal;font-weight:normal;font-stretch:normal;font-size:4.93889px;font-family:'Segoe UI';-inkscape-font-specification:'Segoe UI';fill:#ffffff;stroke-width:0.264583">Bootstrap</tspan></text>
    </g>
  </g>
</svg>
