<?xml version="1.0" encoding="UTF-8" standalone="no"?>
<svg
   xmlns:dc="http://purl.org/dc/elements/1.1/"
   xmlns:cc="http://creativecommons.org/ns#"
   xmlns:rdf="http://www.w3.org/1999/02/22-rdf-syntax-ns#"
   xmlns:svg="http://www.w3.org/2000/svg"
   xmlns="http://www.w3.org/2000/svg"
   xmlns:sodipodi="http://sodipodi.sourceforge.net/DTD/sodipodi-0.dtd"
   xmlns:inkscape="http://www.inkscape.org/namespaces/inkscape"
   width="15mm"
   height="15mm"
   viewBox="0 0 15 15"
   version="1.1"
   id="svg1102"
   inkscape:version="1.0.2-2 (e86c870879, 2021-01-15)"
   sodipodi:docname="github.svg">
  <defs
     id="defs1096" />
  <sodipodi:namedview
     id="base"
     pagecolor="#ffffff"
     bordercolor="#666666"
     borderopacity="1.0"
     inkscape:pageopacity="0.0"
     inkscape:pageshadow="2"
     inkscape:zoom="8.503251"
     inkscape:cx="55.286025"
     inkscape:cy="23.533474"
     inkscape:document-units="mm"
     inkscape:current-layer="layer1"
     inkscape:document-rotation="0"
     showgrid="false"
     inkscape:window-width="1920"
     inkscape:window-height="1017"
     inkscape:window-x="-8"
     inkscape:window-y="-8"
     inkscape:window-maximized="1" />
  <metadata
     id="metadata1099">
    <rdf:RDF>
      <cc:Work
         rdf:about="">
        <dc:format>image/svg+xml</dc:format>
        <dc:type
           rdf:resource="http://purl.org/dc/dcmitype/StillImage" />
        <dc:title></dc:title>
      </cc:Work>
    </rdf:RDF>
  </metadata>
  <g
     inkscape:label="Capa 1"
     inkscape:groupmode="layer"
     id="layer1"
     transform="translate(-149.8889,-50.261364)">
    <path
       d="m 169.31475,54.382951 c -0.042,0 -0.0704,0.0053 -0.10001,0.01201 v 0.0047 h 0.005 c 0.0197,0.03798 0.0533,0.06568 0.0781,0.09966 0.0197,0.03905 0.0365,0.07812 0.0562,0.116805 l 0.005,-0.0053 c 0.0343,-0.02409 0.0511,-0.06281 0.0511,-0.121558 -0.0146,-0.01716 -0.0167,-0.03431 -0.0292,-0.05113 -0.0146,-0.02443 -0.046,-0.03651 -0.0657,-0.05587 z m -3.88207,4.816182 h -0.33839 a 18.563147,18.563147 0 0 0 -0.0985,-1.609777 h -0.003 l -0.51469,1.609777 h -0.25734 l -0.51104,-1.609777 h -0.003 a 26.60764,26.60764 0 0 0 -0.0712,1.609777 h -0.30845 c 0.0201,-0.717644 0.0701,-1.390759 0.14966,-2.018604 h 0.41978 l 0.48732,1.483473 h 0.003 l 0.49169,-1.483473 h 0.39971 c 0.0883,0.735532 0.14017,1.409007 0.15623,2.018604 z m 1.46632,-1.489314 c -0.13799,0.746479 -0.31977,1.289646 -0.54462,1.628026 -0.17595,0.261357 -0.36869,0.391672 -0.57785,0.391672 -0.0559,0 -0.12411,-0.01675 -0.2066,-0.0504 v -0.180324 c 0.0401,0.006 0.0876,0.0095 0.1409,0.0095 0.0978,0 0.17631,-0.02737 0.23617,-0.08103 0.0719,-0.06568 0.10768,-0.13944 0.10768,-0.22084 0,-0.0566 -0.0281,-0.171567 -0.0839,-0.344588 l -0.37014,-1.152029 h 0.33217 l 0.26538,0.861468 c 0.0599,0.19565 0.0851,0.332172 0.0748,0.409922 0.14601,-0.388388 0.24749,-0.812915 0.3048,-1.27139 z m 4.49897,1.489314 h -0.96003 v -2.018604 h 0.32305 v 1.770383 h 0.63698 z m -1.2119,0.04926 -0.37086,-0.18252 c 0.0328,-0.02777 0.0646,-0.05767 0.0931,-0.09125 0.15806,-0.184702 0.23653,-0.459203 0.23653,-0.822407 0,-0.668002 -0.26208,-1.00237 -0.78663,-1.00237 -0.25698,0 -0.45774,0.08469 -0.6023,0.254422 -0.15696,0.185437 -0.2358,0.458475 -0.2358,0.81949 0,0.354807 0.0693,0.615437 0.20952,0.781163 0.12776,0.149659 0.32013,0.224492 0.57784,0.224492 0.0964,0 0.18471,-0.01208 0.26465,-0.03578 l 0.48366,0.281803 0.13141,-0.227048 z m -1.20166,-0.453369 c -0.0821,-0.13141 -0.12302,-0.343126 -0.12302,-0.633686 0,-0.508484 0.15477,-0.762913 0.46358,-0.762913 0.16171,0 0.28107,0.06094 0.35663,0.182519 0.0818,0.132137 0.12265,0.341664 0.12265,0.628941 0,0.512502 -0.15477,0.769481 -0.46358,0.769481 -0.16244,0 -0.28107,-0.06094 -0.357,-0.182513 z m -0.60522,-0.155133 c 0,0.17156 -0.0628,0.312461 -0.18836,0.42197 -0.12557,0.109509 -0.29312,0.164264 -0.5052,0.164264 -0.19821,0 -0.38839,-0.06281 -0.57419,-0.187993 l 0.0865,-0.173749 c 0.15988,0.08031 0.30407,0.119729 0.43438,0.119729 0.12119,0 0.21646,-0.02663 0.28582,-0.08031 a 0.27523131,0.27523131 0 0 0 0.10952,-0.224492 c 0,-0.120462 -0.084,-0.222669 -0.23655,-0.308449 -0.14163,-0.07775 -0.42452,-0.239824 -0.42452,-0.239824 -0.15405,-0.112066 -0.2307,-0.232161 -0.2307,-0.429639 0,-0.164264 0.0573,-0.295674 0.17156,-0.396058 0.11499,-0.101473 0.26282,-0.151482 0.44534,-0.151482 0.18689,0 0.35772,0.04966 0.51104,0.149659 l -0.0777,0.173756 a 0.99506706,0.99506706 0 0 0 -0.3884,-0.08396 c -0.1033,0 -0.18324,0.02483 -0.23873,0.07519 a 0.25004436,0.25004436 0 0 0 -0.0905,0.191278 c 0,0.119728 0.0854,0.222663 0.2431,0.310271 0.14347,0.07848 0.4333,0.24457 0.4333,0.24457 0.15805,0.111332 0.23654,0.229966 0.23654,0.426356 z m 3.42469,-2.13615 c -0.19529,-0.0053 -0.34678,0.01462 -0.47345,0.06862 -0.0365,0.01462 -0.0949,0.01462 -0.10001,0.06094 0.0201,0.01936 0.023,0.05113 0.0402,0.07812 0.0292,0.04893 0.0796,0.114256 0.12629,0.148565 0.0511,0.04018 0.10221,0.07884 0.15587,0.11316 0.0949,0.05841 0.20259,0.09308 0.29567,0.151849 0.0529,0.03431 0.10696,0.07776 0.16062,0.114255 0.0266,0.01822 0.0438,0.05113 0.0781,0.06281 v -0.0073 c -0.0167,-0.02189 -0.0219,-0.05367 -0.0383,-0.07811 -0.0244,-0.02443 -0.0489,-0.04639 -0.073,-0.07045 a 1.1764861,1.1764861 0 0 0 -0.25369,-0.246392 c -0.0781,-0.05327 -0.24895,-0.127759 -0.28108,-0.217189 l -0.005,-0.0053 c 0.0533,-0.0047 0.11681,-0.02409 0.16791,-0.03871 0.0829,-0.02189 0.15879,-0.01716 0.24457,-0.03872 0.0387,-0.0099 0.0778,-0.02189 0.11681,-0.03431 v -0.02189 c -0.0438,-0.04379 -0.0767,-0.103302 -0.12192,-0.144186 a 3.2367056,3.2367056 0 0 0 -0.40299,-0.300419 c -0.0767,-0.04893 -0.17375,-0.08031 -0.25443,-0.121918 -0.0292,-0.01462 -0.0781,-0.02189 -0.0949,-0.04639 -0.0438,-0.05327 -0.0694,-0.124107 -0.10038,-0.18762 a 6.4573499,6.4573499 0 0 1 -0.19948,-0.424535 c -0.0438,-0.09563 -0.0705,-0.190903 -0.12411,-0.278511 -0.25187,-0.415042 -0.52455,-0.666541 -0.94396,-0.912573 -0.0902,-0.05113 -0.19822,-0.073 -0.31247,-0.100017 -0.0609,-0.0027 -0.12192,-0.0073 -0.18251,-0.0099 -0.0402,-0.01716 -0.0789,-0.06348 -0.11316,-0.08578 -0.13871,-0.08761 -0.4979,-0.277417 -0.60011,-0.0263 -0.0657,0.158423 0.0975,0.31465 0.15404,0.394957 0.042,0.05587 0.0949,0.119728 0.12411,0.182513 0.0172,0.04232 0.0219,0.08579 0.0391,0.129954 0.0387,0.10732 0.0756,0.227049 0.12666,0.327426 0.0266,0.05113 0.0559,0.104764 0.0902,0.150761 0.0197,0.02663 0.0533,0.03905 0.0609,0.08286 -0.0343,0.04966 -0.0365,0.121919 -0.0562,0.182514 -0.0876,0.276322 -0.0533,0.617993 0.0708,0.821312 0.039,0.06061 0.13215,0.194928 0.25662,0.143458 0.1095,-0.04379 0.0854,-0.182513 0.1168,-0.304798 0.007,-0.02917 0.003,-0.04853 0.0176,-0.06826 v 0.0053 c 0.0343,0.06862 0.0686,0.133965 0.10001,0.202591 0.0752,0.119728 0.20661,0.243836 0.31648,0.326698 0.0584,0.04379 0.10476,0.119729 0.17777,0.146743 v -0.0073 h -0.005 c -0.0157,-0.02116 -0.0365,-0.03137 -0.0562,-0.04853 a 1.2575224,1.2575224 0 0 1 -0.12775,-0.146015 3.1976476,3.1976476 0 0 1 -0.27267,-0.444605 c -0.0402,-0.07665 -0.0737,-0.15915 -0.10586,-0.234711 -0.0146,-0.02924 -0.0146,-0.073 -0.0391,-0.08761 -0.0365,0.05327 -0.0902,0.09966 -0.11681,0.165359 -0.0463,0.105131 -0.0511,0.234351 -0.0686,0.368678 -0.01,0.0027 -0.005,0 -0.01,0.0053 -0.0781,-0.01896 -0.10476,-0.100018 -0.13397,-0.167915 -0.073,-0.173389 -0.085,-0.451901 -0.0219,-0.651575 0.0172,-0.05113 0.0902,-0.212443 0.0609,-0.261358 -0.0153,-0.04639 -0.0635,-0.07301 -0.0902,-0.110603 a 0.90454003,0.90454003 0 0 1 -0.0876,-0.155867 c -0.0584,-0.136523 -0.0876,-0.287644 -0.15112,-0.424166 -0.0292,-0.06314 -0.0803,-0.129221 -0.12192,-0.187259 -0.0463,-0.06568 -0.0975,-0.112066 -0.13433,-0.189816 -0.012,-0.02663 -0.0292,-0.07081 -0.01,-0.100017 0.005,-0.01969 0.0153,-0.02737 0.0343,-0.03284 0.0321,-0.0263 0.12229,0.008 0.15405,0.02263 0.0902,0.03651 0.16608,0.07081 0.24165,0.121919 0.0343,0.0241 0.0712,0.07045 0.11498,0.0825 h 0.0511 c 0.0781,0.01716 0.16609,0.0053 0.23909,0.02663 0.12959,0.04165 0.24639,0.102213 0.35115,0.167915 a 2.1730133,2.1730133 0 0 1 0.76109,0.834455 c 0.0292,0.0562 0.042,0.107687 0.0686,0.166086 0.0511,0.120463 0.11426,0.242013 0.1661,0.358458 0.0511,0.114982 0.10037,0.232161 0.17374,0.327433 0.0365,0.05113 0.18325,0.07775 0.24895,0.104396 0.0485,0.02189 0.12412,0.04199 0.16792,0.06862 0.084,0.05113 0.16573,0.109509 0.24457,0.165726 0.0401,0.02777 0.16171,0.0887 0.16901,0.137977 z"
       id="path1204"
       style="fill:#ffffff;stroke-width:0.365028" />
    <rect
       style="fill:#181717;fill-opacity:1;stroke:none;stroke-width:0.128011;stroke-opacity:1"
       id="rect1414-3-2-3-6"
       width="15"
       height="15"
       x="149.8889"
       y="50.261364"
       ry="0" />
    <text
       xml:space="preserve"
       style="font-style:normal;font-weight:normal;font-size:2.38953px;line-height:1.25;font-family:sans-serif;fill:#ffffff;fill-opacity:1;stroke:none;stroke-width:0.128011"
       x="153.64941"
       y="63.055595"
       id="text1418-4-2-8-0"><tspan
         sodipodi:role="line"
         id="tspan1416-5-1-4-9"
         x="153.64941"
         y="63.055595"
         style="font-style:normal;font-variant:normal;font-weight:normal;font-stretch:normal;font-size:2.38953px;font-family:'Segoe UI';-inkscape-font-specification:'Segoe UI';fill:#ffffff;stroke-width:0.128011">GitHub</tspan></text>
    <path
       d="m 157.38881,53.45042 c -1.75418,0 -3.175,1.421608 -3.175,3.175001 0,1.403082 0.90964,2.592917 2.17091,3.012282 0.15875,0.0299 0.21696,-0.06827 0.21696,-0.152664 0,-0.07541 -0.002,-0.275168 -0.004,-0.539755 -0.88318,0.191559 -1.06945,-0.425979 -1.06945,-0.425979 -0.14446,-0.366445 -0.35322,-0.464342 -0.35322,-0.464342 -0.2876,-0.196851 0.0222,-0.192879 0.0222,-0.192879 0.31882,0.02221 0.48631,0.327023 0.48631,0.327023 0.2831,0.485509 0.74321,0.345283 0.92471,0.264055 0.0286,-0.205319 0.11034,-0.345283 0.20109,-0.424659 -0.70511,-0.07937 -1.44621,-0.352424 -1.44621,-1.56898 0,-0.346603 0.12303,-0.629706 0.32676,-0.851953 -0.0357,-0.08017 -0.14288,-0.402964 0.0278,-0.840318 0,0 0.26591,-0.0852 0.87312,0.325436 0.254,-0.07064 0.52388,-0.105569 0.79375,-0.107156 0.26988,0.0015 0.53975,0.03653 0.79375,0.107156 0.60325,-0.410632 0.86916,-0.325436 0.86916,-0.325436 0.17066,0.437354 0.0635,0.760149 0.0317,0.840318 0.20241,0.222247 0.32544,0.50535 0.32544,0.851953 0,1.21973 -0.74216,1.488284 -1.4486,1.566334 0.11113,0.09525 0.21431,0.289987 0.21431,0.587377 0,0.424919 -0.004,0.766235 -0.004,0.869419 0,0.08335 0.0556,0.182565 0.21828,0.150817 1.27027,-0.416458 2.17912,-1.607081 2.17912,-3.008049 0,-1.753393 -1.42161,-3.175001 -3.17501,-3.175001"
       id="path1573"
       style="fill:#ffffff;stroke-width:0.264583" />
  </g>
</svg>
