<?xml version="1.0" encoding="UTF-8" standalone="no"?>
<svg
   xmlns:dc="http://purl.org/dc/elements/1.1/"
   xmlns:cc="http://creativecommons.org/ns#"
   xmlns:rdf="http://www.w3.org/1999/02/22-rdf-syntax-ns#"
   xmlns:svg="http://www.w3.org/2000/svg"
   xmlns="http://www.w3.org/2000/svg"
   xmlns:sodipodi="http://sodipodi.sourceforge.net/DTD/sodipodi-0.dtd"
   xmlns:inkscape="http://www.inkscape.org/namespaces/inkscape"
   width="15mm"
   height="15mm"
   viewBox="0 0 15 15"
   version="1.1"
   id="svg1741"
   inkscape:version="1.0.2-2 (e86c870879, 2021-01-15)"
   sodipodi:docname="javascript.svg">
  <defs
     id="defs1735" />
  <sodipodi:namedview
     id="base"
     pagecolor="#ffffff"
     bordercolor="#666666"
     borderopacity="1.0"
     inkscape:pageopacity="0.0"
     inkscape:pageshadow="2"
     inkscape:zoom="0.35"
     inkscape:cx="-434.96063"
     inkscape:cy="-532.10348"
     inkscape:document-units="mm"
     inkscape:current-layer="layer1"
     inkscape:document-rotation="0"
     showgrid="false"
     inkscape:window-width="1298"
     inkscape:window-height="1040"
     inkscape:window-x="234"
     inkscape:window-y="0"
     inkscape:window-maximized="0" />
  <metadata
     id="metadata1738">
    <rdf:RDF>
      <cc:Work
         rdf:about="">
        <dc:format>image/svg+xml</dc:format>
        <dc:type
           rdf:resource="http://purl.org/dc/dcmitype/StillImage" />
        <dc:title></dc:title>
      </cc:Work>
    </rdf:RDF>
  </metadata>
  <g
     inkscape:label="Capa 1"
     inkscape:groupmode="layer"
     id="layer1"
     transform="translate(-227.72024,-295.75595)">
    <g
       id="g1940"
       transform="matrix(0.48381999,0,0,0.48381999,150.15447,284.24733)">
      <rect
         style="fill:#f7df1e;fill-opacity:1;stroke:none;stroke-width:0.264583;stroke-opacity:1"
         id="rect965-8-3-8-2-9-6"
         width="31.003265"
         height="31.003265"
         x="160.31949"
         y="23.786987"
         ry="0" />
      <text
         xml:space="preserve"
         style="font-style:normal;font-weight:normal;font-size:4.93889px;line-height:1.25;font-family:sans-serif;fill:#000000;fill-opacity:1;stroke:none;stroke-width:0.264583"
         x="165.08603"
         y="50.231182"
         id="text874-7-4-7-1-5-9-3"><tspan
           sodipodi:role="line"
           id="tspan872-5-8-8-1-9-3-1"
           x="165.08603"
           y="50.231182"
           style="font-style:normal;font-variant:normal;font-weight:normal;font-stretch:normal;font-size:4.93889px;font-family:'Segoe UI';-inkscape-font-specification:'Segoe UI';fill:#000000;stroke-width:0.264583">JavaScript</tspan></text>
      <path
         d="m 168.9135,29.812111 h 13.81523 V 43.62735 H 168.9135 Z m 12.68353,10.5203 c -0.10073,-0.630315 -0.51116,-1.159905 -1.72863,-1.653801 -0.42366,-0.198586 -0.89454,-0.336741 -1.03441,-0.656219 -0.0524,-0.189965 -0.0604,-0.293574 -0.0265,-0.405824 0.0863,-0.371857 0.52671,-0.483528 0.87209,-0.37992 0.2245,0.06905 0.43173,0.241764 0.56182,0.518075 0.5952,-0.38913 0.5952,-0.38913 1.01024,-0.647588 -0.15542,-0.241775 -0.23256,-0.345962 -0.33732,-0.449002 -0.36265,-0.405824 -0.84561,-0.613052 -1.63135,-0.5952 l -0.40582,0.05126 c -0.38913,0.09495 -0.75984,0.302205 -0.98433,0.578516 -0.65623,0.743144 -0.46685,2.03832 0.32753,2.573658 0.78574,0.587147 1.93471,0.716092 2.0815,1.269271 0.13815,0.673493 -0.50081,0.889362 -1.1317,0.811648 -0.46684,-0.103577 -0.7253,-0.33732 -1.01024,-0.769049 l -1.05342,0.604989 c 0.12089,0.276311 0.25904,0.396614 0.46627,0.638388 1.0016,1.010813 3.50562,0.959003 3.95519,-0.577937 0.0167,-0.05179 0.13814,-0.405824 0.0426,-0.949803 z m -5.17092,-4.17047 h -1.29403 c 0,1.115579 -0.005,2.224253 -0.005,3.341559 0,0.709176 0.0363,1.360227 -0.0795,1.56054 -0.18995,0.396613 -0.67925,0.345962 -0.90144,0.27631 -0.22795,-0.112829 -0.34365,-0.268247 -0.47777,-0.49217 -0.0363,-0.06042 -0.0634,-0.112829 -0.0731,-0.112829 l -1.05054,0.647598 c 0.17556,0.362646 0.43173,0.674641 0.76214,0.873237 0.49217,0.293573 1.15357,0.388551 1.84606,0.233132 0.45072,-0.130092 0.83927,-0.397771 1.04248,-0.812227 0.29357,-0.535337 0.2314,-1.191557 0.22852,-1.926069 0.007,-1.182357 0,-2.365283 0,-3.55685 z"
         id="path1925"
         style="stroke-width:0.575635" />
    </g>
  </g>
</svg>
