<?xml version="1.0" encoding="UTF-8" standalone="no"?>
<svg
   xmlns:dc="http://purl.org/dc/elements/1.1/"
   xmlns:cc="http://creativecommons.org/ns#"
   xmlns:rdf="http://www.w3.org/1999/02/22-rdf-syntax-ns#"
   xmlns:svg="http://www.w3.org/2000/svg"
   xmlns="http://www.w3.org/2000/svg"
   xmlns:sodipodi="http://sodipodi.sourceforge.net/DTD/sodipodi-0.dtd"
   xmlns:inkscape="http://www.inkscape.org/namespaces/inkscape"
   width="15mm"
   height="15mm"
   viewBox="0 0 15 15"
   version="1.1"
   id="svg1102"
   inkscape:version="1.0.2-2 (e86c870879, 2021-01-15)"
   sodipodi:docname="sqlserver.svg">
  <defs
     id="defs1096" />
  <sodipodi:namedview
     id="base"
     pagecolor="#ffffff"
     bordercolor="#666666"
     borderopacity="1.0"
     inkscape:pageopacity="0.0"
     inkscape:pageshadow="2"
     inkscape:zoom="8.503251"
     inkscape:cx="28.346453"
     inkscape:cy="28.346455"
     inkscape:document-units="mm"
     inkscape:current-layer="layer1"
     inkscape:document-rotation="0"
     showgrid="false"
     inkscape:window-width="1920"
     inkscape:window-height="1017"
     inkscape:window-x="-8"
     inkscape:window-y="-8"
     inkscape:window-maximized="1" />
  <metadata
     id="metadata1099">
    <rdf:RDF>
      <cc:Work
         rdf:about="">
        <dc:format>image/svg+xml</dc:format>
        <dc:type
           rdf:resource="http://purl.org/dc/dcmitype/StillImage" />
        <dc:title></dc:title>
      </cc:Work>
    </rdf:RDF>
  </metadata>
  <g
     inkscape:label="Capa 1"
     inkscape:groupmode="layer"
     id="layer1"
     transform="translate(-157.01666,-48.98793)">
    <path
       d="m 169.31475,54.382951 c -0.042,0 -0.0704,0.0053 -0.10001,0.01201 v 0.0047 h 0.005 c 0.0197,0.03798 0.0533,0.06568 0.0781,0.09966 0.0197,0.03905 0.0365,0.07812 0.0562,0.116805 l 0.005,-0.0053 c 0.0343,-0.02409 0.0511,-0.06281 0.0511,-0.121558 -0.0146,-0.01716 -0.0167,-0.03431 -0.0292,-0.05113 -0.0146,-0.02443 -0.046,-0.03651 -0.0657,-0.05587 z m -3.88207,4.816182 h -0.33839 a 18.563147,18.563147 0 0 0 -0.0985,-1.609777 h -0.003 l -0.51469,1.609777 h -0.25734 l -0.51104,-1.609777 h -0.003 a 26.60764,26.60764 0 0 0 -0.0712,1.609777 h -0.30845 c 0.0201,-0.717644 0.0701,-1.390759 0.14966,-2.018604 h 0.41978 l 0.48732,1.483473 h 0.003 l 0.49169,-1.483473 h 0.39971 c 0.0883,0.735532 0.14017,1.409007 0.15623,2.018604 z m 1.46632,-1.489314 c -0.13799,0.746479 -0.31977,1.289646 -0.54462,1.628026 -0.17595,0.261357 -0.36869,0.391672 -0.57785,0.391672 -0.0559,0 -0.12411,-0.01675 -0.2066,-0.0504 v -0.180324 c 0.0401,0.006 0.0876,0.0095 0.1409,0.0095 0.0978,0 0.17631,-0.02737 0.23617,-0.08103 0.0719,-0.06568 0.10768,-0.13944 0.10768,-0.22084 0,-0.0566 -0.0281,-0.171567 -0.0839,-0.344588 l -0.37014,-1.152029 h 0.33217 l 0.26538,0.861468 c 0.0599,0.19565 0.0851,0.332172 0.0748,0.409922 0.14601,-0.388388 0.24749,-0.812915 0.3048,-1.27139 z m 4.49897,1.489314 h -0.96003 v -2.018604 h 0.32305 v 1.770383 h 0.63698 z m -1.2119,0.04926 -0.37086,-0.18252 c 0.0328,-0.02777 0.0646,-0.05767 0.0931,-0.09125 0.15806,-0.184702 0.23653,-0.459203 0.23653,-0.822407 0,-0.668002 -0.26208,-1.00237 -0.78663,-1.00237 -0.25698,0 -0.45774,0.08469 -0.6023,0.254422 -0.15696,0.185437 -0.2358,0.458475 -0.2358,0.81949 0,0.354807 0.0693,0.615437 0.20952,0.781163 0.12776,0.149659 0.32013,0.224492 0.57784,0.224492 0.0964,0 0.18471,-0.01208 0.26465,-0.03578 l 0.48366,0.281803 0.13141,-0.227048 z m -1.20166,-0.453369 c -0.0821,-0.13141 -0.12302,-0.343126 -0.12302,-0.633686 0,-0.508484 0.15477,-0.762913 0.46358,-0.762913 0.16171,0 0.28107,0.06094 0.35663,0.182519 0.0818,0.132137 0.12265,0.341664 0.12265,0.628941 0,0.512502 -0.15477,0.769481 -0.46358,0.769481 -0.16244,0 -0.28107,-0.06094 -0.357,-0.182513 z m -0.60522,-0.155133 c 0,0.17156 -0.0628,0.312461 -0.18836,0.42197 -0.12557,0.109509 -0.29312,0.164264 -0.5052,0.164264 -0.19821,0 -0.38839,-0.06281 -0.57419,-0.187993 l 0.0865,-0.173749 c 0.15988,0.08031 0.30407,0.119729 0.43438,0.119729 0.12119,0 0.21646,-0.02663 0.28582,-0.08031 a 0.27523131,0.27523131 0 0 0 0.10952,-0.224492 c 0,-0.120462 -0.084,-0.222669 -0.23655,-0.308449 -0.14163,-0.07775 -0.42452,-0.239824 -0.42452,-0.239824 -0.15405,-0.112066 -0.2307,-0.232161 -0.2307,-0.429639 0,-0.164264 0.0573,-0.295674 0.17156,-0.396058 0.11499,-0.101473 0.26282,-0.151482 0.44534,-0.151482 0.18689,0 0.35772,0.04966 0.51104,0.149659 l -0.0777,0.173756 a 0.99506706,0.99506706 0 0 0 -0.3884,-0.08396 c -0.1033,0 -0.18324,0.02483 -0.23873,0.07519 a 0.25004436,0.25004436 0 0 0 -0.0905,0.191278 c 0,0.119728 0.0854,0.222663 0.2431,0.310271 0.14347,0.07848 0.4333,0.24457 0.4333,0.24457 0.15805,0.111332 0.23654,0.229966 0.23654,0.426356 z m 3.42469,-2.13615 c -0.19529,-0.0053 -0.34678,0.01462 -0.47345,0.06862 -0.0365,0.01462 -0.0949,0.01462 -0.10001,0.06094 0.0201,0.01936 0.023,0.05113 0.0402,0.07812 0.0292,0.04893 0.0796,0.114256 0.12629,0.148565 0.0511,0.04018 0.10221,0.07884 0.15587,0.11316 0.0949,0.05841 0.20259,0.09308 0.29567,0.151849 0.0529,0.03431 0.10696,0.07776 0.16062,0.114255 0.0266,0.01822 0.0438,0.05113 0.0781,0.06281 v -0.0073 c -0.0167,-0.02189 -0.0219,-0.05367 -0.0383,-0.07811 -0.0244,-0.02443 -0.0489,-0.04639 -0.073,-0.07045 a 1.1764861,1.1764861 0 0 0 -0.25369,-0.246392 c -0.0781,-0.05327 -0.24895,-0.127759 -0.28108,-0.217189 l -0.005,-0.0053 c 0.0533,-0.0047 0.11681,-0.02409 0.16791,-0.03871 0.0829,-0.02189 0.15879,-0.01716 0.24457,-0.03872 0.0387,-0.0099 0.0778,-0.02189 0.11681,-0.03431 v -0.02189 c -0.0438,-0.04379 -0.0767,-0.103302 -0.12192,-0.144186 a 3.2367056,3.2367056 0 0 0 -0.40299,-0.300419 c -0.0767,-0.04893 -0.17375,-0.08031 -0.25443,-0.121918 -0.0292,-0.01462 -0.0781,-0.02189 -0.0949,-0.04639 -0.0438,-0.05327 -0.0694,-0.124107 -0.10038,-0.18762 a 6.4573499,6.4573499 0 0 1 -0.19948,-0.424535 c -0.0438,-0.09563 -0.0705,-0.190903 -0.12411,-0.278511 -0.25187,-0.415042 -0.52455,-0.666541 -0.94396,-0.912573 -0.0902,-0.05113 -0.19822,-0.073 -0.31247,-0.100017 -0.0609,-0.0027 -0.12192,-0.0073 -0.18251,-0.0099 -0.0402,-0.01716 -0.0789,-0.06348 -0.11316,-0.08578 -0.13871,-0.08761 -0.4979,-0.277417 -0.60011,-0.0263 -0.0657,0.158423 0.0975,0.31465 0.15404,0.394957 0.042,0.05587 0.0949,0.119728 0.12411,0.182513 0.0172,0.04232 0.0219,0.08579 0.0391,0.129954 0.0387,0.10732 0.0756,0.227049 0.12666,0.327426 0.0266,0.05113 0.0559,0.104764 0.0902,0.150761 0.0197,0.02663 0.0533,0.03905 0.0609,0.08286 -0.0343,0.04966 -0.0365,0.121919 -0.0562,0.182514 -0.0876,0.276322 -0.0533,0.617993 0.0708,0.821312 0.039,0.06061 0.13215,0.194928 0.25662,0.143458 0.1095,-0.04379 0.0854,-0.182513 0.1168,-0.304798 0.007,-0.02917 0.003,-0.04853 0.0176,-0.06826 v 0.0053 c 0.0343,0.06862 0.0686,0.133965 0.10001,0.202591 0.0752,0.119728 0.20661,0.243836 0.31648,0.326698 0.0584,0.04379 0.10476,0.119729 0.17777,0.146743 v -0.0073 h -0.005 c -0.0157,-0.02116 -0.0365,-0.03137 -0.0562,-0.04853 a 1.2575224,1.2575224 0 0 1 -0.12775,-0.146015 3.1976476,3.1976476 0 0 1 -0.27267,-0.444605 c -0.0402,-0.07665 -0.0737,-0.15915 -0.10586,-0.234711 -0.0146,-0.02924 -0.0146,-0.073 -0.0391,-0.08761 -0.0365,0.05327 -0.0902,0.09966 -0.11681,0.165359 -0.0463,0.105131 -0.0511,0.234351 -0.0686,0.368678 -0.01,0.0027 -0.005,0 -0.01,0.0053 -0.0781,-0.01896 -0.10476,-0.100018 -0.13397,-0.167915 -0.073,-0.173389 -0.085,-0.451901 -0.0219,-0.651575 0.0172,-0.05113 0.0902,-0.212443 0.0609,-0.261358 -0.0153,-0.04639 -0.0635,-0.07301 -0.0902,-0.110603 a 0.90454003,0.90454003 0 0 1 -0.0876,-0.155867 c -0.0584,-0.136523 -0.0876,-0.287644 -0.15112,-0.424166 -0.0292,-0.06314 -0.0803,-0.129221 -0.12192,-0.187259 -0.0463,-0.06568 -0.0975,-0.112066 -0.13433,-0.189816 -0.012,-0.02663 -0.0292,-0.07081 -0.01,-0.100017 0.005,-0.01969 0.0153,-0.02737 0.0343,-0.03284 0.0321,-0.0263 0.12229,0.008 0.15405,0.02263 0.0902,0.03651 0.16608,0.07081 0.24165,0.121919 0.0343,0.0241 0.0712,0.07045 0.11498,0.0825 h 0.0511 c 0.0781,0.01716 0.16609,0.0053 0.23909,0.02663 0.12959,0.04165 0.24639,0.102213 0.35115,0.167915 a 2.1730133,2.1730133 0 0 1 0.76109,0.834455 c 0.0292,0.0562 0.042,0.107687 0.0686,0.166086 0.0511,0.120463 0.11426,0.242013 0.1661,0.358458 0.0511,0.114982 0.10037,0.232161 0.17374,0.327433 0.0365,0.05113 0.18325,0.07775 0.24895,0.104396 0.0485,0.02189 0.12412,0.04199 0.16792,0.06862 0.084,0.05113 0.16573,0.109509 0.24457,0.165726 0.0401,0.02777 0.16171,0.0887 0.16901,0.137977 z"
       id="path1204"
       style="fill:#ffffff;stroke-width:0.365028" />
    <g
       id="g1352"
       transform="matrix(0.48381999,0,0,0.48381999,100.12285,18.420888)">
      <rect
         style="fill:#cc2927;fill-opacity:1;stroke:none;stroke-width:0.264583;stroke-opacity:1"
         id="rect1414-3-2"
         width="31.003265"
         height="31.003265"
         x="117.59293"
         y="63.178543"
         ry="0" />
      <text
         xml:space="preserve"
         style="font-style:normal;font-weight:normal;font-size:4.93889px;line-height:1.25;font-family:sans-serif;fill:#ffffff;fill-opacity:1;stroke:none;stroke-width:0.264583"
         x="121.1561"
         y="89.622742"
         id="text1418-4-2"><tspan
           sodipodi:role="line"
           id="tspan1416-5-1"
           x="121.1561"
           y="89.622742"
           style="font-style:normal;font-variant:normal;font-weight:normal;font-stretch:normal;font-size:4.93889px;font-family:'Segoe UI';-inkscape-font-specification:'Segoe UI';fill:#ffffff;stroke-width:0.264583">SQL Server</tspan></text>
      <path
         d="m 129.11557,71.140661 c 0,0 -0.0437,0.0695 -0.002,0.17226 0.0252,0.0634 0.10172,0.13999 0.18593,0.22093 0,0 0.88319,0.86186 0.99147,0.98654 0.48944,0.56491 0.70217,1.12107 0.72186,1.88832 0.012,0.49218 -0.0826,0.92529 -0.31336,1.42895 -0.41342,0.90178 -1.28512,1.89652 -2.63041,3.00228 l 0.19687,-0.0656 c 0.12742,-0.0946 0.29968,-0.19633 0.70655,-0.4189 0.93678,-0.51186 1.98839,-0.98326 3.28063,-1.46887 1.85879,-0.69835 4.9163,-1.5181 6.65642,-1.78442 l 0.18101,-0.0279 -0.0273,-0.0437 c -0.15969,-0.24718 -0.26796,-0.39975 -0.39921,-0.56163 -0.38116,-0.47194 -0.84326,-0.85693 -1.40927,-1.17356 -0.77764,-0.43585 -1.7866,-0.77436 -3.06243,-1.02811 a 37.148414,37.148414 0 0 0 -1.19818,-0.20507 114.45299,114.45299 0 0 1 -2.14589,-0.34999 c -0.23242,-0.041 -0.57967,-0.099 -0.8099,-0.14875 a 5.1427011,5.1427011 0 0 1 -0.52554,-0.14109 c -0.14656,-0.0574 -0.35273,-0.1132 -0.39702,-0.28163 z m 0.51186,0.49709 c 0.002,-10e-4 0.0344,0.009 0.0749,0.023 0.0744,0.0252 0.17281,0.0547 0.28765,0.087 0.0798,0.0219 0.16789,0.0459 0.26195,0.0695 0.11922,0.0306 0.2182,0.0569 0.21929,0.0585 0.0131,0.0148 0.21383,0.65514 0.28218,0.90068 0.0263,0.0941 0.0459,0.17226 0.0443,0.17391 a 0.43147503,0.43147503 0 0 1 -0.0492,-0.0766 c -0.23187,-0.40796 -0.59991,-0.82302 -1.02482,-1.15716 a 1.6974632,1.6974632 0 0 1 -0.0962,-0.0788 z m 0.97889,0.27015 c 0.01,-5.4e-4 0.0541,0.007 0.10664,0.0186 0.3385,0.0744 0.94333,0.1914 1.33161,0.25702 0.0651,0.0109 0.11812,0.0219 0.11812,0.0257 a 0.19030838,0.19030838 0 0 1 -0.0536,0.0339 c -0.0651,0.0328 -0.32921,0.19086 -0.41726,0.24992 -0.22039,0.14765 -0.4189,0.30569 -0.56327,0.44897 a 2.9530611,2.9530611 0 0 1 -0.10773,0.105 c -0.002,0 -0.012,-0.0339 -0.0224,-0.0749 a 6.6115756,6.6115756 0 0 0 -0.35546,-0.97287 0.98490055,0.98490055 0 0 1 -0.0388,-0.0902 c 0,-5.5e-4 0,-0.001 0.002,-0.001 z m 1.72098,0.32703 c 0.0109,0.004 0.0328,0.0711 0.0705,0.22093 a 3.3085221,3.3085221 0 0 1 0.0837,1.08115 l -0.007,0.0208 -0.10227,-0.0328 c -0.21218,-0.0678 -0.5578,-0.16953 -0.8542,-0.25156 a 3.6229684,3.6229684 0 0 1 -0.30624,-0.093 c 0,-0.012 0.24554,-0.25757 0.35109,-0.35108 0.20179,-0.17828 0.74483,-0.60046 0.76397,-0.59444 z m 0.13671,0.0197 c 0.006,-0.005 0.82248,0.13562 1.19326,0.20671 0.27671,0.053 0.67647,0.13672 0.70053,0.14711 0.012,0.004 -0.0295,0.0273 -0.16242,0.0875 -0.52499,0.23625 -0.91436,0.44843 -1.30153,0.7071 -0.10172,0.0678 -0.18648,0.12359 -0.18813,0.12359 -0.002,0 -0.003,-0.0569 -0.003,-0.12578 0,-0.37733 -0.076,-0.7585 -0.21382,-1.0806 a 0.37624185,0.37624185 0 0 1 -0.0246,-0.0656 z m 2.11089,0.4178 c 0.006,0.006 -0.0208,0.16734 -0.0438,0.26249 -0.0722,0.29531 -0.26358,0.73499 -0.49983,1.14787 a 1.2359107,1.2359107 0 0 1 -0.0831,0.13453 0.81974787,0.81974787 0 0 1 -0.11977,-0.0629 c -0.23077,-0.13508 -0.49217,-0.2625 -0.77928,-0.38117 a 2.5090082,2.5090082 0 0 1 -0.15202,-0.0656 c -0.0131,-0.012 0.62506,-0.43476 0.96357,-0.63764 0.2707,-0.16242 0.70655,-0.40523 0.7142,-0.39757 z m 0.15094,0.0235 c 0.018,0 0.38007,0.0984 0.56709,0.15477 0.46648,0.13945 1.00459,0.33577 1.35349,0.49436 l 0.14492,0.0656 -0.10226,0.0235 c -0.85366,0.19687 -1.58591,0.42272 -2.29027,0.70873 -0.0585,0.0241 -0.10937,0.0437 -0.1132,0.0437 a 0.49819234,0.49819234 0 0 1 0.041,-0.10117 c 0.21218,-0.45006 0.3489,-0.92255 0.38444,-1.32341 0.003,-0.0366 0.01,-0.0662 0.0148,-0.0662 z m -3.59836,0.82686 c 0.005,-0.005 0.28109,0.0591 0.43147,0.10117 0.22586,0.0634 0.70655,0.22421 0.70655,0.23679 0,0.002 -0.053,0.0487 -0.11758,0.10281 -0.25976,0.21711 -0.51077,0.4446 -0.81099,0.73444 a 2.8819688,2.8819688 0 0 1 -0.16844,0.15586 c -0.004,0 -0.005,-0.0126 -0.003,-0.0274 0.0454,-0.33413 0.0356,-0.76287 -0.0273,-1.19927 a 0.70545347,0.70545347 0 0 1 -0.0109,-0.1039 z m 5.80222,0.005 c 0.004,0.004 -0.12797,0.21054 -0.21,0.32812 -0.12031,0.17171 -0.29367,0.39702 -0.68959,0.89521 l -0.52171,0.65733 a 5.1503572,5.1503572 0 0 1 -0.14711,0.18211 c -0.002,0 -0.0273,-0.0361 -0.0563,-0.0798 a 4.1474102,4.1474102 0 0 0 -0.80389,-0.88866 5.2444177,5.2444177 0 0 0 -0.14766,-0.11921 0.23351057,0.23351057 0 0 1 -0.0405,-0.0345 c 0,-0.005 0.33741,-0.14984 0.59498,-0.25483 a 20.244874,20.244874 0 0 1 1.51919,-0.5414 c 0.24171,-0.0738 0.49874,-0.14765 0.50257,-0.14437 z m 0.15202,0.0399 a 0.50858274,0.50858274 0 0 1 0.1132,0.0547 6.7121984,6.7121984 0 0 1 1.32779,0.99748 c 0.10609,0.1039 0.36476,0.3735 0.36093,0.37569 l -0.19851,0.0159 c -0.8367,0.0629 -1.90637,0.24062 -2.93666,0.48835 -0.07,0.0164 -0.13015,0.0306 -0.13453,0.0306 -0.004,0 0.0727,-0.0766 0.17008,-0.17062 0.60537,-0.58131 0.88099,-0.94826 1.20583,-1.60449 0.0481,-0.0974 0.0891,-0.18211 0.0908,-0.18703 h 0.001 z m -4.42303,0.4539 c 0.0279,0.005 0.28601,0.12578 0.4807,0.22312 0.17773,0.0891 0.44733,0.23296 0.461,0.24554 0.002,0.002 -0.093,0.0509 -0.21109,0.10992 -0.3735,0.18703 -0.69342,0.36312 -1.02701,0.5671 -0.0957,0.0585 -0.17499,0.10609 -0.17773,0.10609 -0.008,0 -0.005,-0.007 0.0481,-0.10445 a 4.21194,4.21194 0 0 0 0.40358,-1.09482 c 0.008,-0.0339 0.0164,-0.0547 0.0224,-0.053 z m -0.25976,0.0459 c 0.005,0.005 -0.0612,0.25156 -0.1039,0.38281 a 4.9720798,4.9720798 0 0 1 -0.45663,0.98873 l -0.0492,0.0804 -0.11101,-0.10774 a 1.4606715,1.4606715 0 0 0 -0.36968,-0.27343 0.55178493,0.55178493 0 0 1 -0.0962,-0.0558 c 0,-0.0164 0.33906,-0.32429 0.60046,-0.54577 0.18757,-0.15859 0.58186,-0.47413 0.58623,-0.46921 z m 1.57935,0.64968 0.0968,0.0629 c 0.22257,0.14437 0.48561,0.3385 0.68631,0.5053 0.11266,0.0941 0.33086,0.28984 0.3757,0.33687 l 0.0241,0.0257 -0.16078,0.0448 a 29.421238,29.421238 0 0 0 -2.43354,0.77873 c -0.0913,0.0334 -0.16953,0.0612 -0.17499,0.0612 -0.0115,0 -0.023,0.0104 0.1821,-0.17827 0.52499,-0.48288 0.98818,-1.01498 1.33435,-1.53231 z m -0.41507,0.1039 c 0.005,0.005 -0.26906,0.38827 -0.43148,0.60483 -0.19468,0.25867 -0.54139,0.69178 -0.77983,0.97342 a 4.795443,4.795443 0 0 1 -0.18921,0.2171 c -0.005,0.002 -0.008,-0.0273 -0.009,-0.0727 0,-0.24062 -0.0613,-0.49765 -0.16843,-0.7153 -0.0454,-0.0919 -0.0531,-0.11374 -0.0437,-0.12249 0.0372,-0.0339 0.61631,-0.36421 0.98107,-0.55945 0.25101,-0.13452 0.636,-0.3303 0.64038,-0.32538 z m -2.51011,0.61522 a 2.1808903,2.1808903 0 0 1 0.44406,0.28328 c 0.004,0.003 -0.0476,0.0454 -0.11484,0.0941 -0.18867,0.13617 -0.47578,0.35218 -0.64147,0.48452 -0.175,0.13945 -0.18102,0.14382 -0.16133,0.1132 0.13125,-0.2007 0.19687,-0.3139 0.26578,-0.45937 0.0618,-0.12906 0.12249,-0.28218 0.16624,-0.41561 a 0.36913263,0.36913263 0 0 1 0.0421,-0.10008 z m 0.66882,0.52499 c 0.009,-0.002 0.0219,0.0153 0.076,0.0957 0.1132,0.16953 0.20015,0.39484 0.22258,0.57858 l 0.004,0.0399 -0.27179,0.105 c -0.48671,0.18922 -0.93568,0.3757 -1.23919,0.51405 -0.0848,0.0394 -0.23406,0.11047 -0.33195,0.15969 -0.0979,0.0492 -0.17773,0.0875 -0.17773,0.0853 0,-0.002 0.0613,-0.0487 0.13672,-0.10281 0.59444,-0.43202 1.10739,-0.90451 1.49403,-1.37755 0.041,-0.0503 0.0787,-0.0941 0.0837,-0.0973 a 0.00874981,0.00874981 0 0 1 0.003,-0.001 z m -0.30843,0.0766 c 0.008,0.008 -0.2193,0.26468 -0.37242,0.42109 -0.3828,0.391 -0.76342,0.69725 -1.23372,0.99583 -0.0591,0.0377 -0.11265,0.0711 -0.12031,0.0755 -0.0126,0.008 0.004,-0.012 0.21109,-0.23734 0.13015,-0.14163 0.22968,-0.25921 0.34343,-0.40632 0.0744,-0.0968 0.0886,-0.11046 0.19796,-0.18921 0.29367,-0.21218 0.96631,-0.66772 0.97397,-0.66007 z m 0.54631,-6.2676 c -0.0437,-0.005 -0.74975,0.24883 -1.2031,0.43257 -0.61412,0.24992 -1.09153,0.4889 -1.38575,0.69561 -0.10937,0.0766 -0.24718,0.21492 -0.26687,0.26796 a 0.19468328,0.19468328 0 0 0 -0.0115,0.0673 l 0.26687,0.25156 0.63327,0.20234 1.50879,0.27015 1.72426,0.2964 0.0175,-0.14766 -0.0153,-0.003 -0.22695,-0.0361 -0.0465,-0.0809 a 15.149203,15.149203 0 0 1 -0.64366,-1.27146 6.7067298,6.7067298 0 0 1 -0.28984,-0.80115 c -0.0372,-0.13289 -0.041,-0.14109 -0.0613,-0.14383 z m -0.0334,0.10172 h 0.003 c 0.002,0.002 0.009,0.0574 0.0175,0.12304 0.0339,0.27781 0.0962,0.54687 0.19359,0.8367 0.0733,0.21875 0.0744,0.20617 -0.0131,0.18156 -0.20234,-0.0563 -1.11122,-0.21218 -1.76855,-0.30351 a 4.8102083,4.8102083 0 0 1 -0.19523,-0.029 c -0.008,-0.008 0.47413,-0.26085 0.68795,-0.36093 0.27398,-0.12687 1.021,-0.43749 1.07513,-0.44788 z m -1.91511,0.89029 0.0771,0.0263 c 0.42218,0.14328 1.47981,0.34562 2.06441,0.39374 0.0656,0.005 0.1214,0.0115 0.12304,0.0131 0.002,0.002 -0.0547,0.0317 -0.12468,0.0667 -0.28164,0.14109 -0.59226,0.31335 -0.80717,0.44788 -0.0629,0.0394 -0.12031,0.0711 -0.12852,0.0705 a 2.6621299,2.6621299 0 0 1 -0.093,-0.0148 l -0.0787,-0.0126 -0.19961,-0.19414 c -0.35054,-0.33905 -0.62397,-0.60155 -0.73006,-0.69998 z m -0.0782,0.0623 0.27945,0.34889 c 0.15421,0.19141 0.30843,0.38226 0.34233,0.42328 0.0344,0.041 0.0607,0.0755 0.0591,0.0766 -0.008,0.006 -0.40468,-0.0711 -0.61522,-0.11977 a 4.6658365,4.6658365 0 0 1 -0.43913,-0.11593 l -0.10937,-0.035 5.5e-4,-0.0268 c 0.002,-0.13398 0.17062,-0.33194 0.45717,-0.53374 z m 2.37995,0.47522 c 0.008,5.5e-4 0.0175,0.0175 0.0421,0.0716 0.0678,0.14875 0.2789,0.55124 0.32975,0.62889 0.0164,0.0257 0.0437,0.0273 -0.23679,-0.018 -0.67264,-0.10827 -0.89084,-0.14491 -0.89084,-0.14929 a 0.19687074,0.19687074 0 0 1 0.0454,-0.0295 3.8991343,3.8991343 0 0 0 0.60538,-0.41944 l 0.0957,-0.0804 c 0.003,-0.003 0.007,-0.004 0.009,-0.004 z m 2.35643,4.59802 -2.62932,0.85749 -2.28589,1.00951 -0.63983,0.16952 c -0.16296,0.15422 -0.33522,0.31062 -0.51842,0.47031 -0.20234,0.17554 -0.39156,0.33468 -0.53593,0.44952 a 4.0795992,4.0795992 0 0 0 -0.52116,0.51678 c -0.18156,0.2264 -0.32374,0.46702 -0.38499,0.65241 -0.10937,0.33359 -0.0563,0.67155 0.15586,0.98326 0.27069,0.39812 0.80935,0.8028 1.43551,1.07841 0.31992,0.14 0.85858,0.32156 1.26326,0.42328 0.67428,0.17062 1.97636,0.35546 2.69384,0.3828 0.14547,0.005 0.33906,0.005 0.34836,-0.001 0.0153,-0.0104 0.12741,-0.22148 0.25702,-0.48671 0.44077,-0.90014 0.75959,-1.74449 0.93131,-2.46526 0.1039,-0.43694 0.18484,-1.01881 0.23734,-1.70895 0.0148,-0.19359 0.0202,-0.83834 0.009,-1.05763 a 7.4176519,7.4176519 0 0 0 -0.10008,-0.93295 0.23788547,0.23788547 0 0 1 -0.007,-0.082 c 0.008,-0.005 0.0323,-0.0137 0.35546,-0.10773 z m -0.60155,0.35273 c 0.0246,0 0.0875,0.60921 0.10445,0.99529 0.003,0.0826 0.003,0.13508 -0.002,0.13508 -0.0153,0 -0.33632,-0.18867 -0.56436,-0.3314 a 15.703722,15.703722 0 0 1 -0.63545,-0.42218 c -0.0191,-0.0153 -0.017,-0.0159 0.14546,-0.0716 0.27617,-0.0951 0.93186,-0.30515 0.95264,-0.30515 z m -1.33872,0.43913 c 0.0164,0 0.0629,0.0257 0.17226,0.0941 0.41015,0.25703 0.96576,0.56601 1.2031,0.66991 0.0744,0.0328 0.0826,0.0197 -0.0875,0.13508 -0.36202,0.24608 -0.81264,0.4878 -1.36551,0.73389 a 4.1506914,4.1506914 0 0 1 -0.18102,0.0777 0.54084766,0.54084766 0 0 1 0.0235,-0.10937 c 0.13398,-0.49491 0.20945,-0.99529 0.21163,-1.39669 0.001,-0.19796 0.001,-0.19906 0.0202,-0.20398 h 0.003 z m -0.27562,0.10555 c 0.0115,0.012 0.003,0.45608 -0.0109,0.57748 a 5.0344222,5.0344222 0 0 1 -0.22859,1.00459 c -0.008,0.009 -0.27944,-0.25593 -0.36967,-0.36093 a 2.689473,2.689473 0 0 1 -0.36586,-0.5321 c -0.0448,-0.0886 -0.11703,-0.26468 -0.11046,-0.2696 0.0306,-0.0219 1.07786,-0.42655 1.08552,-0.41944 z m -1.2988,0.51186 c 0.002,0 0.004,5.5e-4 0.005,0.002 a 0.48178644,0.48178644 0 0 1 0.0306,0.0716 c 0.0634,0.17226 0.20562,0.42764 0.32922,0.59061 a 3.4162542,3.4162542 0 0 0 0.55616,0.57967 c 0.0126,0.0109 0.0164,0.009 -0.30734,0.13125 a 26.539269,26.539269 0 0 1 -1.25451,0.43749 c -0.17882,0.058 -0.3303,0.10664 -0.33632,0.10938 -0.018,0.006 -0.0126,-0.005 0.0399,-0.0864 0.23351,-0.36421 0.58679,-1.07732 0.78475,-1.58153 0.0339,-0.0875 0.0667,-0.17499 0.0727,-0.19468 0.008,-0.0284 0.0169,-0.0383 0.0437,-0.0503 a 0.08148261,0.08148261 0 0 1 0.0356,-0.009 z m -0.39812,0.16406 c 0.005,0.005 -0.0951,0.21765 -0.19468,0.41069 -0.19195,0.37515 -0.40413,0.74429 -0.68522,1.1949 l -0.0995,0.1575 c -0.01,0.0148 -0.0142,0.01 -0.0448,-0.0514 a 1.8084765,1.8084765 0 0 1 -0.15312,-0.46046 1.8538661,1.8538661 0 0 1 0.0109,-0.59225 c 0.0257,-0.12414 0.0246,-0.1214 0.0831,-0.15093 0.25265,-0.12961 1.07513,-0.51515 1.08333,-0.50804 z m 3.42774,0.13945 v 0.0842 a 10.995231,10.995231 0 0 1 -0.13945,1.63621 5.1197329,5.1197329 0 0 1 -1.03794,-0.42765 c -0.19359,-0.10609 -0.47304,-0.27725 -0.46484,-0.28546 0.002,-0.002 0.0842,-0.0454 0.18265,-0.0968 0.39047,-0.20234 0.76288,-0.42109 1.08717,-0.63765 0.1214,-0.0809 0.30351,-0.21272 0.34398,-0.24827 z m -4.92833,0.58678 c 0.008,0 0.006,0.0153 -0.007,0.088 a 2.2623729,2.2623729 0 0 0 -0.0224,0.21328 c -0.0164,0.29093 0.0312,0.5053 0.17499,0.79842 0.0405,0.082 0.0722,0.14984 0.0705,0.15093 -0.0148,0.0126 -1.32888,0.39702 -1.74231,0.51022 l -0.23788,0.0656 c -0.0148,0.004 -0.0159,10e-4 -0.0109,-0.0328 0.0454,-0.29148 0.26796,-0.67374 0.57858,-0.9953 0.20672,-0.21327 0.37187,-0.34014 0.6535,-0.50038 a 16.833542,16.833542 0 0 1 0.54249,-0.29804 z m 3.10017,0.55507 c 10e-4,-10e-4 0.0498,0.0246 0.10773,0.0585 0.42491,0.24555 1.01717,0.47578 1.52192,0.59116 l 0.0459,0.0109 -0.0629,0.0344 c -0.26359,0.14656 -1.13256,0.50804 -2.02011,0.84053 a 37.635123,37.635123 0 0 0 -0.28054,0.10609 0.17171503,0.17171503 0 0 1 -0.0448,0.0148 c 0,-0.002 0.0366,-0.0722 0.0815,-0.1564 0.24937,-0.46593 0.49765,-1.03193 0.62562,-1.42458 0.0126,-0.0399 0.0241,-0.0738 0.0257,-0.0755 z m -0.31609,0.1039 a 0.76013979,0.76013979 0 0 1 -0.0344,0.0924 12.869878,12.869878 0 0 1 -0.68959,1.38904 4.9266902,4.9266902 0 0 1 -0.13781,0.23679 c -0.003,0 -0.0623,-0.0361 -0.13344,-0.0793 -0.42108,-0.25812 -0.79404,-0.5753 -1.03904,-0.88427 l -0.035,-0.0437 0.18156,-0.0498 a 12.91472,12.91472 0 0 0 1.74449,-0.60319 c 0.0777,-0.0328 0.14219,-0.0596 0.14328,-0.058 z m 1.96324,0.68522 c 5.5e-4,0 0.001,5.5e-4 0.001,0.002 0,0.0437 -0.10007,0.45281 -0.18374,0.74921 -0.07,0.24773 -0.12906,0.44186 -0.23789,0.78584 a 4.6663833,4.6663833 0 0 1 -0.0919,0.27562 8.2051348,8.2051348 0 0 1 -1.64059,-0.45991 4.3552182,4.3552182 0 0 1 -0.34944,-0.15477 c -0.003,-0.004 0.11648,-0.0602 0.26577,-0.12577 0.90506,-0.39429 1.84238,-0.84381 2.16284,-1.03686 a 0.23624488,0.23624488 0 0 1 0.0738,-0.035 z m -4.53185,0.15477 c 0.005,0.005 -0.24828,0.36694 -0.60155,0.86185 l -0.32101,0.45007 c -0.0531,0.076 -0.13398,0.19578 -0.17992,0.26687 l -0.0837,0.12906 -0.0886,-0.0749 c -0.10445,-0.0875 -0.28711,-0.27398 -0.37023,-0.37734 -0.17062,-0.21273 -0.28601,-0.43639 -0.33194,-0.64201 -0.0208,-0.0952 -0.0219,-0.14328 -0.002,-0.1493 a 96.3901,96.3901 0 0 1 1.05764,-0.24882 l 0.71092,-0.16679 c 0.11429,-0.0274 0.2089,-0.0492 0.21,-0.0487 z m 0.25429,0.0973 0.064,0.0716 a 3.6984355,3.6984355 0 0 0 0.93295,0.76232 c 0.0629,0.0361 0.11047,0.0678 0.10664,0.07 a 154.19736,154.19736 0 0 1 -2.36792,0.8367 0.46920859,0.46920859 0 0 1 -0.0394,-0.0263 l -0.0366,-0.0263 0.0574,-0.0831 c 0.18593,-0.2696 0.41999,-0.566 0.9324,-1.18232 z m 1.5859,1.13365 c 0.002,-0.002 0.0902,0.0295 0.19796,0.07 0.25867,0.0968 0.46156,0.15969 0.73663,0.22859 0.33741,0.0848 0.82576,0.16953 1.11451,0.19359 0.0437,0.003 0.0667,0.009 0.0601,0.0131 -0.0137,0.009 -0.30624,0.10609 -0.52116,0.1739 a 141.37834,141.37834 0 0 1 -2.53526,0.74537 c -0.0191,0.004 -0.0858,-0.0137 -0.0858,-0.0219 0,-0.005 0.0476,-0.0651 0.10554,-0.13453 a 12.045755,12.045755 0 0 0 0.80717,-1.08498 31.116514,31.116514 0 0 1 0.12031,-0.18319 z m -0.35109,0.01 c 0.003,0.003 -0.13835,0.22859 -0.38608,0.61905 -0.105,0.1646 -0.22367,0.35272 -0.26414,0.41671 -0.041,0.0645 -0.10062,0.16296 -0.13234,0.21874 l -0.0585,0.10117 -0.0295,-0.008 c -0.0711,-0.0191 -0.57366,-0.19687 -0.706,-0.24937 -0.16461,-0.0656 -0.33632,-0.14437 -0.46265,-0.21273 -0.15804,-0.0853 -0.35819,-0.21219 -0.34288,-0.21711 l 0.60428,-0.16515 c 0.87061,-0.23734 1.35239,-0.37351 1.66793,-0.47249 0.0596,-0.0181 0.10883,-0.0323 0.10938,-0.0312 z m 2.47347,0.58022 h 0.003 c 0.008,0.0208 -0.31445,0.91326 -0.43202,1.19654 -0.0268,0.0634 -0.0361,0.0793 -0.0503,0.0782 a 30.37278,30.37278 0 0 1 -0.78365,-0.10937 c -0.49546,-0.0755 -1.32505,-0.22039 -1.5345,-0.26797 l -0.0487,-0.0109 0.29695,-0.0667 c 0.63655,-0.14328 0.94224,-0.22039 1.25231,-0.31554 a 9.0473041,9.0473041 0 0 0 1.1692,-0.45062 c 0.0618,-0.0284 0.11484,-0.0509 0.12742,-0.0536 z"
         id="path1289"
         style="fill:#ffffff;stroke-width:0.546863" />
    </g>
  </g>
</svg>
