<?xml version="1.0" encoding="UTF-8"?>
<svg xmlns="http://www.w3.org/2000/svg" xmlns:xlink="http://www.w3.org/1999/xlink" width="57px" height="57px" viewBox="0 0 57 57" version="1.1">
<g id="surface1">
<path style=" stroke:none;fill-rule:evenodd;fill:rgb(10.588235%,10.588235%,12.156863%);fill-opacity:1;" d="M 49.976562 11.632812 L 31.976562 0.949219 C 29.847656 -0.316406 27.195312 -0.316406 25.066406 0.949219 L 7.0625 11.632812 C 4.886719 12.929688 3.554688 15.28125 3.5625 17.816406 L 3.5625 39.183594 C 3.550781 41.710938 4.867188 44.0625 7.03125 45.367188 L 25.03125 56.050781 C 27.160156 57.316406 29.8125 57.316406 31.941406 56.050781 L 49.945312 45.367188 C 52.113281 44.0625 53.429688 41.710938 53.417969 39.183594 L 53.417969 17.816406 C 53.4375 15.292969 52.132812 12.945312 49.976562 11.632812 Z M 36.035156 44.996094 L 36.035156 46.53125 C 36.03125 46.722656 35.933594 46.898438 35.769531 47 L 34.859375 47.523438 C 34.714844 47.597656 34.59375 47.523438 34.59375 47.324219 L 34.59375 45.8125 C 33.953125 46.128906 33.214844 46.203125 32.523438 46.015625 C 32.410156 45.941406 32.367188 45.796875 32.421875 45.660156 L 32.75 44.269531 C 32.777344 44.152344 32.835938 44.046875 32.929688 43.964844 C 32.957031 43.941406 32.984375 43.917969 33.019531 43.902344 C 33.066406 43.886719 33.117188 43.886719 33.160156 43.902344 C 33.796875 44.074219 34.476562 43.988281 35.046875 43.664062 C 35.878906 43.261719 36.417969 42.433594 36.453125 41.511719 C 36.453125 40.730469 36.027344 40.40625 34.996094 40.398438 C 33.6875 40.398438 32.5 40.148438 32.445312 38.214844 C 32.476562 36.546875 33.253906 34.980469 34.558594 33.941406 L 34.558594 32.386719 C 34.558594 32.210938 34.660156 32.03125 34.824219 31.910156 L 35.703125 31.351562 C 35.847656 31.277344 35.96875 31.351562 35.96875 31.558594 L 35.96875 33.113281 C 36.507812 32.867188 37.109375 32.792969 37.691406 32.90625 C 37.8125 32.976562 37.863281 33.132812 37.804688 33.261719 L 37.496094 34.636719 C 37.46875 34.746094 37.414062 34.839844 37.339844 34.914062 C 37.3125 34.941406 37.285156 34.964844 37.25 34.984375 C 37.214844 35.007812 37.160156 35 37.117188 34.984375 C 36.550781 34.863281 35.957031 34.957031 35.460938 35.257812 C 34.71875 35.578125 34.226562 36.296875 34.203125 37.101562 C 34.203125 37.808594 34.574219 38.019531 35.816406 38.046875 C 37.484375 38.046875 38.199219 38.800781 38.21875 40.472656 C 38.1875 42.222656 37.386719 43.871094 36.03125 44.980469 Z M 45.460938 42.414062 C 45.484375 42.546875 45.429688 42.683594 45.324219 42.761719 L 40.789062 45.523438 C 40.746094 45.5625 40.683594 45.566406 40.636719 45.539062 C 40.585938 45.507812 40.5625 45.449219 40.578125 45.394531 L 40.578125 44.21875 C 40.582031 44.089844 40.664062 43.976562 40.785156 43.929688 L 45.265625 41.246094 C 45.308594 41.210938 45.371094 41.207031 45.421875 41.234375 C 45.46875 41.261719 45.492188 41.324219 45.480469 41.375 L 45.480469 42.414062 Z M 48.605469 16.136719 L 31.574219 26.65625 C 29.449219 27.914062 27.886719 29.289062 27.886719 31.847656 L 27.886719 52.828125 C 27.886719 54.359375 28.515625 55.320312 29.457031 55.644531 C 29.148438 55.699219 28.832031 55.730469 28.515625 55.738281 C 27.515625 55.734375 26.53125 55.464844 25.671875 54.953125 L 7.671875 44.269531 C 5.878906 43.195312 4.8125 41.261719 4.820312 39.1875 L 4.820312 17.816406 C 4.808594 15.734375 5.878906 13.804688 7.671875 12.726562 L 25.671875 2.042969 C 27.417969 1.007812 29.585938 1.007812 31.332031 2.042969 L 49.328125 12.726562 C 50.8125 13.621094 51.824219 15.128906 52.09375 16.820312 C 51.511719 15.550781 50.164062 15.21875 48.601562 16.117188 L 48.605469 16.117188 Z M 48.605469 16.136719 "/>
</g>
</svg>
