<?xml version="1.0" encoding="UTF-8"?>
<svg xmlns="http://www.w3.org/2000/svg" xmlns:xlink="http://www.w3.org/1999/xlink" width="53px" height="53px" viewBox="0 0 53 53" version="1.1">
<g id="surface1">
<path style=" stroke:none;fill-rule:nonzero;fill:rgb(13.72549%,12.156863%,12.54902%);fill-opacity:1;" d="M 27.039062 22.9375 C 28.199219 24.015625 28.777344 25.464844 28.777344 27.328125 C 28.777344 29.191406 28.199219 30.683594 27.078125 31.800781 C 25.960938 32.875 24.222656 33.457031 21.945312 33.457031 L 17.886719 33.457031 L 17.886719 21.40625 L 22.070312 21.40625 C 24.222656 21.40625 25.878906 21.902344 27.039062 22.9375 Z M 25.050781 30.101562 C 25.714844 29.480469 26.042969 28.570312 26.042969 27.371094 C 26.042969 26.167969 25.714844 25.257812 25.050781 24.59375 C 24.386719 23.972656 23.351562 23.601562 21.988281 23.601562 L 20.414062 23.601562 L 20.414062 31.054688 L 22.152344 31.054688 C 23.4375 31.054688 24.386719 30.722656 25.050781 30.101562 Z M 38.34375 33.457031 L 35.941406 33.457031 L 35.941406 32.296875 C 35.238281 33.125 34.449219 33.539062 33.457031 33.539062 C 32.460938 33.539062 31.632812 33.25 30.972656 32.667969 C 30.308594 32.089844 29.976562 31.34375 29.976562 30.390625 C 29.976562 29.441406 30.308594 28.734375 31.011719 28.28125 C 31.71875 27.824219 32.667969 27.578125 33.871094 27.578125 L 35.773438 27.578125 L 35.773438 27.492188 C 35.773438 26.5 35.277344 26.003906 34.203125 26.003906 C 33.746094 26.003906 33.289062 26.085938 32.792969 26.25 C 32.296875 26.417969 31.882812 26.664062 31.511719 26.914062 L 30.351562 25.214844 C 31.59375 24.304688 32.960938 23.890625 34.53125 23.890625 C 35.652344 23.890625 36.5625 24.179688 37.265625 24.761719 C 37.96875 25.339844 38.300781 26.210938 38.300781 27.453125 L 38.300781 33.457031 Z M 35.734375 29.894531 L 35.734375 29.523438 L 34.117188 29.523438 C 33.082031 29.523438 32.546875 29.8125 32.546875 30.433594 C 32.546875 30.765625 32.667969 31.011719 32.917969 31.179688 C 33.167969 31.34375 33.496094 31.425781 33.996094 31.425781 C 34.449219 31.425781 34.863281 31.304688 35.195312 31.011719 C 35.566406 30.722656 35.734375 30.351562 35.734375 29.894531 Z M 45.175781 26.417969 C 44.386719 26.417969 43.765625 26.664062 43.394531 27.246094 C 43.019531 27.785156 42.773438 28.527344 42.773438 29.441406 L 42.773438 33.496094 L 40.207031 33.496094 L 40.207031 24.179688 L 42.773438 24.179688 L 42.773438 25.382812 C 43.105469 25.007812 43.601562 24.679688 44.097656 24.429688 C 44.59375 24.179688 45.175781 24.015625 45.710938 24.015625 L 45.710938 26.457031 Z M 49.851562 26.042969 L 49.851562 30.144531 C 49.851562 30.515625 49.9375 30.765625 50.144531 30.972656 C 50.308594 31.179688 50.558594 31.261719 50.804688 31.261719 C 51.300781 31.261719 51.714844 31.054688 52.046875 30.597656 L 53 32.421875 C 52.214844 33.167969 51.34375 33.539062 50.472656 33.539062 C 49.5625 33.539062 48.816406 33.25 48.195312 32.667969 C 47.574219 32.089844 47.285156 31.261719 47.285156 30.269531 L 47.285156 21.40625 L 49.851562 21.40625 L 49.851562 24.015625 L 52.585938 24.015625 L 51.179688 26.085938 Z M 49.851562 26.042969 "/>
<path style=" stroke:none;fill-rule:nonzero;fill:rgb(0%,76.862745%,70.196078%);fill-opacity:1;" d="M 3.851562 23.3125 L 2.941406 22.402344 L 2.941406 29.191406 C 2.941406 29.316406 2.980469 29.480469 3.023438 29.648438 L 10.1875 32.171875 L 11.964844 31.386719 Z M 3.851562 23.3125 "/>
<path style=" stroke:none;fill-rule:nonzero;fill:rgb(13.333333%,82.745098%,77.254902%);fill-opacity:1;" d="M 3.023438 29.6875 Z M 11.964844 31.425781 L 10.1875 32.214844 L 3.023438 29.6875 C 3.148438 30.226562 3.4375 30.804688 3.769531 31.136719 L 6.085938 33.457031 L 11.261719 33.457031 Z M 11.964844 31.425781 "/>
<path style=" stroke:none;fill-rule:nonzero;fill:rgb(0%,45.882353%,78.823529%);fill-opacity:1;" d="M 0.207031 26.582031 C -0.0429688 26.832031 0.0820312 27.328125 0.457031 27.742188 L 2.070312 29.355469 L 3.0625 29.730469 C 3.023438 29.5625 2.980469 29.398438 2.980469 29.273438 L 2.980469 28.984375 L 2.941406 22.402344 "/>
<path style=" stroke:none;fill-rule:nonzero;fill:rgb(0%,45.882353%,78.823529%);fill-opacity:1;" d="M 11.964844 31.425781 L 12.753906 29.648438 L 10.226562 22.484375 C 10.0625 22.441406 9.894531 22.402344 9.773438 22.402344 L 2.941406 22.402344 "/>
<path style=" stroke:none;fill-rule:nonzero;fill:rgb(0%,65.882353%,88.235294%);fill-opacity:1;" d="M 10.226562 22.484375 Z M 11.964844 31.425781 L 13.914062 30.804688 L 13.914062 25.464844 L 11.675781 23.230469 C 11.34375 22.898438 10.765625 22.609375 10.226562 22.484375 L 12.753906 29.648438 "/>
<path style=" stroke:none;fill-rule:nonzero;fill:rgb(0%,76.862745%,70.196078%);fill-opacity:1;" d="M 9.894531 21.488281 L 8.238281 19.875 C 7.867188 19.503906 7.371094 19.378906 7.121094 19.625 L 2.941406 22.402344 L 9.773438 22.402344 C 9.894531 22.402344 10.0625 22.441406 10.226562 22.484375 Z M 9.894531 21.488281 "/>
</g>
</svg>
