<?xml version="1.0" encoding="UTF-8" standalone="no"?>
<svg
   xmlns:dc="http://purl.org/dc/elements/1.1/"
   xmlns:cc="http://creativecommons.org/ns#"
   xmlns:rdf="http://www.w3.org/1999/02/22-rdf-syntax-ns#"
   xmlns:svg="http://www.w3.org/2000/svg"
   xmlns="http://www.w3.org/2000/svg"
   xmlns:sodipodi="http://sodipodi.sourceforge.net/DTD/sodipodi-0.dtd"
   xmlns:inkscape="http://www.inkscape.org/namespaces/inkscape"
   width="15mm"
   height="15mm"
   viewBox="0 0 15 15"
   version="1.1"
   id="svg1741"
   inkscape:version="1.0.2-2 (e86c870879, 2021-01-15)"
   sodipodi:docname="docker.svg">
  <defs
     id="defs1735" />
  <sodipodi:namedview
     id="base"
     pagecolor="#ffffff"
     bordercolor="#666666"
     borderopacity="1.0"
     inkscape:pageopacity="0.0"
     inkscape:pageshadow="2"
     inkscape:zoom="0.35"
     inkscape:cx="-351.65353"
     inkscape:cy="-454.51069"
     inkscape:document-units="mm"
     inkscape:current-layer="layer1"
     inkscape:document-rotation="0"
     showgrid="false"
     inkscape:window-width="1298"
     inkscape:window-height="1040"
     inkscape:window-x="234"
     inkscape:window-y="0"
     inkscape:window-maximized="0" />
  <metadata
     id="metadata1738">
    <rdf:RDF>
      <cc:Work
         rdf:about="">
        <dc:format>image/svg+xml</dc:format>
        <dc:type
           rdf:resource="http://purl.org/dc/dcmitype/StillImage" />
        <dc:title></dc:title>
      </cc:Work>
    </rdf:RDF>
  </metadata>
  <g
     inkscape:label="Capa 1"
     inkscape:groupmode="layer"
     id="layer1"
     transform="translate(-198.875,-268.42262)">
    <g
       id="g1710"
       transform="matrix(0.48381999,0,0,0.48381999,123.875,256.914)">
      <rect
         style="fill:#2496ed;fill-opacity:1;stroke:none;stroke-width:0.264583;stroke-opacity:1"
         id="rect965-8-3-8-2"
         width="31.003265"
         height="31.003265"
         x="155.01633"
         y="23.786987"
         ry="0" />
      <text
         xml:space="preserve"
         style="font-style:normal;font-weight:normal;font-size:4.93889px;line-height:1.25;font-family:sans-serif;fill:#ffffff;fill-opacity:1;stroke:none;stroke-width:0.264583"
         x="162.80698"
         y="50.231182"
         id="text874-7-4-7-1-5"><tspan
           sodipodi:role="line"
           id="tspan872-5-8-8-1-9"
           x="162.80698"
           y="50.231182"
           style="font-style:normal;font-variant:normal;font-weight:normal;font-stretch:normal;font-size:4.93889px;font-family:'Segoe UI';-inkscape-font-specification:'Segoe UI';fill:#ffffff;stroke-width:0.264583">Docker</tspan></text>
      <path
         d="m 173.07093,34.601016 h 1.62215 a 0.14238809,0.14238809 0 0 0 0.1424,-0.141623 v -1.444549 a 0.14238809,0.14238809 0 0 0 -0.1424,-0.142393 h -1.62215 a 0.14162255,0.14162255 0 0 0 -0.14162,0.141623 v 1.445319 c 0,0.07811 0.0636,0.141623 0.14162,0.141623 m -2.26137,-4.156818 h 1.62139 a 0.14238809,0.14238809 0 0 0 0.14239,-0.142379 V 28.8565 a 0.14238809,0.14238809 0 0 0 -0.14239,-0.141623 h -1.62139 a 0.14162255,0.14162255 0 0 0 -0.14162,0.141623 v 1.445319 c 0,0.07811 0.0627,0.141623 0.14162,0.141623 m 0,2.079172 h 1.62139 a 0.14315361,0.14315361 0 0 0 0.14239,-0.142393 v -1.444549 a 0.14238809,0.14238809 0 0 0 -0.14239,-0.141623 h -1.62139 a 0.14162255,0.14162255 0 0 0 -0.14162,0.141623 v 1.444549 c 0,0.07811 0.0627,0.141623 0.14162,0.142393 m -2.24298,0 h 1.62291 a 0.14238809,0.14238809 0 0 0 0.14086,-0.142393 v -1.444549 a 0.14162255,0.14162255 0 0 0 -0.14163,-0.141623 h -1.62139 a 0.14162255,0.14162255 0 0 0 -0.14162,0.141623 v 1.444549 c 0,0.07811 0.0635,0.141623 0.14162,0.142393 m -2.26902,0 h 1.62215 a 0.14238809,0.14238809 0 0 0 0.14162,-0.142393 v -1.444549 a 0.14162255,0.14162255 0 0 0 -0.14162,-0.141623 h -1.62215 a 0.14238809,0.14238809 0 0 0 -0.14239,0.141623 v 1.444549 c 0,0.07811 0.0642,0.141623 0.14239,0.142393 m 4.51125,2.078402 h 1.62139 a 0.14238809,0.14238809 0 0 0 0.14239,-0.141623 v -1.444549 a 0.14238809,0.14238809 0 0 0 -0.14239,-0.142393 h -1.62139 a 0.14162255,0.14162255 0 0 0 -0.14162,0.141623 v 1.445319 c 0,0.07811 0.0627,0.141623 0.14162,0.141623 m -2.24298,0 h 1.62291 a 0.14162255,0.14162255 0 0 0 0.14086,-0.141623 v -1.444549 a 0.14162255,0.14162255 0 0 0 -0.14086,-0.142393 h -1.62291 a 0.14162255,0.14162255 0 0 0 -0.14087,0.141623 v 1.445319 c 0,0.07811 0.0635,0.141623 0.14162,0.141623 m -2.26902,0 h 1.62215 a 0.14162255,0.14162255 0 0 0 0.14162,-0.141623 v -1.444549 a 0.14162255,0.14162255 0 0 0 -0.14085,-0.142393 h -1.62292 a 0.14238809,0.14238809 0 0 0 -0.14239,0.142393 v 1.444549 c 0,0.07811 0.0642,0.141623 0.14239,0.141623 m -2.23534,0 h 1.62292 a 0.14162255,0.14162255 0 0 0 0.14085,-0.141623 v -1.444549 a 0.14162255,0.14162255 0 0 0 -0.14085,-0.142393 h -1.62292 a 0.14162255,0.14162255 0 0 0 -0.14085,0.141623 v 1.445319 c 0,0.07811 0.0627,0.141623 0.14162,0.141623 m 16.49405,-0.909442 c -0.0498,-0.03906 -0.51443,-0.390419 -1.49584,-0.390419 -0.25875,7.56e-4 -0.5175,0.02296 -0.77318,0.06663 -0.18985,-1.301386 -1.26542,-1.936779 -1.31365,-1.964342 l -0.26334,-0.152332 -0.17301,0.250322 c -0.21741,0.335306 -0.3751,0.705819 -0.4685,1.094698 -0.17607,0.742565 -0.0689,1.440727 0.3085,2.037078 -0.45548,0.254157 -1.18656,0.316157 -1.33508,0.321518 h -12.10221 a 0.57491103,0.57491103 0 0 0 -0.57415,0.572609 8.708639,8.708639 0 0 0 0.52975,3.109575 c 0.41721,1.093172 1.03729,1.898507 1.84492,2.391507 0.90332,0.553473 2.37313,0.870414 4.03815,0.870414 0.75252,0.0028 1.50273,-0.06579 2.243,-0.203637 a 9.3761789,9.3761789 0 0 0 2.92661,-1.063313 c 0.75021,-0.434052 1.42387,-0.986 1.99802,-1.635167 0.95844,-1.085515 1.52952,-2.294287 1.95439,-3.368323 h 0.16919 c 1.05029,0 1.69564,-0.420278 2.05161,-0.77241 0.23654,-0.224313 0.42105,-0.497606 0.54122,-0.800744 l 0.075,-0.220476 z"
         id="path1695"
         style="fill:#ffffff;stroke-width:0.765527" />
    </g>
  </g>
</svg>
