<?xml version="1.0" encoding="UTF-8"?>
<svg xmlns="http://www.w3.org/2000/svg" xmlns:xlink="http://www.w3.org/1999/xlink" width="57px" height="57px" viewBox="0 0 57 57" version="1.1">
<g id="surface1">
<path style=" stroke:none;fill-rule:nonzero;fill:rgb(100%,62.745098%,0%);fill-opacity:1;" d="M 34.949219 20.585938 L 29.242188 25.894531 L 23.949219 15.21875 L 26.6875 9.074219 C 27.402344 7.828125 28.511719 7.84375 29.207031 9.074219 Z M 34.949219 20.585938 "/>
<path style=" stroke:none;fill-rule:nonzero;fill:rgb(96.078431%,49.803922%,9.019608%);fill-opacity:1;" d="M 23.949219 15.21875 L 29.242188 25.894531 L 7.921875 45.730469 Z M 23.949219 15.21875 "/>
<path style=" stroke:none;fill-rule:nonzero;fill:rgb(100%,79.215686%,15.686275%);fill-opacity:1;" d="M 41.1875 12.472656 C 42.207031 11.496094 43.261719 11.828125 43.53125 13.21875 L 49.082031 45.464844 L 30.683594 56.511719 C 30.042969 56.867188 28.332031 57.019531 28.332031 57.019531 C 28.332031 57.019531 26.777344 56.835938 26.183594 56.484375 L 7.921875 45.730469 Z M 41.1875 12.472656 "/>
<path style=" stroke:none;fill-rule:nonzero;fill:rgb(100%,62.745098%,0%);fill-opacity:1;" d="M 23.949219 15.21875 L 7.921875 45.730469 L 15.058594 1.136719 C 15.324219 -0.253906 16.113281 -0.386719 16.820312 0.839844 Z M 23.949219 15.21875 "/>
</g>
</svg>
