<?xml version="1.0" encoding="UTF-8" standalone="no"?>
<svg
   xmlns:dc="http://purl.org/dc/elements/1.1/"
   xmlns:cc="http://creativecommons.org/ns#"
   xmlns:rdf="http://www.w3.org/1999/02/22-rdf-syntax-ns#"
   xmlns:svg="http://www.w3.org/2000/svg"
   xmlns="http://www.w3.org/2000/svg"
   xmlns:sodipodi="http://sodipodi.sourceforge.net/DTD/sodipodi-0.dtd"
   xmlns:inkscape="http://www.inkscape.org/namespaces/inkscape"
   width="15mm"
   height="15mm"
   viewBox="0 0 15 15"
   version="1.1"
   id="svg1160"
   inkscape:version="1.0.2-2 (e86c870879, 2021-01-15)"
   sodipodi:docname="flask.svg">
  <defs
     id="defs1154" />
  <sodipodi:namedview
     id="base"
     pagecolor="#ffffff"
     bordercolor="#666666"
     borderopacity="1.0"
     inkscape:pageopacity="0.0"
     inkscape:pageshadow="2"
     inkscape:zoom="1.979899"
     inkscape:cx="91.129041"
     inkscape:cy="123.02595"
     inkscape:document-units="mm"
     inkscape:current-layer="layer1"
     inkscape:document-rotation="0"
     showgrid="false"
     fit-margin-top="0"
     fit-margin-left="0"
     fit-margin-right="0"
     fit-margin-bottom="0"
     inkscape:window-width="1920"
     inkscape:window-height="1017"
     inkscape:window-x="-8"
     inkscape:window-y="-8"
     inkscape:window-maximized="1" />
  <metadata
     id="metadata1157">
    <rdf:RDF>
      <cc:Work
         rdf:about="">
        <dc:format>image/svg+xml</dc:format>
        <dc:type
           rdf:resource="http://purl.org/dc/dcmitype/StillImage" />
        <dc:title></dc:title>
      </cc:Work>
    </rdf:RDF>
  </metadata>
  <g
     inkscape:label="Capa 1"
     inkscape:groupmode="layer"
     id="layer1"
     transform="translate(-43.648297,-32.305079)">
    <g
       id="g1125"
       transform="matrix(0.48382,0,0,0.48382,8.4758839,21.830942)">
      <rect
         style="fill:#ffffff;fill-opacity:1;stroke:none;stroke-width:0.264583;stroke-opacity:1"
         id="rect965-8"
         width="31.003265"
         height="31.003265"
         x="72.697311"
         y="21.64883"
         ry="0"
         rx="0" />
      <path
         d="m 85.523566,37.465793 c -0.506474,-0.424199 -1.047306,-0.830722 -1.416355,-1.402213 -0.776889,-1.008652 -1.375349,-2.176377 -1.784295,-3.403608 -0.247143,-0.798321 -0.332477,-1.654377 -0.650548,-2.421471 -0.333585,-0.556171 0.05707,-1.16537 0.6306,-1.343297 0.254898,-0.05126 0.704852,-0.307544 0.162353,-0.124321 -0.486527,0.379423 -0.533627,-0.344661 -0.03491,-0.390027 0.34079,-0.04832 0.465468,-0.344661 0.3491,-0.610965 -0.365725,-0.253341 0.886608,-0.532017 0.256562,-0.909672 -0.655535,-0.753542 0.918192,-0.897888 0.530303,-0.0436 -0.09255,0.656921 1.099391,-0.12078 0.822881,0.638067 0.280944,0.364693 1.052845,0.08248 1.033451,0.594469 0.410054,0.02946 0.55025,0.395919 0.934816,0.424199 0.398973,0.191479 1.120448,0.341715 1.255657,0.818938 -0.395094,0.333469 -1.309961,-0.686377 -1.353737,0.234489 0.119126,1.360971 0.08865,2.762596 0.556344,4.058172 0.221653,0.784768 0.759157,1.402213 1.243466,2.013765 0.463805,0.598593 1.092189,1.019258 1.732762,1.374523 0.561888,0.281622 1.16755,0.468387 1.780418,0.585631 0.248249,-0.202079 0.68712,-0.95268 1.073902,-0.636299 0.01822,0.355858 -0.769132,0.744117 -0.03713,0.704643 0.430005,-0.137859 0.728125,0.353499 1.082214,-0.08956 0.325828,0.41065 1.3554,-0.262767 1.123221,0.577383 -0.313639,0.21446 -0.771348,0.08484 -1.08554,0.380602 -0.518112,-0.275142 -0.930937,0.246271 -1.504461,0.180279 a 11.005006,11.700825 0 0 1 -1.930586,0.170859 C 89.234558,38.758399 88.152344,38.7207 87.144383,38.328315 86.576956,38.153335 86.02338,37.80926 85.524109,37.465776 Z m 0.894918,0.412415 c 0.554129,0.25452 1.096068,0.523179 1.703393,0.604485 0.964185,0.1414 1.959954,0.361747 2.927465,0.161441 -0.437762,-0.210341 -0.89104,0.08248 -1.327139,-0.15024 -0.523099,0.119599 -1.084432,-0.03064 -1.616396,-0.10428 -0.605109,-0.286335 -1.257873,-0.483117 -1.82364,-0.855468 -0.707621,-0.274551 0.365726,0.352321 0.556902,0.403577 0.442194,0.266894 -0.485972,-0.13728 -0.617301,-0.248037 -0.370159,-0.22094 -0.417813,-0.17498 -0.03657,0.0495 0.07703,0.04714 0.15295,0.0978 0.232734,0.13846 z m -1.055063,-0.793016 c 0.537506,0.211521 -0.0023,-0.401811 -0.249357,-0.366461 -0.108612,-0.200899 -0.41615,-0.328166 -0.199486,-0.435981 -0.390108,0.14376 -0.408393,-0.547925 -0.592918,-0.449533 -0.412272,-0.138461 -0.160699,-0.630409 -0.651656,-0.930882 -0.04488,-0.31815 -0.488743,-0.593879 -0.630599,-1.07346 -0.06262,-0.245094 -0.501487,-0.950324 -0.231627,-0.294583 0.229411,0.631586 0.633371,1.172439 0.969727,1.712704 0.26044,0.514341 0.56909,1.05225 1.044532,1.372755 0.160699,0.163779 0.314747,0.414183 0.541384,0.465441 z m -1.547682,-1.80697 c 0.01822,-0.08602 0.09808,0.186759 0,0 z m 2.191028,2.060312 c 0.119147,-0.05656 -0.171778,-0.0707 0,0 z m 0.29147,0.113119 c -0.02993,-0.156141 -0.132991,0.0872 0,0 z m 0.365726,0.16202 c 0.172888,-0.176739 -0.268198,-0.11076 0,0 z m 0.624504,0.371175 c 0.105849,-0.166139 -0.338019,-0.06304 0,0 z M 86.08767,37.09344 c 0.26986,-0.185579 -0.349103,-0.0024 0,0 z m 0.273739,0.14494 c -0.0077,-0.0978 -0.09753,0.04418 0,0 z m 1.368699,0.908492 c 0.219989,0.147301 1.28558,0.324042 0.617854,0.06068 -0.110833,0.02474 -1.235709,-0.33818 -0.618409,-0.06068 z m -2.172742,-1.79931 c -0.02216,-0.09838 -0.341343,-0.109 0,0 z m 0.637249,0.394741 c 0.166229,-0.123719 -0.344113,-0.09426 0,0 z m 0.53529,0.349376 c 0.238276,-0.09544 -0.385674,-0.09604 0,0 z m -1.431871,-1.044592 c 0.258224,0.210919 1.041763,0.0271 0.395649,-0.125501 -0.293688,-0.16674 -0.95698,-0.280441 -0.505366,0.10016 z m 1.795378,1.165369 c 0.106959,-0.194419 -0.451614,-0.111939 0,0 z m -0.545263,-0.461317 c 0.631708,0.1903 -0.530854,-0.424199 -0.155714,-0.06952 l 0.08312,0.04006 0.07205,0.02946 z m 1.093297,0.671649 c 0.59846,0.006 -0.540274,-0.0866 0,0 z M 85.06807,35.67886 c -0.02327,-0.117841 -0.1474,0.01069 0,0 z m 3.585218,2.347822 c 0.0155,-0.213858 -0.195612,0.159081 0,0 z M 86.08767,36.344026 c -0.03546,-0.112541 -0.186188,-0.0047 0,0 z m -0.963077,-0.738812 c 0.34356,-0.02182 -0.469903,-0.16084 0,0 z m -1.141507,-0.784769 c -0.04266,-0.174979 -0.373483,-0.314615 0,0 z m 2.996176,2.023784 c -0.06317,-0.0766 -0.02993,0.01648 0,0 z m 1.8652,1.216625 c -0.0054,-0.116059 -0.101408,0.04418 0,0 z m -2.030329,-1.398089 c 0.03326,-0.15024 -0.292582,-0.04536 0,0 z m -1.388648,-0.937952 c 0.254899,-0.02946 -0.410056,-0.183218 0,0 z m 2.350062,1.553631 c 0.397863,-0.16792 -0.387891,-0.08248 0,0 z m -1.222409,-0.881982 c 0.458264,0.06246 -0.545818,-0.331699 -0.100298,-0.03536 z m 1.593674,1.041646 c 0.428342,-0.272196 0.287041,0.637476 0.726464,0.0766 0.433329,-0.335826 -0.374038,0.416539 0.160699,0.06068 0.385674,-0.275142 0.956428,0.12962 1.316611,0.262177 0.259333,-0.01358 0.511463,0.238612 0.777445,0.08542 0.51146,-0.147301 -1.000759,-0.218 -0.604001,-0.477225 -0.46824,0.144339 -0.814571,-0.17322 -1.044535,-0.491953 -0.525314,-0.12962 -1.132639,-0.414183 -1.394742,-0.908492 -0.106393,-0.185579 0.155149,0.02592 -0.09198,-0.276909 -0.315853,-0.299296 -0.474334,-0.639243 -0.68712,-1.002758 -0.253238,-0.14376 -0.282607,-0.567367 -0.30865,-0.01425 0.0023,-0.349376 -0.306434,-0.584453 -0.38124,-0.486651 -0.0011,-0.336414 0.329707,-0.167921 0.09753,-0.416542 -0.04987,-0.348785 -0.213894,-0.712888 -0.263211,-1.105863 -0.07647,-0.189699 -0.0111,-0.595645 -0.262104,-0.166139 -0.09144,0.453657 -0.03047,-0.557939 0.111943,-0.223884 0.186753,-0.341715 -0.06649,-0.300473 -0.07757,-0.253341 0.121911,-0.287512 0.07757,-0.695215 -0.03158,-0.539675 0.06484,-0.304597 0.102518,-1.120592 -0.09697,-0.975658 0.120801,-0.318149 0.22941,-1.457005 -0.295904,-1.022792 -0.212786,0.0029 -0.580729,0.08248 -0.755278,0.1744 0.546371,0.319918 -0.05542,0.115481 -0.277066,0.0648 -0.02882,0.295762 -0.249359,0.167921 -0.524206,0.17086 0.439425,0.05774 -0.213894,0.477225 -0.466024,0.314616 -0.326936,0.166139 0.282607,0.581506 0.0067,0.709944 0.03326,0.193239 -0.501485,-0.0707 -0.459927,0.377065 -0.317505,-0.141978 -0.04321,0.530249 0.115818,0.302832 0.540276,0.155539 0.380132,0.510216 0.393431,0.84663 -0.08754,0.1962 -0.434437,-0.461315 -0.07757,-0.430679 -0.280944,-0.487241 -0.310865,-0.176761 -0.545263,0.05008 -0.05542,0.01648 0.597905,0.322275 0.188408,0.473101 0.360183,0.05892 0.370159,0.394741 0.443304,0.606841 0.216109,0.239789 0.171778,-0.265126 0.431666,0.02356 -0.16403,-0.256876 -0.868321,-0.723495 -0.301446,-0.573847 -0.0027,-0.259234 -0.102518,-0.467209 0.07148,-0.461905 0.171778,-0.331111 -0.180093,0.817172 0.207801,0.395919 0.106958,-0.05008 0.132991,-0.331701 0.326936,0.02652 0.279836,0.293403 0.100843,0.505503 -0.294243,0.237433 0.07037,0.255108 0.52864,0.34584 0.442751,0.745295 0.09144,0.350553 0.21888,0.221519 0.33026,0.2015 0.08754,0.340537 0.136865,0.09014 0.141305,-0.07246 0.398973,0.09132 0.305879,0.341715 0.431113,0.518465 0.2754,0.13198 -0.394541,-0.89671 0.07869,-0.309902 0.497608,0.477226 0.186753,0.677541 -0.260441,0.600949 0.282607,-0.02416 0.374038,0.406525 0.727572,0.391205 0.322504,0.1632 0.540277,0.789483 -0.01487,0.528483 -0.192847,-0.184398 -0.875523,-0.412417 -0.317515,-0.06128 0.514786,0.253341 0.922624,0.405345 1.419125,0.722906 0.354642,0.269838 0.508691,0.578561 0.64279,0.639833 -0.298122,0.15142 -0.899352,-0.121359 -0.452724,-0.205041 -0.278726,-0.05362 -0.59181,-0.203259 -0.325273,0.164959 0.227193,0.202079 0.803488,0.180279 0.90711,0.203259 -0.08811,0.205041 -0.238276,0.221519 0.0034,0.237434 -0.269308,0.153179 0.08643,0.176738 0.111377,0.263945 z M 87.59601,35.783731 c -0.16403,-0.182639 -0.206691,-0.524359 -0.02936,-0.226829 0.09087,0.03888 0.290917,0.557939 0.02936,0.226829 z m 1.794268,1.211914 c 0.102518,-0.0065 0.0034,0.08248 0,0 z m -2.053601,-1.659091 c -0.0057,-0.275729 0.05929,0.2121 0,0 z m -0.178438,-0.255109 c -0.206126,-0.424199 0.26044,0.120201 0,0 z m -2.161104,-1.586033 c 0.121346,-0.03536 0.05983,0.220339 0,0 z m 1.720016,0.990976 c 0.07424,-0.296939 0.08754,0.249805 0,0 z m -1.21465,-0.898476 c -0.08589,-0.163779 0.178983,0.153179 0,0 z m 1.042871,0.355855 c -0.195046,-0.465441 0.138541,-0.254519 0.04323,0.0766 z m -1.798704,-1.275543 c -0.08754,-0.153179 -0.231626,-0.600949 -0.185078,-0.737634 0.04212,0.222703 0.44552,0.958572 0.197832,0.305187 -0.273739,-0.547925 0.326938,0.177919 0.389,0.314613 0.02771,0.135499 -0.169014,-0.03712 -0.03546,0.281622 -0.243818,-0.363516 -0.14407,0.20032 -0.36628,-0.163779 z m -0.555783,-0.407118 c 0.02216,-0.355267 0.127441,0.243326 0,0 z m 0.249357,0.09132 c 0.119692,-0.268071 0.202816,0.373531 0,0 z m -0.600675,-0.494899 c -0.207236,-0.218 -0.356858,-0.420075 0.0094,-0.135499 0.141306,0.0058 -0.313637,-0.458371 0.03326,-0.1473 0.365726,0.0707 0.181203,0.637476 -0.04266,0.282799 z m 0.315854,-0.0089 c 0.120237,-0.126658 0.06373,0.1249 0,0 z m 0.193937,0.06658 c -0.181748,-0.363515 0.221651,0.152 0,0 z m -0.386229,-0.39297 c -0.601783,-0.569133 0.756386,0.298119 0.09808,0.10606 z m 1.723341,1.065211 c -0.26044,-0.166139 -0.06815,-1.168903 0.02052,-0.483115 0.253238,-0.0872 -0.01382,0.3535 0.174543,0.349964 -0.02936,0.278675 -0.114142,0.378833 -0.193937,0.13316 z m 0.637249,0.400634 c 0.0266,-0.302244 0.05485,0.206198 0,0 z m -0.110833,-0.116661 c 0.02993,-0.12962 0.0038,0.151999 0,0 z m -2.131179,-1.535955 c -0.386229,-0.567364 1.123219,0.573259 0.247696,0.143761 -0.09144,-0.02534 -0.201707,-0.03536 -0.247696,-0.143761 z m 1.227951,0.692271 c -0.03657,-0.477225 0.08145,0.07894 0,0 z m 0.932044,0.635709 c 0.07205,-0.272194 0.0057,0.1797 0,0 z m -2.101257,-1.544791 c 0.229963,-0.05184 0.951993,0.429501 0.288146,0.137859 -0.07315,-0.0872 -0.230516,-0.04714 -0.288146,-0.137859 z m 1.9727,1.045768 c 0.02438,-0.489007 0.137431,-0.291638 0.0011,0.06952 z M 84.31167,30.948975 c 0.09364,-0.14612 -0.249357,-0.659866 0.04932,-0.18442 0.128551,0.109 0.372375,0.182639 0.156825,0.228007 0.338019,0.317559 -0.08312,0.08602 -0.206126,-0.0436 z m 1.703948,1.062854 c 0.06484,-0.556173 0.05707,0.32581 0,0 z m -1.899556,-1.576606 c 0.07148,-0.0324 0.03768,0.10134 0,0 z m 0.444412,0.281621 c 0.114142,-0.255697 0.21057,0.284567 0,0 z m 1.253994,0.741758 c -0.0011,-0.0984 0.02383,0.14258 0,0 z m -0.07259,-0.17086 c -0.173998,-0.45719 0.16181,0.24156 0,0 z M 85.63492,30.987269 c -0.02936,-0.18854 0.09973,0.238022 0,0 z m 0.173998,-0.300475 c -0.119692,-0.223882 0.15073,-0.985674 0.180638,-0.512573 -0.125787,0.368227 -0.03602,0.574435 0.05154,0.08012 0.162353,-0.388849 -0.03491,0.767682 -0.232735,0.433035 z m 0.178439,-1.132966 c 0.05209,-0.06776 0.0111,0.0819 0,0 z m -0.298675,6.252813 c -0.07094,-0.0654 0.0088,0.04124 0,0 z m 0.615082,0.329933 c 0.34079,0.09426 0.339127,-0.05596 0.03047,-0.10016 -0.166228,-0.164959 -0.690445,-0.338771 -0.221651,-0.02071 0.03158,0.08366 0.130226,0.0819 0.190627,0.121359 z m -1.214097,-0.856646 c 0.188408,0.14906 0.709286,0.423609 0.268198,0.05656 0.149055,-0.18382 -0.28482,-0.281622 -0.14074,-0.404167 -0.365725,-0.238024 -0.288146,-0.216821 -0.03215,-0.209739 -0.439978,-0.208559 0.06317,-0.193239 0.03879,-0.300476 -0.169014,-0.03536 -0.842275,-0.318149 -0.44552,0.02356 -0.402296,-0.218 -0.09586,0.0813 -0.217217,0.04948 -0.411719,-0.119021 0.365725,0.332879 -0.06538,0.22094 0.235505,0.198561 0.635031,0.509039 0.09975,0.21034 -0.07093,0.10782 0.382348,0.271016 0.494283,0.353502 z m 0.642791,0.392973 c 0.781321,0.267482 -0.382903,-0.327575 0,0 z m 3.291527,2.119818 c 0.0111,-0.164959 -0.106958,0.141399 0,0 z m 0.338572,0.15142 c 0.180093,-0.185579 0.0071,0.296349 0.29923,-0.04536 0.0027,-0.244503 -0.0094,-0.388849 -0.335801,-0.0919 -0.08976,0.05302 -0.129661,0.278675 0.03657,0.13728 z m -5.370618,-3.586251 c -0.05542,-0.231541 -0.387892,-0.229775 0,0 z m 0.361291,0.252164 c -0.134101,-0.236846 -0.478767,-0.21446 0,0 z m 2.055819,1.317963 c 0.200597,0.18854 0.920964,0.139039 0.243818,0.02356 -0.100843,-0.15908 -0.637804,-0.120201 -0.243818,-0.02356 z m 2.824396,1.85528 c 0.309205,-0.27573 -0.29923,0.122539 0,0 z m 0.642791,0.468977 c 0.0017,-0.08838 -0.132991,0.03888 0,0 z m 5.55e-4,-0.123719 c 0.341895,-0.385315 -0.33137,0.02298 0,0 z M 83.10367,33.567232 c -0.291473,-0.441872 -0.181203,-0.641012 -0.4627,-1.001581 -0.0532,-0.276908 -0.482091,-0.90319 -0.221651,-0.2392 0.238276,0.388259 0.309205,0.989208 0.684351,1.240781 z m 6.666173,4.438773 c 0.628936,-0.432447 -0.258225,-0.18854 0,0 z m 0.479875,0.20032 c 0.315855,-0.287514 -0.199486,-0.0601 0,0 z m -6.364727,-4.337442 c 0.09033,-0.14258 -0.232734,-0.01826 0,0 z m 6.264431,4.200159 c 0.305325,-0.20916 -0.06983,-0.176738 -0.05542,0.01893 z m -4.139346,-2.774968 c -0.0111,-0.141399 -0.161244,0.0118 0,0 z m 0.254899,0.157299 c -0.08034,-0.174979 -0.124132,0.02768 0,0 z m 4.374296,2.75965 c 0.390661,-0.300475 -0.237166,-0.05774 -0.08201,0.05656 z m -0.14962,-0.0766 c 0.31807,-0.283977 -0.336356,0.125501 0,0 z m 0.764698,0.540853 c 0.213894,-0.151999 -0.259885,-0.0489 0,0 z m -7.172647,-4.909513 c 0.286486,0.06834 1.144831,0.750596 0.638357,0.04714 -0.259332,-0.0813 -0.103628,-0.755898 -0.368496,-0.636298 0.177328,0.315203 0.14629,0.449533 -0.227193,0.250985 -0.468239,-0.243325 -0.262658,0.120201 -0.171778,0.220339 -0.124132,0.03064 0.165684,0.11548 0.129117,0.11784 z m -1.305527,-1.095848 c 0.05098,-0.225652 -0.472673,-1.241371 -0.247142,-0.509039 0.0809,0.15318 0.07205,0.444231 0.247142,0.509039 z m 2.396054,1.570715 c -0.147401,-0.13138 -0.0071,-0.01893 0,0 z m 0.363509,0.08956 c 0,-0.238611 -0.401744,-0.09662 0,0 z m 3.148008,2.11098 c -0.05983,-0.163779 -0.237168,-0.0036 0,0 z m 0.151275,0.117239 c -0.02216,-0.09132 -0.087,0.01759 0,0 z m 1.247897,0.836614 c 0.119692,-0.09426 -0.14962,-0.0118 0,0 z m -6.655089,-4.548356 c 0.343558,-0.1414 -0.367944,-0.10016 0,0 z m 4.978295,3.335855 c -0.0038,-0.236256 -0.21888,0.05892 0,0 z m -5.114612,-3.67109 c 0.221098,-0.07954 -0.203361,-0.05302 0,0 z m 0.640574,0.329931 c -0.0038,-0.07836 -0.06761,0.02946 0,0 z m 7.80768,5.090389 c 0.283713,-0.06128 0.929829,0.153179 1.034004,-0.08012 -0.343558,-0.0089 -1.191377,-0.258054 -1.231274,0.05892 l 0.07535,0.01358 z m -7.604314,-5.036185 c 0.005,-0.23979 -0.175653,-0.0089 0,0 z M 82.45256,31.653605 c -0.07646,-0.456603 -0.290917,-0.06952 0,0 z m 0.401189,0.107219 c 0.005,-0.1473 -0.367386,-0.13198 0,0 z m 0.229411,0.1196 c -0.0665,-0.05716 -0.05209,0.07188 0,0 z m 1.443505,0.983906 c 0.06761,-0.06598 -0.160699,-0.0489 0,0 z m -1.59589,-1.253744 c -0.03879,-0.344661 -0.465468,-0.05184 0,0 z m -0.823436,-0.567954 c -0.0111,-0.15908 -0.07979,0.0601 0,0 z m 0.121912,-0.09838 c -0.01948,-0.18854 -0.105283,0.02356 0,0 z m 0.676038,0.429499 c 0.287039,-0.1196 -0.520883,-0.247449 -0.05764,-0.02356 z m 9.051146,5.944091 c 0.182857,-0.178519 -0.232734,-0.05538 0,0 z m 1.09385,0.602715 c 0.07315,-0.230951 -0.185078,0.02946 0,0 z M 82.975108,30.996686 c 0.03047,-0.223884 -0.227192,0.04418 0,0 z m -0.961967,-0.684611 c -0.05154,-0.315203 -0.04434,-0.86843 0.449952,-0.681074 -0.659968,0.139039 0.456603,0.871964 0.315855,0.293403 0.277063,0.01425 0.543045,-0.1744 0.396755,0.11194 0.546926,-0.0648 0.925395,-0.567955 1.454035,-0.497845 0.411165,-0.05774 0.861116,-0.10134 1.30442,-0.277496 0.364618,-0.02828 0.714828,-0.445409 0.515341,-0.69227 -0.4965,-0.04478 -1.016828,0.02115 -1.566523,0.13728 -0.608435,0.134319 -1.161455,0.390027 -1.775985,0.500201 -0.598459,0.08542 0.120237,0.235668 -0.05098,0.268659 -0.312529,0.11548 0.372375,0.193239 -0.04044,0.314616 -0.254901,-0.05184 -0.520883,-0.144941 -0.411719,-0.430091 -0.573522,0.07836 -1.07778,0.331699 -0.624503,0.952092 h 0.03326 z m 1.381997,-0.74824 c 0.134645,-0.526713 0.720369,0.433037 0.220545,0.06952 -0.05983,-0.04714 -0.157935,-0.08602 -0.220545,-0.0707 z m 0.02605,-0.255698 c 0.193936,-0.153179 0.103062,0.08602 0,0 z m 0.246586,0.0047 c 0.0178,-0.242148 0.564104,0.12844 0.09033,0.0872 z m 0.336911,-0.144339 c 0.123022,-0.15318 0.03546,0.135498 0,0 z m 0.08643,-0.06128 c 0.205036,-0.261589 1.1609,-0.16674 0.461035,-0.02534 -0.187298,-0.15024 -0.33137,0.08838 -0.461035,0.02534 z m 1.246789,-0.204439 c -0.03047,-0.715247 0.620071,0.254519 0,0 z m 0.354644,-0.0024 c 0.129117,-0.360569 0.50204,-0.144339 0.05986,-0.07246 0.0094,0.0383 -0.0134,0.18618 -0.05986,0.07246 z m -2.856535,1.911838 c 0.386226,-0.251574 -0.41061,-0.218001 0,0 z m 0.285375,0.08484 c 0.135756,-0.153179 -0.294243,-0.06246 0,0 z m -0.842267,-0.636373 c 0.221096,-0.1797 -0.260995,-0.06834 0,0 z m 11.416168,7.594344 c 0.0067,-0.209161 -0.168448,0.09426 0,0 z m -1.159792,-0.842509 c 0.03326,-0.240379 -0.149621,0.02182 0,0 z m 1.479526,0.923812 c 0.30865,0 0.93537,-0.101919 0.263211,-0.101919 -0.105283,0.01759 -0.61453,0.01403 -0.263766,0.101919 z M 83.372416,30.748513 c 0.249359,-0.01759 0.391216,-0.292813 -0.04821,-0.276908 -0.68158,-0.07482 0.600676,0.24745 -0.08754,0.15554 -0.09255,0.0648 0.130771,0.139641 0.135755,0.12196 z m 0.220545,0.11902 c -0.0266,-0.170859 -0.07757,0.09074 0,0 z m 0.260441,-0.74058 c 0.109157,-0.143159 -0.14962,-0.0383 0,0 z m -0.831194,-1.477627 c 0.446628,-0.16144 1.056724,-0.342305 1.267293,0.07954 -0.214448,-0.274551 -0.08643,-0.544389 0.116362,-0.143159 0.285931,0.405936 0.42945,-0.184398 0.24271,-0.321095 0.21223,0.280444 0.453832,0.412415 0.142415,0.01759 0.33802,-0.43245 -0.677701,0.05714 -0.908772,0.05184 -0.110833,0.05302 -1.147602,0.281031 -0.859455,0.315203 z m 0.261548,-0.532017 c 0.254899,-0.204439 0.879957,0.121359 0.478768,-0.203259 -0.03879,-0.03652 -0.878849,0.246272 -0.478768,0.203259 z m 0.927614,0.04066 c 0.298119,0.0076 -0.128007,-0.425379 0.226637,-0.229776 -0.05818,-0.202079 -0.41338,-0.239789 -0.587376,-0.320505 -0.09753,0.185 0.199487,0.552637 0.360184,0.550281 z m -0.764699,-0.895531 c 0.103063,-0.148459 -0.180658,0.07542 0,0 z m 0.379025,0.09662 c 0.479875,-0.06776 -0.121912,-0.219759 -0.09642,-0.0058 z M 83.118073,26.76989 c -0.33802,-0.468975 0.635031,0.07894 0.292025,-0.412415 -0.289255,-0.244503 -0.566875,0.27573 -0.292025,0.412415 z m 4.335506,2.483333 c 0.15515,-0.292225 -0.640019,-0.393563 -0.104172,-0.103099 0.04987,0.01759 0.03879,0.123719 0.104172,0.103099 z"
         id="path857"
         style="stroke-width:0.571378" />
      <text
         xml:space="preserve"
         style="font-style:normal;font-weight:normal;font-size:4.93889px;line-height:1.25;font-family:sans-serif;fill:#000000;fill-opacity:1;stroke:none;stroke-width:0.264583"
         x="82.639076"
         y="48.093029"
         id="text874-7-4"><tspan
           sodipodi:role="line"
           id="tspan872-5-8"
           x="82.639076"
           y="48.093029"
           style="font-style:normal;font-variant:normal;font-weight:normal;font-stretch:normal;font-size:4.93889px;font-family:'Segoe UI';-inkscape-font-specification:'Segoe UI';fill:#000000;stroke-width:0.264583">Flask</tspan></text>
    </g>
  </g>
</svg>
