<?xml version="1.0" encoding="UTF-8"?>
<svg xmlns="http://www.w3.org/2000/svg" xmlns:xlink="http://www.w3.org/1999/xlink" width="57px" height="57px" viewBox="0 0 57 57" version="1.1">
<g id="surface1">
<path style=" stroke:none;fill-rule:nonzero;fill:rgb(0%,60%,100%);fill-opacity:1;" d="M 1.988281 13.089844 L 17.398438 13.089844 L 17.398438 32.386719 L 1.988281 32.386719 Z M 1.988281 13.089844 "/>
<path style=" stroke:none;fill-rule:nonzero;fill:rgb(94.509804%,25.882353%,16.470588%);fill-opacity:1;" d="M 1.988281 32.386719 L 11.636719 32.386719 L 11.636719 43.914062 L 1.988281 43.914062 Z M 1.988281 32.386719 "/>
<path style=" stroke:none;fill-rule:nonzero;fill:rgb(20%,20%,20%);fill-opacity:1;" d="M 11.636719 32.386719 L 17.402344 32.386719 L 17.402344 43.914062 L 11.636719 43.914062 Z M 11.636719 32.386719 "/>
<path style=" stroke:none;fill-rule:nonzero;fill:rgb(0%,60%,100%);fill-opacity:1;" d="M 19.398438 18.808594 L 22.480469 18.808594 L 22.480469 38.191406 L 19.398438 38.191406 Z M 37.015625 18.808594 L 31.730469 18.808594 L 31.730469 24.976562 L 33.929688 24.976562 L 33.929688 38.191406 L 37.015625 38.191406 L 37.015625 24.976562 L 39.214844 24.976562 L 39.214844 18.808594 Z M 45.386719 18.808594 L 40.097656 18.808594 L 40.097656 24.976562 L 42.300781 24.976562 L 42.300781 38.191406 L 45.363281 38.191406 L 45.363281 24.976562 L 47.5625 24.976562 L 47.5625 18.808594 Z M 53.753906 18.808594 L 48.46875 18.808594 L 48.46875 24.976562 L 50.671875 24.976562 L 50.671875 38.191406 L 53.753906 38.191406 L 53.753906 24.976562 L 55.953125 24.976562 L 55.953125 18.808594 Z M 30.875 24.976562 L 30.875 18.808594 L 23.828125 18.808594 L 23.828125 38.191406 L 26.910156 38.191406 L 26.910156 32.902344 L 29.554688 32.902344 L 29.554688 26.742188 L 26.886719 26.742188 L 26.886719 24.984375 Z M 30.875 24.976562 "/>
</g>
</svg>
