<?xml version="1.0" encoding="UTF-8"?>
<svg xmlns="http://www.w3.org/2000/svg" xmlns:xlink="http://www.w3.org/1999/xlink" width="57px" height="57px" viewBox="0 0 57 57" version="1.1">
<g id="surface1">
<path style=" stroke:none;fill-rule:evenodd;fill:rgb(82.745098%,21.960784%,20%);fill-opacity:1;" d="M 48.621094 27.46875 C 48.621094 38.761719 39.667969 47.914062 28.628906 47.914062 C 17.589844 47.914062 8.640625 38.761719 8.640625 27.46875 C 8.640625 16.171875 17.589844 7.019531 28.628906 7.019531 C 39.667969 7.019531 48.621094 16.171875 48.621094 27.46875 "/>
<path style=" stroke:none;fill-rule:nonzero;fill:rgb(93.72549%,23.921569%,22.745098%);fill-opacity:1;" d="M 9.453125 32.53125 C 9.453125 32.53125 8.003906 11.207031 27.652344 10.597656 L 26.28125 8.3125 L 15.617188 11.875 L 12.589844 15.378906 L 9.925781 20.484375 L 8.402344 26.421875 L 8.859375 30.382812 "/>
<path style=" stroke:none;fill-rule:nonzero;fill:rgb(13.72549%,12.156863%,12.54902%);fill-opacity:1;" d="M 14.9375 13.519531 C 11.425781 17.109375 9.257812 22.0625 9.257812 27.546875 C 9.257812 33.027344 11.429688 37.984375 14.9375 41.570312 C 18.441406 45.15625 23.28125 47.371094 28.628906 47.371094 C 33.976562 47.371094 38.8125 45.15625 42.320312 41.570312 C 45.828125 37.980469 48 33.023438 48 27.546875 C 48 22.066406 45.828125 17.105469 42.320312 13.519531 C 38.816406 9.933594 33.976562 7.71875 28.628906 7.71875 C 23.28125 7.71875 18.445312 9.933594 14.9375 13.519531 Z M 14.046875 42.4375 C 10.320312 38.625 8.015625 33.359375 8.015625 27.546875 C 8.015625 21.738281 10.324219 16.46875 14.046875 12.65625 C 17.773438 8.84375 22.933594 6.476562 28.628906 6.480469 C 34.324219 6.480469 39.480469 8.84375 43.207031 12.65625 C 46.933594 16.46875 49.242188 21.738281 49.242188 27.546875 C 49.242188 33.359375 46.9375 38.625 43.207031 42.4375 C 39.480469 46.25 34.324219 48.613281 28.628906 48.613281 C 22.933594 48.613281 17.773438 46.25 14.046875 42.4375 "/>
<path style=" stroke:none;fill-rule:evenodd;fill:rgb(94.117647%,83.921569%,71.764706%);fill-opacity:1;" d="M 37.042969 27.582031 L 34.015625 28.039062 L 29.898438 28.496094 L 27.234375 28.574219 L 24.644531 28.496094 L 22.664062 27.886719 L 20.914062 25.980469 L 19.542969 22.097656 L 19.238281 21.261719 L 17.410156 20.652344 L 16.34375 18.902344 L 15.566406 16.386719 L 16.40625 14.179688 L 18.386719 13.492188 L 19.984375 14.253906 L 20.746094 15.929688 L 21.660156 15.777344 L 21.964844 15.394531 L 21.660156 13.644531 L 21.585938 11.4375 L 22.042969 8.40625 L 22.023438 6.667969 L 23.414062 4.449219 L 25.851562 2.695312 L 30.113281 0.851562 L 34.832031 1.535156 L 38.945312 4.503906 L 40.851562 7.53125 L 42.070312 9.742188 L 42.375 15.222656 L 41.460938 19.945312 L 39.785156 24.128906 L 38.1875 26.339844 "/>
<path style=" stroke:none;fill-rule:evenodd;fill:rgb(20%,31.372549%,38.039216%);fill-opacity:1;" d="M 34.453125 40.753906 L 23.5625 41.210938 L 23.5625 43.039062 L 24.476562 49.433594 L 24.019531 49.96875 L 16.40625 47.382812 L 15.871094 46.46875 L 15.109375 37.863281 L 13.359375 32.6875 L 12.976562 31.46875 L 19.066406 27.28125 L 20.972656 26.519531 L 22.648438 28.574219 L 24.09375 29.871094 L 25.769531 30.402344 L 26.53125 30.632812 L 27.445312 34.59375 L 28.128906 35.429688 L 29.878906 34.820312 L 28.660156 37.179688 L 35.289062 40.300781 L 34.449219 40.761719 "/>
<path style=" stroke:none;fill-rule:evenodd;fill:rgb(42.745098%,41.960784%,42.745098%);fill-opacity:1;" d="M 16.40625 14.179688 L 18.386719 13.492188 L 19.984375 14.253906 L 20.746094 15.929688 L 21.660156 15.777344 L 21.890625 14.863281 L 21.433594 13.113281 L 21.890625 8.921875 L 21.507812 6.636719 L 22.878906 5.039062 L 25.847656 2.675781 L 25.011719 1.539062 L 20.824219 3.59375 L 19.070312 4.964844 L 18.082031 7.097656 L 16.558594 9.152344 L 16.101562 11.589844 L 16.402344 14.179688 "/>
<path style=" stroke:none;fill-rule:evenodd;fill:rgb(86.27451%,85.098039%,84.705882%);fill-opacity:1;" d="M 19.527344 7.019531 C 19.527344 7.019531 20.667969 4.199219 25.238281 2.832031 C 29.8125 1.464844 25.464844 1.84375 25.464844 1.84375 L 20.515625 3.746094 L 18.609375 5.652344 L 17.773438 7.175781 L 19.523438 7.023438 M 17.242188 13.644531 C 17.242188 13.644531 15.644531 8.3125 21.738281 7.550781 L 21.507812 6.640625 L 17.324219 7.628906 L 16.105469 11.589844 L 16.40625 14.179688 L 17.246094 13.644531 "/>
<path style=" stroke:none;fill-rule:evenodd;fill:rgb(96.862745%,89.411765%,80.392157%);fill-opacity:1;" d="M 19.679688 20.726562 L 20.675781 19.761719 C 20.699219 20.054688 20.914062 20.296875 21.203125 20.347656 C 21.277344 20.882812 21.503906 25.679688 24.765625 28.269531 C 25.0625 28.503906 22.328125 27.886719 22.328125 27.886719 L 19.890625 24.078125 M 33.675781 19.277344 C 33.675781 19.277344 33.851562 16.96875 34.476562 17.148438 C 35.097656 17.328125 35.097656 17.949219 35.097656 17.949219 C 35.097656 17.949219 33.589844 18.925781 33.679688 19.28125 "/>
<path style=" stroke:none;fill-rule:nonzero;fill:rgb(96.862745%,89.411765%,80.392157%);fill-opacity:1;" d="M 40.015625 10.824219 C 40.015625 10.824219 38.757812 11.09375 38.640625 12.195312 C 38.527344 13.300781 40.015625 12.425781 40.242188 12.347656 M 30.816406 10.902344 C 30.816406 10.902344 29.140625 11.128906 29.140625 12.195312 C 29.140625 13.261719 31.046875 13.1875 31.578125 12.730469 "/>
<path style=" stroke:none;fill-rule:evenodd;fill:rgb(96.862745%,89.411765%,80.392157%);fill-opacity:1;" d="M 20.441406 15.851562 C 20.441406 15.851562 17.546875 14.101562 17.242188 15.777344 C 16.941406 17.453125 16.253906 18.671875 17.699219 20.421875 L 16.710938 20.121094 L 15.796875 17.757812 L 15.492188 15.472656 L 17.246094 13.644531 L 19.226562 13.800781 L 20.363281 14.714844 L 20.441406 15.851562 M 21.8125 11.054688 C 21.8125 11.054688 23.109375 4.351562 29.65625 3.039062 C 35.050781 1.972656 37.882812 3.265625 38.949219 4.484375 C 38.949219 4.484375 34.148438 -1.226562 29.578125 0.527344 C 25.007812 2.277344 21.660156 5.511719 21.730469 7.550781 L 21.808594 11.050781 M 39.476562 5.261719 C 39.476562 5.261719 37.269531 5.1875 37.191406 7.167969 C 37.199219 7.382812 37.25 7.589844 37.34375 7.777344 C 37.34375 7.777344 39.097656 5.796875 40.160156 6.863281 M 29.808594 7.984375 C 29.808594 7.984375 29.429688 4.945312 26.835938 6.710938 C 25.160156 7.851562 25.3125 9.453125 25.617188 9.738281 C 25.921875 10.023438 25.839844 10.65625 26.070312 10.238281 C 26.304688 9.820312 26.226562 8.445312 27.066406 8.066406 C 27.90625 7.683594 29.273438 7.257812 29.808594 7.96875 "/>
<path style=" stroke:none;fill-rule:evenodd;fill:rgb(28.627451%,44.705882%,54.509804%);fill-opacity:1;" d="M 22.648438 28.570312 L 15.488281 31.769531 C 15.488281 31.769531 18.457031 43.574219 16.933594 47.230469 L 15.867188 46.851562 L 15.789062 42.355469 L 13.816406 33.84375 L 12.976562 31.484375 L 20.460938 26.457031 L 22.667969 28.589844 M 23.386719 35.097656 L 24.402344 36.339844 L 24.402344 40.90625 L 23.183594 40.90625 L 23.035156 37.34375 C 23.035156 36.964844 23.183594 35.59375 23.183594 35.59375 M 23.410156 41.59375 L 19.984375 41.742188 L 20.972656 42.429688 L 23.410156 42.8125 "/>
<path style=" stroke:none;fill-rule:evenodd;fill:rgb(20%,31.372549%,38.039216%);fill-opacity:1;" d="M 35.140625 40.832031 L 37.957031 40.753906 L 38.640625 47.761719 L 35.746094 48.144531 L 35.140625 40.832031 "/>
<path style=" stroke:none;fill-rule:evenodd;fill:rgb(20%,31.372549%,38.039216%);fill-opacity:1;" d="M 35.902344 40.832031 L 40.164062 40.605469 L 41.917969 35.957031 C 41.917969 35.730469 43.4375 29.5625 43.4375 29.5625 L 40.011719 25.984375 L 39.328125 25.375 L 37.5 27.203125 L 37.5 34.285156 L 35.898438 40.832031 "/>
<path style=" stroke:none;fill-rule:evenodd;fill:rgb(28.627451%,44.705882%,54.509804%);fill-opacity:1;" d="M 37.804688 40.300781 L 35.140625 40.832031 L 35.523438 42.964844 C 36.511719 43.421875 38.1875 42.203125 38.1875 42.203125 M 37.878906 26.972656 L 43.210938 30.933594 L 43.363281 29.105469 L 39.328125 25.375 L 37.882812 26.972656 "/>
<path style=" stroke:none;fill-rule:evenodd;fill:rgb(100%,100%,100%);fill-opacity:1;" d="M 26.054688 55.835938 L 24.476562 49.4375 L 23.695312 44.714844 L 23.5625 41.210938 L 30.699219 40.832031 L 35.140625 40.832031 L 34.734375 48.847656 L 35.421875 55.015625 L 35.34375 56.15625 L 29.554688 56.617188 L 26.050781 55.851562 "/>
<path style=" stroke:none;fill-rule:evenodd;fill:rgb(86.27451%,85.098039%,84.705882%);fill-opacity:1;" d="M 34.148438 40.753906 C 34.148438 40.753906 33.765625 48.675781 34.910156 54.292969 C 34.910156 54.292969 32.625 55.738281 29.273438 56.121094 L 35.667969 55.890625 L 36.429688 55.433594 L 35.515625 42.945312 L 35.289062 40.277344 "/>
<path style=" stroke:none;fill-rule:evenodd;fill:rgb(100%,100%,100%);fill-opacity:1;" d="M 38.773438 47.152344 L 41.742188 46.316406 L 47.378906 46.011719 L 48.214844 43.421875 L 46.691406 38.929688 L 44.941406 38.703125 L 42.503906 39.464844 L 40.164062 40.605469 L 38.925781 40.375 L 37.957031 40.753906 "/>
<path style=" stroke:none;fill-rule:evenodd;fill:rgb(86.27451%,85.098039%,84.705882%);fill-opacity:1;" d="M 38.71875 45.628906 C 38.71875 45.628906 40.699219 44.714844 41.003906 44.792969 L 40.167969 40.601562 L 41.15625 40.21875 L 41.84375 44.636719 L 46.488281 44.867188 C 46.488281 44.867188 47.402344 43.113281 47.175781 41.304688 L 48.011719 43.742188 L 48.089844 45.113281 L 46.871094 46.941406 L 45.5 47.242188 L 43.214844 47.164062 L 42.449219 46.175781 L 39.785156 46.554688 L 38.949219 46.859375 "/>
<path style=" stroke:none;fill-rule:nonzero;fill:rgb(100%,100%,100%);fill-opacity:1;" d="M 35.726562 40.21875 L 34.050781 35.957031 L 32.300781 33.445312 C 32.300781 33.445312 32.679688 32.375 33.214844 32.375 L 34.964844 32.375 L 36.636719 32.984375 L 36.488281 35.804688 L 35.726562 40.21875 "/>
<path style=" stroke:none;fill-rule:evenodd;fill:rgb(86.27451%,85.098039%,84.705882%);fill-opacity:1;" d="M 36.050781 38.777344 C 36.050781 38.777344 33.921875 34.664062 33.921875 34.058594 C 33.921875 34.058594 34.300781 33.144531 34.835938 33.371094 C 35.367188 33.601562 36.507812 34.207031 36.507812 34.207031 L 36.507812 32.761719 L 33.917969 32.226562 L 32.167969 32.457031 L 35.136719 39.464844 L 35.746094 39.539062 "/>
<path style=" stroke:none;fill-rule:nonzero;fill:rgb(100%,100%,100%);fill-opacity:1;" d="M 26.738281 28.722656 L 24.628906 28.492188 L 22.648438 27.882812 L 22.648438 28.566406 L 23.613281 29.636719 L 26.640625 31.007812 "/>
<path style=" stroke:none;fill-rule:evenodd;fill:rgb(86.27451%,85.098039%,84.705882%);fill-opacity:1;" d="M 23.335938 28.953125 C 23.335938 28.953125 25.695312 29.941406 26.457031 29.714844 L 26.535156 30.628906 L 24.402344 30.171875 L 23.105469 29.257812 L 23.335938 28.957031 "/>
<path style=" stroke:none;fill-rule:evenodd;fill:rgb(82.745098%,21.960784%,20%);fill-opacity:1;" d="M 38.761719 32.636719 C 37.472656 32.601562 36.304688 32.445312 35.28125 32.15625 C 35.351562 31.738281 35.21875 31.328125 35.324219 31.023438 C 35.609375 30.820312 36.089844 30.824219 36.519531 30.773438 C 36.144531 30.589844 35.625 30.519531 35.195312 30.625 C 35.183594 30.335938 35.050781 30.15625 34.976562 29.925781 C 35.703125 29.667969 37.414062 27.96875 38.378906 28.53125 C 38.839844 28.796875 39.035156 30.328125 39.070312 31.070312 C 39.101562 31.6875 39.019531 32.308594 38.761719 32.636719 "/>
<path style="fill:none;stroke-width:0.257;stroke-linecap:butt;stroke-linejoin:miter;stroke:rgb(82.745098%,21.960784%,20%);stroke-opacity:1;stroke-miterlimit:4;" d="M 21.760965 18.322368 C 21.037281 18.302632 20.381579 18.214912 19.807018 18.052632 C 19.846491 17.817982 19.77193 17.587719 19.83114 17.416667 C 19.991228 17.302632 20.260965 17.304825 20.502193 17.276316 C 20.291667 17.173246 20 17.133772 19.758772 17.192982 C 19.752193 17.030702 19.677632 16.929825 19.635965 16.800439 C 20.04386 16.655702 21.004386 15.701754 21.546053 16.017544 C 21.804825 16.166667 21.914474 17.026316 21.934211 17.442982 C 21.951754 17.789474 21.905702 18.138158 21.760965 18.322368 Z M 21.760965 18.322368 " transform="matrix(1.78125,0,0,1.78125,0,0)"/>
<path style=" stroke:none;fill-rule:evenodd;fill:rgb(82.745098%,21.960784%,20%);fill-opacity:1;" d="M 32.585938 30.523438 L 32.574219 30.820312 C 32.167969 31.089844 31.519531 31.082031 31.078125 31.304688 C 31.730469 31.332031 32.246094 31.492188 32.691406 31.714844 L 32.660156 32.453125 C 31.921875 32.960938 31.246094 33.714844 30.375 34.1875 C 29.964844 34.414062 28.519531 34.992188 28.082031 34.890625 C 27.832031 34.832031 27.8125 34.523438 27.710938 34.234375 C 27.503906 33.609375 27.019531 32.625 26.972656 31.691406 C 26.921875 30.507812 26.800781 28.53125 28.074219 28.773438 C 29.125 28.996094 30.140625 29.367188 31.085938 29.875 C 31.574219 30.144531 31.851562 30.46875 32.589844 30.527344 "/>
<path style="fill:none;stroke-width:0.257;stroke-linecap:butt;stroke-linejoin:miter;stroke:rgb(82.745098%,21.960784%,20%);stroke-opacity:1;stroke-miterlimit:4;" d="M 18.29386 17.135965 L 18.287281 17.302632 C 18.059211 17.453947 17.695175 17.449561 17.447368 17.574561 C 17.813596 17.589912 18.10307 17.679825 18.35307 17.804825 L 18.335526 18.219298 C 17.921053 18.504386 17.541667 18.927632 17.052632 19.192982 C 16.822368 19.320175 16.010965 19.644737 15.765351 19.587719 C 15.625 19.554825 15.614035 19.381579 15.557018 19.219298 C 15.440789 18.868421 15.16886 18.315789 15.142544 17.791667 C 15.114035 17.127193 15.046053 16.017544 15.760965 16.153509 C 16.350877 16.278509 16.921053 16.486842 17.451754 16.77193 C 17.725877 16.923246 17.881579 17.105263 18.296053 17.138158 Z M 18.29386 17.135965 " transform="matrix(1.78125,0,0,1.78125,0,0)"/>
<path style=" stroke:none;fill-rule:evenodd;fill:rgb(82.745098%,21.960784%,20%);fill-opacity:1;" d="M 33.316406 31.933594 C 33.207031 31.292969 33.074219 31.109375 33.125 30.542969 C 34.839844 29.402344 35.160156 32.507812 33.316406 31.933594 "/>
<path style="fill:none;stroke-width:0.257;stroke-linecap:butt;stroke-linejoin:miter;stroke:rgb(82.745098%,21.960784%,20%);stroke-opacity:1;stroke-miterlimit:4;" d="M 18.703947 17.927632 C 18.642544 17.567982 18.567982 17.464912 18.596491 17.14693 C 19.559211 16.506579 19.739035 18.25 18.703947 17.927632 Z M 18.703947 17.927632 " transform="matrix(1.78125,0,0,1.78125,0,0)"/>
<path style=" stroke:none;fill-rule:evenodd;fill:rgb(93.72549%,23.921569%,22.745098%);fill-opacity:1;" d="M 35.804688 32.453125 C 35.804688 32.453125 35.269531 31.691406 35.648438 31.464844 C 36.03125 31.234375 36.414062 31.464844 36.640625 31.082031 C 36.867188 30.703125 36.640625 30.472656 36.71875 30.015625 C 36.792969 29.554688 37.175781 29.480469 37.554688 29.40625 C 37.933594 29.328125 39 29.175781 39.152344 29.558594 L 38.695312 28.1875 L 37.78125 27.882812 L 34.886719 29.558594 L 34.734375 30.394531 L 34.734375 32.070312 M 27.789062 34.964844 L 27.492188 31.402344 C 27.3125 29.632812 27.917969 29.9375 29.453125 29.9375 C 29.691406 29.9375 30.878906 30.21875 30.988281 30.398438 C 31.402344 31.246094 30.273438 31.054688 31.46875 31.699219 C 32.457031 32.238281 34.207031 31.371094 33.804688 30.167969 C 33.582031 29.902344 32.640625 30.085938 32.300781 29.910156 L 30.515625 28.984375 C 29.757812 28.59375 28.011719 28.019531 27.203125 28.566406 C 25.160156 29.957031 27.332031 33.433594 28.0625 34.882812 "/>
<path style=" stroke:none;fill-rule:evenodd;fill:rgb(13.72549%,12.156863%,12.54902%);fill-opacity:1;" d="M 29.808594 7.984375 C 27.734375 7.503906 26.703125 8.855469 26.070312 10.257812 C 25.511719 10.121094 25.714844 9.355469 25.894531 8.96875 C 26.25 7.945312 27.765625 6.585938 28.984375 6.769531 C 29.511719 6.847656 30.226562 7.328125 29.828125 7.984375 M 39.921875 10.332031 L 40.019531 10.335938 C 40.488281 11.308594 40.910156 12.34375 41.488281 13.183594 C 41.089844 14.109375 38.484375 14.925781 38.523438 13.265625 C 39.085938 13.019531 40.058594 13.21875 40.5625 12.902344 C 40.273438 12.109375 39.855469 11.433594 39.917969 10.3125 M 30.871094 10.375 C 31.316406 11.191406 31.457031 12.046875 32.09375 12.664062 C 32.378906 12.941406 32.929688 13.277344 32.65625 14.050781 C 32.464844 14.351562 32.183594 14.582031 31.855469 14.71875 C 30.867188 15.011719 28.5625 14.78125 29.363281 13.546875 C 30.179688 13.582031 31.277344 14.078125 31.890625 13.484375 C 31.421875 12.738281 30.585938 11.25 30.894531 10.375 M 39.570312 18.667969 C 38.078125 19.625 36.417969 20.664062 33.980469 20.421875 C 33.457031 19.972656 33.257812 18.964844 33.765625 18.296875 C 34.027344 18.746094 33.863281 19.582031 34.597656 19.707031 C 35.984375 19.945312 37.59375 18.863281 38.589844 18.480469 C 39.207031 17.441406 38.535156 17.058594 37.980469 16.386719 C 36.839844 15.015625 35.3125 13.3125 35.367188 11.257812 C 35.828125 10.925781 35.867188 11.765625 35.933594 11.921875 C 36.53125 13.308594 38.027344 15.089844 39.117188 16.285156 C 39.386719 16.578125 39.832031 16.859375 39.875 17.054688 C 40.019531 17.617188 39.507812 18.292969 39.566406 18.667969 M 19.917969 17.660156 C 19.453125 17.390625 19.34375 16.21875 18.792969 16.1875 C 18.011719 16.136719 18.152344 17.710938 18.15625 18.625 C 17.617188 18.136719 17.523438 16.632812 17.917969 15.855469 C 17.46875 15.636719 17.265625 16.101562 17.015625 16.265625 C 17.335938 13.929688 20.433594 15.199219 19.917969 17.660156 M 40.5 19.621094 C 39.789062 20.9375 38.824219 22.390625 36.792969 22.433594 C 36.75 22.007812 36.71875 21.359375 36.792969 21.105469 C 38.347656 20.953125 39.308594 20.164062 40.5 19.621094 M 30.753906 20.476562 C 32.050781 21.15625 34.4375 21.230469 36.199219 21.179688 C 36.292969 21.566406 36.292969 22.042969 36.296875 22.515625 C 34.027344 22.628906 31.351562 22.070312 30.773438 20.476562 M 30.523438 21.746094 C 31.421875 24 34.507812 23.742188 37.105469 23.679688 C 36.992188 23.96875 36.742188 24.316406 36.433594 24.441406 C 35.601562 24.796875 33.304688 25.039062 32.148438 24.421875 C 31.414062 24.03125 30.945312 23.152344 30.542969 22.632812 C 30.363281 22.386719 29.378906 21.746094 30.527344 21.742188 "/>
<path style=" stroke:none;fill-rule:evenodd;fill:rgb(50.588235%,69.019608%,76.862745%);fill-opacity:1;" d="M 39.445312 34.191406 L 36.132812 39.4375 C 36.65625 37.898438 36.882812 35.324219 36.960938 33.359375 C 38.054688 32.84375 38.996094 33.472656 39.445312 34.195312 "/>
<path style=" stroke:none;fill-rule:evenodd;fill:rgb(13.72549%,12.156863%,12.54902%);fill-opacity:1;" d="M 45.109375 40.671875 C 43.929688 40.90625 43.101562 42.054688 41.953125 41.980469 C 42.585938 41.089844 43.691406 40.734375 45.109375 40.671875 M 45.628906 42.519531 C 44.667969 42.621094 43.539062 42.773438 42.566406 42.695312 C 43.027344 41.992188 44.804688 42.234375 45.628906 42.519531 M 45.960938 44.105469 C 44.882812 44.128906 43.539062 44.109375 42.511719 44.023438 C 43.117188 43.371094 45.261719 43.78125 45.960938 44.105469 "/>
<path style=" stroke:none;fill-rule:evenodd;fill:rgb(86.27451%,85.098039%,84.705882%);fill-opacity:1;" d="M 37.410156 48.460938 C 37.566406 49.8125 38.105469 51.191406 38.035156 52.675781 C 37.4375 52.875 37.09375 53.054688 36.292969 53.050781 L 36.121094 48.65625 C 36.511719 48.679688 37.09375 48.375 37.410156 48.476562 "/>
<path style=" stroke:none;fill-rule:evenodd;fill:rgb(94.117647%,83.921569%,71.764706%);fill-opacity:1;" d="M 35.671875 28.476562 C 35.128906 28.832031 34.667969 29.269531 34.148438 29.652344 C 32.992188 29.707031 32.363281 29.570312 31.515625 28.90625 C 31.527344 28.855469 31.613281 28.878906 31.617188 28.8125 C 32.851562 29.367188 34.421875 28.589844 35.671875 28.476562 "/>
<path style=" stroke:none;fill-rule:evenodd;fill:rgb(50.588235%,69.019608%,76.862745%);fill-opacity:1;" d="M 29.183594 36.898438 C 29.519531 35.429688 30.851562 34.667969 32.0625 33.855469 C 33.308594 35.441406 34.066406 37.46875 34.902344 39.4375 C 32.929688 38.84375 30.910156 37.875 29.183594 36.898438 "/>
<path style=" stroke:none;fill-rule:evenodd;fill:rgb(13.72549%,12.156863%,12.54902%);fill-opacity:1;" d="M 36.125 48.65625 C 36.074219 49.859375 36.242188 51.792969 36.296875 53.050781 C 37.101562 53.054688 37.441406 52.875 38.039062 52.675781 C 38.105469 51.191406 37.566406 49.816406 37.414062 48.460938 C 37.101562 48.378906 36.519531 48.683594 36.125 48.640625 Z M 23.667969 41.816406 C 24.195312 46.664062 24.960938 50.722656 26.363281 55.035156 C 29.472656 55.976562 33.21875 56.058594 35.96875 55.207031 C 35.464844 52.785156 35.6875 49.835938 35.390625 47.246094 L 34.976562 41.363281 C 31.648438 40.667969 26.941406 41.203125 23.671875 41.8125 Z M 35.78125 41.398438 C 35.753906 43.480469 35.875 45.535156 36.035156 47.621094 L 38.117188 47.257812 C 37.878906 45.25 37.90625 42.992188 37.414062 41.214844 C 36.84375 41.21875 36.347656 41.207031 35.78125 41.398438 Z M 39.835938 41.0625 C 39.457031 40.972656 39.019531 41.058594 38.652344 41.066406 L 39.367188 46.417969 C 39.9375 46.4375 40.238281 46.171875 40.710938 46.078125 C 40.734375 44.511719 40.574219 42.359375 39.820312 41.0625 Z M 45.980469 46.675781 C 47.167969 46.386719 47.914062 44.929688 47.582031 43.433594 C 47.359375 42.425781 46.960938 40.535156 46.535156 39.890625 C 46.222656 39.414062 45.371094 38.792969 44.691406 39.226562 C 43.582031 39.9375 41.632812 40.144531 40.824219 41 C 41.230469 42.347656 41.355469 44.199219 41.523438 45.90625 C 42.90625 45.992188 44.609375 45.527344 45.757812 46.023438 C 44.957031 46.28125 43.914062 46.285156 43.21875 46.664062 C 43.785156 46.9375 45.117188 46.882812 45.980469 46.671875 Z M 34.921875 39.441406 C 34.085938 37.476562 33.328125 35.441406 32.082031 33.859375 C 30.871094 34.671875 29.542969 35.433594 29.203125 36.90625 C 30.929688 37.886719 32.949219 38.847656 34.917969 39.445312 Z M 36.980469 33.359375 C 36.902344 35.324219 36.675781 37.902344 36.152344 39.441406 C 37.402344 37.851562 38.410156 35.996094 39.464844 34.195312 C 39.015625 33.476562 38.074219 32.847656 36.980469 33.359375 Z M 34.664062 32.527344 C 34.191406 32.476562 33.792969 33.074219 33.175781 32.8125 L 32.761719 33.292969 C 34.121094 34.929688 34.71875 37.253906 35.789062 39.175781 C 36.351562 37.328125 36.289062 35.300781 36.414062 33.285156 C 35.640625 33.335938 35.210938 32.585938 34.667969 32.527344 Z M 33.164062 30.546875 C 33.113281 31.109375 33.242188 31.292969 33.355469 31.9375 C 35.199219 32.515625 34.875 29.410156 33.164062 30.546875 Z M 31.117188 29.875 C 30.171875 29.367188 29.15625 28.996094 28.105469 28.773438 C 26.832031 28.53125 26.953125 30.507812 27.003906 31.691406 C 27.046875 32.625 27.535156 33.613281 27.746094 34.234375 C 27.84375 34.523438 27.867188 34.832031 28.113281 34.890625 C 28.550781 34.992188 29.996094 34.414062 30.40625 34.1875 C 31.28125 33.714844 31.953125 32.941406 32.691406 32.453125 L 32.722656 31.714844 C 32.277344 31.496094 31.761719 31.335938 31.109375 31.304688 C 31.554688 31.082031 32.203125 31.085938 32.605469 30.820312 L 32.617188 30.523438 C 31.878906 30.46875 31.601562 30.140625 31.113281 29.875 Z M 23.53125 28.5 C 22.871094 29.167969 25.378906 30.078125 26.179688 30.128906 C 26.171875 29.707031 26.421875 29.308594 26.371094 29.003906 C 25.421875 28.835938 24.175781 28.945312 23.53125 28.5 Z M 31.652344 28.8125 C 31.648438 28.878906 31.5625 28.851562 31.550781 28.90625 C 32.398438 29.570312 33.03125 29.707031 34.183594 29.648438 L 35.707031 28.472656 C 34.460938 28.585938 32.890625 29.359375 31.652344 28.8125 Z M 39.109375 31.074219 C 39.074219 30.328125 38.878906 28.800781 38.417969 28.535156 C 37.453125 27.972656 35.738281 29.671875 35.011719 29.929688 C 35.089844 30.160156 35.222656 30.339844 35.230469 30.628906 C 35.660156 30.523438 36.183594 30.59375 36.554688 30.777344 C 36.125 30.828125 35.664062 30.824219 35.363281 31.027344 C 35.257812 31.332031 35.386719 31.738281 35.320312 32.160156 C 36.339844 32.449219 37.507812 32.601562 38.800781 32.640625 C 39.050781 32.316406 39.140625 31.691406 39.109375 31.074219 Z M 22.417969 29.148438 C 22.210938 29 20.808594 27.175781 20.636719 27.25 C 18.101562 28.25 15.734375 29.976562 13.617188 31.617188 C 15.636719 35.949219 16.449219 41.257812 16.59375 46.375 C 18.910156 47.453125 20.941406 49.015625 24.074219 49.175781 L 23.175781 41.894531 C 22.386719 41.5625 21.253906 41.910156 20.515625 41.792969 C 20.507812 40.902344 21.644531 41.398438 21.738281 40.804688 C 21.808594 40.351562 21.113281 40.320312 21.339844 39.605469 C 21.917969 39.816406 22.222656 40.28125 22.835938 40.453125 C 23.398438 39.222656 22.832031 37.046875 22.910156 36 C 22.925781 35.808594 23.003906 34.929688 23.4375 35.082031 C 23.820312 35.21875 23.417969 37.417969 23.457031 38.386719 C 23.492188 39.285156 23.347656 40.167969 23.710938 40.714844 C 26.742188 40.300781 29.824219 40.035156 33.105469 39.945312 C 32.386719 39.632812 31.527344 39.339844 30.585938 38.8125 C 30.078125 38.527344 28.46875 37.925781 28.324219 37.441406 C 28.089844 36.667969 28.941406 36.257812 29.085938 35.597656 C 27.550781 36.433594 27.253906 34.796875 26.894531 33.636719 C 26.566406 32.585938 26.375 31.800781 26.296875 31.195312 C 24.980469 30.566406 23.570312 29.949219 22.433594 29.125 Z M 37.769531 27.472656 C 39.878906 26.449219 40.261719 31.300781 39.433594 32.863281 C 39.5625 33.328125 40.003906 33.507812 40.179688 33.925781 L 36.496094 40.09375 C 37.386719 39.535156 38.667969 39.996094 39.699219 39.558594 C 40.085938 39.410156 40.363281 38.527344 40.65625 37.824219 C 41.457031 35.886719 42.296875 33.441406 42.671875 31.589844 C 42.753906 31.167969 42.988281 30.25 42.933594 29.875 C 42.84375 29.203125 41.933594 28.703125 41.46875 28.269531 L 39.1875 26.113281 C 38.824219 26.644531 38.050781 27.003906 37.753906 27.4375 Z M 17.554688 8.742188 C 16.546875 9.851562 16.757812 11.921875 16.882812 13.398438 C 18.699219 12.257812 21.113281 13.488281 21.089844 15.4375 C 21.960938 15.414062 21.414062 14.351562 21.257812 13.667969 C 20.746094 11.433594 22.125 9.007812 21.320312 6.964844 C 19.761719 7.082031 18.484375 7.71875 17.554688 8.742188 Z M 24.753906 2.316406 C 22.472656 2.960938 19.554688 4.617188 18.621094 6.660156 C 19.347656 6.554688 19.851562 6.191406 20.5625 6.128906 C 20.832031 6.109375 21.1875 6.242188 21.496094 6.164062 C 22.117188 6.011719 22.636719 4.621094 23.105469 4.105469 C 23.5625 3.601562 24.109375 3.386719 24.484375 2.925781 C 24.722656 2.8125 25.078125 2.820312 25.09375 2.457031 C 24.984375 2.347656 24.878906 2.28125 24.734375 2.28125 Z M 36.613281 2.921875 C 34.25 1.589844 30.246094 0.585938 27.730469 1.839844 C 25.699219 2.851562 22.957031 4.527344 22.023438 6.648438 C 22.894531 8.699219 21.761719 10.574219 21.691406 12.652344 C 21.652344 13.757812 22.210938 14.722656 22.253906 15.929688 C 21.953125 16.421875 21.042969 16.480469 20.40625 16.449219 C 20.195312 15.382812 19.820312 14.1875 18.726562 14.066406 C 17.175781 13.898438 16.039062 15.179688 15.96875 16.523438 C 15.886719 18.101562 17.179688 20.71875 19.019531 20.539062 C 19.726562 20.464844 19.902344 19.753906 20.675781 19.761719 C 21.09375 20.601562 20.027344 20.863281 19.917969 21.457031 C 19.890625 21.613281 20.007812 22.21875 20.078125 22.5 C 20.410156 23.878906 21.152344 25.664062 21.886719 26.710938 C 22.816406 28.042969 24.640625 28.242188 26.605469 28.375 C 26.957031 27.617188 28.25 27.679688 29.089844 27.878906 C 28.082031 27.480469 27.144531 26.511719 26.367188 25.652344 C 25.476562 24.667969 24.566406 23.613281 24.523438 22.328125 C 26.210938 24.667969 27.605469 26.710938 30.671875 27.742188 C 32.992188 28.519531 35.707031 27.386719 37.488281 26.132812 C 38.230469 25.609375 38.671875 24.785156 39.199219 24.027344 C 41.167969 21.179688 42.082031 17.152344 41.882812 13.234375 C 41.800781 11.617188 41.804688 10.011719 41.261719 8.925781 C 40.695312 7.789062 38.777344 6.769531 37.65625 7.796875 C 37.445312 6.695312 38.589844 6.011719 39.929688 6.410156 C 38.972656 5.175781 37.96875 3.695312 36.613281 2.929688 Z M 41.015625 39.378906 C 42.863281 38.457031 46.316406 36.90625 47.476562 39.382812 C 47.902344 40.292969 48.40625 41.835938 48.625 42.777344 C 48.941406 44.105469 48.269531 46.898438 46.921875 47.347656 C 45.714844 47.738281 44.308594 47.71875 42.851562 47.425781 C 42.683594 47.285156 42.492188 47.035156 42.359375 46.777344 C 41.320312 46.738281 40.347656 46.832031 39.53125 47.257812 C 39.609375 48.023438 39.085938 48.148438 38.601562 48.308594 C 38.242188 49.738281 39.324219 51.609375 39.066406 52.910156 C 38.882812 53.84375 37.738281 53.984375 36.898438 54.160156 C 36.871094 54.691406 36.933594 55.105469 36.992188 55.542969 C 36.800781 56.25 35.9375 56.65625 35.121094 56.753906 C 32.4375 57.074219 28.359375 57.222656 25.769531 56.292969 C 25.050781 54.523438 24.480469 52.371094 23.882812 50.351562 C 21.363281 50.617188 19.324219 49.265625 17.402344 48.375 C 16.738281 48.066406 15.800781 47.890625 15.566406 47.363281 C 15.328125 46.851562 15.425781 45.867188 15.367188 44.941406 C 15.214844 42.574219 15.082031 40.285156 14.476562 37.855469 C 14.195312 36.765625 13.703125 35.808594 13.363281 34.757812 C 13.046875 33.785156 12.496094 32.585938 12.351562 31.613281 C 12.136719 30.175781 13.492188 30.09375 14.355469 29.472656 C 15.691406 28.507812 16.742188 27.972656 18.195312 27.105469 C 18.621094 26.847656 19.917969 26.214844 20.066406 25.894531 C 20.359375 25.300781 19.5625 24.460938 19.351562 23.992188 C 19.015625 23.257812 18.84375 22.628906 18.792969 21.902344 C 17.578125 21.707031 16.65625 20.984375 16.097656 20.167969 C 15.179688 18.820312 14.539062 16.320312 15.335938 14.421875 C 15.398438 14.269531 15.691406 13.976562 15.757812 13.746094 C 15.847656 13.296875 15.585938 12.691406 15.570312 12.210938 C 15.484375 9.742188 15.988281 7.617188 17.652344 6.867188 C 18.328125 4.195312 20.742188 3.289062 23.015625 1.949219 C 23.867188 1.449219 24.804688 1.128906 25.773438 0.773438 C 29.25 -0.507812 34.582031 -0.265625 37.464844 1.917969 C 38.6875 2.84375 40.644531 4.792969 41.339844 6.210938 C 43.1875 9.941406 43.054688 16.179688 41.765625 20.71875 C 41.59375 21.328125 41.335938 22.226562 40.988281 22.957031 C 40.742188 23.46875 39.980469 24.488281 40.074219 24.941406 C 40.167969 25.410156 41.8125 26.65625 42.164062 26.996094 C 42.796875 27.609375 44.003906 28.421875 44.101562 29.191406 C 44.207031 30.011719 43.738281 31.136719 43.5 31.929688 L 41.042969 39.375 "/>
<path style=" stroke:none;fill-rule:evenodd;fill:rgb(96.862745%,89.411765%,80.392157%);fill-opacity:1;" d="M 28.691406 21.070312 C 28.789062 20.9375 29.34375 20.734375 30.117188 21.109375 C 30.117188 21.109375 29.203125 21.261719 29.277344 22.78125 L 28.898438 22.707031 C 28.898438 22.707031 28.503906 21.324219 28.695312 21.070312 "/>
<path style=" stroke:none;fill-rule:evenodd;fill:rgb(11.372549%,9.803922%,9.803922%);fill-opacity:1;" d="M 35.367188 34.167969 C 35.367188 34.398438 35.179688 34.585938 34.949219 34.585938 C 34.71875 34.585938 34.53125 34.398438 34.53125 34.167969 C 34.53125 33.9375 34.71875 33.75 34.949219 33.75 C 35.179688 33.75 35.367188 33.9375 35.367188 34.167969 M 35.785156 36.128906 C 35.785156 36.359375 35.597656 36.546875 35.367188 36.546875 C 35.136719 36.546875 34.949219 36.359375 34.949219 36.128906 C 34.949219 35.894531 35.136719 35.707031 35.367188 35.707031 C 35.597656 35.707031 35.785156 35.894531 35.785156 36.128906 "/>
</g>
</svg>
