<?xml version="1.0" encoding="UTF-8" standalone="no"?>
<svg
   xmlns:dc="http://purl.org/dc/elements/1.1/"
   xmlns:cc="http://creativecommons.org/ns#"
   xmlns:rdf="http://www.w3.org/1999/02/22-rdf-syntax-ns#"
   xmlns:svg="http://www.w3.org/2000/svg"
   xmlns="http://www.w3.org/2000/svg"
   xmlns:sodipodi="http://sodipodi.sourceforge.net/DTD/sodipodi-0.dtd"
   xmlns:inkscape="http://www.inkscape.org/namespaces/inkscape"
   width="15mm"
   height="15mm"
   viewBox="0 0 15 15"
   version="1.1"
   id="svg1024"
   inkscape:version="1.0.2-2 (e86c870879, 2021-01-15)"
   sodipodi:docname="jquery.svg">
  <defs
     id="defs1018" />
  <sodipodi:namedview
     id="base"
     pagecolor="#ffffff"
     bordercolor="#666666"
     borderopacity="1.0"
     inkscape:pageopacity="0.0"
     inkscape:pageshadow="2"
     inkscape:zoom="0.35"
     inkscape:cx="28.346471"
     inkscape:cy="28.346475"
     inkscape:document-units="mm"
     inkscape:current-layer="layer1"
     inkscape:document-rotation="0"
     showgrid="false"
     inkscape:window-width="1298"
     inkscape:window-height="1040"
     inkscape:window-x="52"
     inkscape:window-y="0"
     inkscape:window-maximized="0" />
  <metadata
     id="metadata1021">
    <rdf:RDF>
      <cc:Work
         rdf:about="">
        <dc:format>image/svg+xml</dc:format>
        <dc:type
           rdf:resource="http://purl.org/dc/dcmitype/StillImage" />
        <dc:title></dc:title>
      </cc:Work>
    </rdf:RDF>
  </metadata>
  <g
     inkscape:label="Capa 1"
     inkscape:groupmode="layer"
     id="layer1"
     transform="translate(-98.333328,-140.66666)">
    <rect
       style="fill:#0769ad;fill-opacity:1;stroke:none;stroke-width:0.128011;stroke-opacity:1"
       id="rect1414-3"
       width="15"
       height="15"
       x="98.333328"
       y="140.66666"
       ry="0" />
    <text
       xml:space="preserve"
       style="font-style:normal;font-weight:normal;font-size:2.38953px;line-height:1.25;font-family:sans-serif;fill:#ffffff;fill-opacity:1;stroke:none;stroke-width:0.128011"
       x="102.20586"
       y="153.46089"
       id="text1418-4"><tspan
         sodipodi:role="line"
         id="tspan1416-5"
         x="102.20586"
         y="153.46089"
         style="font-style:normal;font-variant:normal;font-weight:normal;font-stretch:normal;font-size:2.38953px;font-family:'Segoe UI';-inkscape-font-specification:'Segoe UI';fill:#ffffff;stroke-width:0.128011">JQuery</tspan></text>
    <path
       d="m 103.0617,145.43448 c -0.56251,0.80804 -0.49266,1.85896 -0.0627,2.71701 0.01,0.0209 0.0207,0.0407 0.0312,0.0606 0.006,0.0137 0.013,0.0265 0.0204,0.0397 0.003,0.007 0.008,0.0148 0.0124,0.0217 0.007,0.0137 0.0143,0.027 0.0214,0.0402 l 0.0416,0.0704 c 0.008,0.013 0.0151,0.0257 0.0238,0.0386 0.0148,0.0249 0.0317,0.0495 0.0471,0.0744 0.007,0.0106 0.0132,0.0207 0.0209,0.031 a 1.6848666,1.6848666 0 0 0 0.082,0.11774 c 0.0207,0.0283 0.0413,0.0558 0.0635,0.0833 0.007,0.0101 0.0153,0.0201 0.0227,0.0304 l 0.0582,0.0712 c 0.007,0.008 0.0146,0.0177 0.0222,0.0262 0.0259,0.0312 0.0534,0.0617 0.081,0.0926 l 0.001,10e-4 a 0.82920413,0.82920413 0 0 0 0.11245,0.11642 c 0.0212,0.022 0.0423,0.0436 0.0648,0.0648 l 0.0267,0.0256 c 0.0294,0.0278 0.059,0.0553 0.0899,0.0818 4.9e-4,0 9.7e-4,4.8e-4 10e-4,9.7e-4 l 0.0151,0.0132 c 0.027,0.0236 0.0542,0.0471 0.082,0.0688 l 0.0331,0.0278 c 0.0225,0.018 0.0461,0.0352 0.0688,0.0529 l 0.0362,0.0278 c 0.0246,0.0185 0.0508,0.0368 0.0759,0.0548 0.009,0.007 0.0185,0.0132 0.0281,0.0193 l 0.008,0.006 0.0741,0.0489 0.0317,0.0212 c 0.0391,0.0249 0.0778,0.0487 0.11641,0.072 0.0108,0.005 0.0222,0.0117 0.0326,0.018 0.0286,0.0164 0.0582,0.0331 0.087,0.0484 0.0159,0.009 0.0323,0.0166 0.0487,0.0249 0.0198,0.0111 0.0405,0.022 0.0619,0.0331 a 0.085725,0.085725 0 0 1 0.0148,0.006 c 0.009,0.004 0.0169,0.008 0.0254,0.0124 0.0317,0.0159 0.0648,0.0312 0.0992,0.0463 0.006,0.002 0.0132,0.005 0.0201,0.009 0.0381,0.0167 0.0765,0.0326 0.11589,0.0481 0.009,0.002 0.0185,0.007 0.0278,0.0106 0.0357,0.0135 0.0725,0.0272 0.10874,0.0402 l 0.0132,0.005 c 0.0407,0.0137 0.0807,0.027 0.12171,0.0397 0.01,0.002 0.0193,0.006 0.0294,0.009 0.0423,0.0127 0.0831,0.0278 0.12542,0.0362 2.71806,0.4953 3.50785,-1.63433 3.50785,-1.63433 -0.66358,0.86413 -1.84098,1.09193 -2.95646,0.83847 -0.0413,-0.01 -0.0825,-0.0227 -0.12436,-0.0349 a 3.5821937,3.5821937 0 0 1 -0.15001,-0.0481 l -0.0164,-0.006 c -0.036,-0.0122 -0.0706,-0.0256 -0.10584,-0.0392 a 0.42730207,0.42730207 0 0 0 -0.0291,-0.0106 c -0.0391,-0.0159 -0.0767,-0.032 -0.11457,-0.0487 -0.008,-0.002 -0.0151,-0.006 -0.0233,-0.01 a 6.201833,6.201833 0 0 1 -0.0958,-0.045 0.39290624,0.39290624 0 0 1 -0.0281,-0.0137 c -0.0249,-0.0117 -0.0497,-0.0252 -0.0741,-0.0378 a 1.0443104,1.0443104 0 0 1 -0.0495,-0.0254 c -0.0301,-0.0159 -0.0601,-0.0331 -0.09,-0.0495 -0.009,-0.006 -0.0193,-0.0117 -0.0297,-0.0175 a 4.2126957,4.2126957 0 0 1 -0.11616,-0.0714 0.55747708,0.55747708 0 0 1 -0.0312,-0.0206 1.5901458,1.5901458 0 0 1 -0.0825,-0.0548 c -0.009,-0.006 -0.0177,-0.0127 -0.0272,-0.0193 a 2.5275646,2.5275646 0 0 1 -0.0781,-0.0561 c -0.0111,-0.009 -0.023,-0.0175 -0.0349,-0.0265 -0.0233,-0.0185 -0.0468,-0.0357 -0.0701,-0.055 l -0.0312,-0.0252 a 2.8027312,2.8027312 0 0 1 -0.0886,-0.0741 0.0682625,0.0682625 0 0 0 -0.01,-0.008 l -0.0918,-0.0836 -0.0265,-0.0249 c -0.0217,-0.0222 -0.0439,-0.0434 -0.0661,-0.0651 l -0.0259,-0.0265 a 2.4026812,2.4026812 0 0 1 -0.0817,-0.0855 l -0.004,-0.004 c -0.0281,-0.0307 -0.0556,-0.0622 -0.0828,-0.0939 -0.007,-0.008 -0.014,-0.0169 -0.0212,-0.0257 l -0.0601,-0.0733 a 5.6290104,5.6290104 0 0 1 -0.09,-0.1188 c -0.6186,-0.84429 -0.84243,-2.01004 -0.3474,-2.96598 m 1.30784,-0.12515 c -0.40746,0.58499 -0.38471,1.36763 -0.0672,1.98649 a 2.4106187,2.4106187 0 0 0 0.17939,0.29977 c 0.0609,0.0873 0.12806,0.19077 0.20981,0.26141 0.0283,0.0323 0.059,0.0635 0.091,0.0952 l 0.0238,0.0238 c 0.0302,0.0291 0.0614,0.0574 0.0926,0.086 l 0.004,0.003 a 2.6106437,2.6106437 0 0 0 0.10954,0.0905 c 0.009,0.006 0.0167,0.0132 0.0254,0.0193 0.0371,0.0286 0.0746,0.0561 0.11324,0.0836 l 0.004,0.002 c 0.0164,0.0119 0.0339,0.0227 0.0524,0.0344 0.007,0.005 0.0159,0.0111 0.0238,0.0159 0.0281,0.018 0.0556,0.0349 0.0841,0.0521 0.004,0.002 0.008,0.004 0.0127,0.006 0.0238,0.0146 0.0497,0.0286 0.0746,0.0416 0.009,0.005 0.0172,0.009 0.0265,0.0143 0.0175,0.009 0.0349,0.018 0.0521,0.027 l 0.008,0.004 c 0.0357,0.0177 0.0722,0.0341 0.10795,0.0503 0.009,0.004 0.0166,0.007 0.0243,0.0103 0.0294,0.0127 0.0593,0.0249 0.0889,0.0362 0.0132,0.004 0.0256,0.01 0.0381,0.0137 0.027,0.0101 0.0556,0.0193 0.082,0.0286 l 0.0371,0.0119 c 0.0389,0.0119 0.0781,0.0275 0.1188,0.0344 2.09815,0.3474 2.58392,-1.26867 2.58392,-1.26867 -0.43736,0.6297 -1.28376,0.92948 -2.18572,0.69532 a 2.12725,2.12725 0 0 1 -0.1188,-0.0344 c -0.0127,-0.004 -0.0238,-0.008 -0.036,-0.0114 -0.0275,-0.01 -0.0558,-0.0185 -0.0825,-0.0288 l -0.0381,-0.0143 c -0.0299,-0.0119 -0.0601,-0.023 -0.0889,-0.0357 -0.009,-0.004 -0.0172,-0.007 -0.0241,-0.0106 -0.0371,-0.0166 -0.0743,-0.0331 -0.11059,-0.0508 l -0.0545,-0.0283 -0.0315,-0.0159 a 1.5009812,1.5009812 0 0 1 -0.0701,-0.0397 0.16404166,0.16404166 0 0 1 -0.0164,-0.009 c -0.0281,-0.0175 -0.0574,-0.0344 -0.0841,-0.0524 -0.009,-0.005 -0.0172,-0.0111 -0.0256,-0.0164 l -0.055,-0.036 c -0.0381,-0.0265 -0.0754,-0.055 -0.11324,-0.0828 -0.008,-0.008 -0.0166,-0.014 -0.0249,-0.0209 -0.39661,-0.31168 -0.70935,-0.73818 -0.85778,-1.22052 -0.1561,-0.50191 -0.12171,-1.06442 0.14817,-1.52135 m 1.13559,-0.0389 c -0.2405,0.35295 -0.26353,0.7911 -0.0979,1.18004 0.17594,0.41354 0.53551,0.73818 0.95461,0.89164 0.0172,0.007 0.0339,0.0122 0.0519,0.0185 l 0.0233,0.007 c 0.0243,0.008 0.0489,0.0166 0.0741,0.0222 1.15914,0.22357 1.47294,-0.59532 1.55734,-0.71543 -0.27596,0.39634 -0.73872,0.49133 -1.30651,0.35321 a 1.2832291,1.2832291 0 0 1 -0.13653,-0.0423 1.6806333,1.6806333 0 0 1 -0.16351,-0.0672 1.7277291,1.7277291 0 0 1 -0.28628,-0.17463 c -0.50853,-0.3855 -0.82365,-1.12077 -0.49186,-1.71979"
       id="path1545"
       style="fill:#ffffff;stroke-width:0.264583" />
  </g>
</svg>
