<?xml version="1.0" encoding="UTF-8" standalone="no"?>
<svg
   xmlns:dc="http://purl.org/dc/elements/1.1/"
   xmlns:cc="http://creativecommons.org/ns#"
   xmlns:rdf="http://www.w3.org/1999/02/22-rdf-syntax-ns#"
   xmlns:svg="http://www.w3.org/2000/svg"
   xmlns="http://www.w3.org/2000/svg"
   xmlns:sodipodi="http://sodipodi.sourceforge.net/DTD/sodipodi-0.dtd"
   xmlns:inkscape="http://www.inkscape.org/namespaces/inkscape"
   width="15mm"
   height="15mm"
   viewBox="0 0 15 15"
   version="1.1"
   id="svg1024"
   inkscape:version="1.0.2-2 (e86c870879, 2021-01-15)"
   sodipodi:docname="maven.svg">
  <defs
     id="defs1018" />
  <sodipodi:namedview
     id="base"
     pagecolor="#ffffff"
     bordercolor="#666666"
     borderopacity="1.0"
     inkscape:pageopacity="0.0"
     inkscape:pageshadow="2"
     inkscape:zoom="0.35"
     inkscape:cx="-511.87851"
     inkscape:cy="88.121475"
     inkscape:document-units="mm"
     inkscape:current-layer="layer1"
     inkscape:document-rotation="0"
     showgrid="false"
     inkscape:window-width="1298"
     inkscape:window-height="1040"
     inkscape:window-x="52"
     inkscape:window-y="0"
     inkscape:window-maximized="0" />
  <metadata
     id="metadata1021">
    <rdf:RDF>
      <cc:Work
         rdf:about="">
        <dc:format>image/svg+xml</dc:format>
        <dc:type
           rdf:resource="http://purl.org/dc/dcmitype/StillImage" />
        <dc:title></dc:title>
      </cc:Work>
    </rdf:RDF>
  </metadata>
  <g
     inkscape:label="Capa 1"
     inkscape:groupmode="layer"
     id="layer1"
     transform="translate(-241.26785,-124.85119)">
    <rect
       style="fill:#c71a36;fill-opacity:1;stroke:none;stroke-width:0.128011;stroke-opacity:1"
       id="rect965-8-3-8-2-9-6-5-9-5"
       width="15"
       height="15"
       x="241.26785"
       y="124.85119"
       ry="0" />
    <text
       xml:space="preserve"
       style="font-style:normal;font-weight:normal;font-size:2.38953px;line-height:1.25;font-family:sans-serif;fill:#ffffff;fill-opacity:1;stroke:none;stroke-width:0.128011"
       x="245.18764"
       y="137.64542"
       id="text874-7-4-7-1-5-9-3-0-8-4"><tspan
         sodipodi:role="line"
         id="tspan872-5-8-8-1-9-3-1-2-0-6"
         x="245.18764"
         y="137.64542"
         style="font-style:normal;font-variant:normal;font-weight:normal;font-stretch:normal;font-size:2.38953px;font-family:'Segoe UI';-inkscape-font-specification:'Segoe UI';fill:#ffffff;stroke-width:0.128011">Maven</tspan></text>
    <path
       d="m 246.13006,126.79401 c -0.10601,-0.004 -0.22593,0.0245 -0.28132,0.15527 -0.0537,0.12706 -0.0961,0.40362 -0.11551,0.77326 l 0.41551,0.20079 c -0.007,-0.2504 0.002,-0.48583 0.0258,-0.70192 -0.009,0.10159 -0.019,0.32616 0.002,0.69275 0.006,0.11619 0.0166,0.24631 0.0299,0.39071 4.9e-4,0.008 4.9e-4,0.016 0.002,0.0234 a 15.453351,15.453351 0 0 0 0.10498,0.81947 c 0.0194,0.12502 0.0428,0.25549 0.0662,0.3941 l -0.003,0.003 c 0.005,0.003 0.005,0.006 0.005,0.008 l 0.0102,0.0544 c 0.0102,0.055 0.0204,0.11143 0.0317,0.16783 l 0.0367,0.18789 0.019,0.0982 a 20.969129,20.969129 0 0 0 0.15527,0.7026 c 0.0306,0.12978 0.0632,0.265 0.0975,0.40294 0.0333,0.13113 0.0676,0.26602 0.10499,0.40531 0.0326,0.12299 0.0676,0.24972 0.10294,0.3795 0.001,0.006 0.004,0.0122 0.005,0.0187 a 49.543815,49.543815 0 0 0 0.11552,0.4026 l 0.0166,0.0591 c 0.0265,0.0887 0.0537,0.18108 0.0822,0.2735 a 1.4269336,1.4269336 0 0 1 -0.0995,-0.0459 l -0.0645,-0.2222 c -0.007,-0.0262 -0.0143,-0.0503 -0.0211,-0.0764 l -4.8e-4,-10e-4 -0.001,-6.3e-4 c -0.0296,-0.10192 -0.0578,-0.20622 -0.0873,-0.31121 -0.008,-0.0296 -0.015,-0.0588 -0.0234,-0.0893 l -0.10667,-0.40022 c -0.034,-0.12944 -0.0659,-0.25991 -0.0985,-0.39207 -0.0319,-0.13249 -0.0629,-0.265 -0.0941,-0.39818 -0.0316,-0.13623 -0.0615,-0.27179 -0.09,-0.40871 -0.0289,-0.13455 -0.0547,-0.27112 -0.0815,-0.40532 a 17.094325,17.094325 0 0 1 -0.0717,-0.39751 c -0.001,-0.004 -0.002,-0.0102 -0.004,-0.0139 l 10e-4,-6.3e-4 c -0.0194,-0.13114 -0.0394,-0.26161 -0.0591,-0.39071 a 20.692236,20.692236 0 0 1 -0.0523,-0.40905 9.325011,9.325011 0 0 1 -0.0585,-0.81879 l -0.41448,-0.20045 c -0.001,0.0252 -0.003,0.0509 -0.004,0.0781 -0.004,0.0999 -0.007,0.20554 -0.008,0.31596 a 15.390498,15.390498 0 0 0 0.002,0.39309 c 0.003,0.1257 0.009,0.25651 0.0153,0.39003 0.007,0.11415 0.0143,0.22933 0.0238,0.34722 l 4.9e-4,0.0132 0.002,0.001 c 0.001,0.008 0.002,0.017 0.002,0.0258 0.0112,0.12502 0.0217,0.25107 0.0363,0.37881 a 11.718862,11.718862 0 0 0 0.10295,0.72196 c 0.003,0.0217 0.008,0.0445 0.0118,0.0662 a 7.956174,7.956174 0 0 0 0.18585,0.78821 c 0.0238,0.0805 0.0476,0.15765 0.0713,0.23103 0.0214,0.0618 0.0442,0.124 0.0659,0.18516 0.0527,0.14338 0.1111,0.28267 0.17395,0.41857 l 0.002,0.001 a 0.10803926,0.10803926 0 0 0 0.007,0.017 c 0.0764,0.16477 0.16138,0.32276 0.2565,0.47394 0.003,0.004 0.007,0.0112 0.0102,0.016 -0.15458,-0.0622 -0.42774,-0.0333 -0.4257,-0.0329 0.28199,0.0978 0.52899,0.21744 0.68493,0.3992 -0.0622,0.0679 -0.17768,0.11959 -0.32377,0.16206 0.20181,0.0217 0.31392,-0.0132 0.35503,-0.0312 -0.10532,0.0883 -0.16409,0.2487 -0.21574,0.42129 0.11891,-0.19366 0.23647,-0.32242 0.35096,-0.37168 0.0265,0.0876 0.055,0.17802 0.0829,0.26772 a 50.123422,50.123422 0 0 0 -0.7556,1.5472 0.19025782,0.19025782 0 0 0 0.14609,-0.106 c 0.0442,-0.0958 0.28199,-0.60305 0.64824,-1.31652 0.14031,0.4427 0.29898,0.91019 0.47088,1.39602 a 0.16783457,0.16783457 0 0 0 0.0258,-0.15798 35.243562,35.243562 0 0 1 -0.44439,-1.3403 c 0.0523,-0.10159 0.10736,-0.20792 0.16444,-0.31664 0.0425,0.0136 0.0866,0.0319 0.13217,0.0527 0.069,0.0632 0.11958,0.16682 0.16374,0.28539 a 0.51471533,0.51471533 0 0 0 -0.11347,-0.37304 c 0.45356,0.0877 0.86534,0.0306 1.11675,-0.2752 a 1.348792,1.348792 0 0 0 0.0652,-0.0876 c -0.11042,0.10328 -0.23171,0.13726 -0.44609,0.0927 0.33839,-0.0955 0.51743,-0.20962 0.69138,-0.41449 0.0407,-0.0493 0.0829,-0.10295 0.12605,-0.16308 -0.32038,0.2453 -0.65469,0.27927 -0.98526,0.16749 l -0.0153,-0.006 c 0.31053,0.007 0.74846,-0.16104 1.0505,-0.40396 0.13929,-0.11211 0.27043,-0.24801 0.3975,-0.41109 0.0951,-0.12197 0.18685,-0.2582 0.27859,-0.41313 0.0795,-0.13352 0.159,-0.27995 0.23782,-0.43929 a 0.96148144,0.96148144 0 0 1 -0.25141,0.0465 l -0.0489,0.002 c -0.0164,6.3e-4 -0.0316,0 -0.0496,6.3e-4 0.30067,-0.0673 0.50962,-0.2514 0.67745,-0.49161 -0.0815,0.0398 -0.21336,0.089 -0.36352,0.10091 -0.0197,0.002 -0.0407,0.002 -0.0618,0.002 -0.004,-6.3e-4 -0.009,0 -0.016,-6.3e-4 0.10397,-0.0265 0.19502,-0.0604 0.27519,-0.10498 a 1.1425661,1.1425661 0 0 0 0.12164,-0.0802 c 0.0149,-0.0126 0.0299,-0.0238 0.0442,-0.036 0.0336,-0.0292 0.0656,-0.0611 0.0951,-0.0975 0.009,-0.0115 0.019,-0.0214 0.0272,-0.0333 0.0122,-0.017 0.0248,-0.0333 0.0354,-0.0496 a 2.8497903,2.8497903 0 0 0 0.17327,-0.28131 c 0.005,-0.0106 0.0109,-0.0194 0.0157,-0.0299 0.0136,-0.0285 0.0271,-0.0544 0.0374,-0.0771 0.0143,-0.0336 0.0252,-0.0608 0.0313,-0.0809 a 0.17496924,0.17496924 0 0 1 -0.0367,0.0173 c -0.0927,0.0381 -0.247,0.0635 -0.36897,0.0683 -0.001,0 -0.002,0 -0.004,0.001 h -0.0227 c 0.24461,-0.0727 0.3625,-0.15289 0.48311,-0.27792 a 4.7166951,4.7166951 0 0 0 0.39207,-0.48516 c 0.0897,-0.1257 0.17157,-0.25073 0.23511,-0.36421 a 2.2083496,2.2083496 0 0 0 0.10124,-0.20112 c 0.0224,-0.0534 0.0414,-0.10362 0.0585,-0.15289 -0.15833,0.003 -0.33499,0.004 -0.50283,0 0.16818,0.003 0.34485,0.002 0.50419,-0.002 0.16987,-0.50452 0.0214,-0.76851 0.0214,-0.76851 0,0 -0.17871,-0.41176 -0.47564,-0.28912 -0.14473,0.0595 -0.39818,0.24802 -0.70769,0.53001 l 0.17463,0.49263 a 5.9662814,5.9662814 0 0 1 0.57858,-0.54427 c -0.0873,0.0747 -0.27417,0.24665 -0.54869,0.55854 -0.087,0.0985 -0.18244,0.212 -0.28674,0.33872 -0.006,0.007 -0.0119,0.0129 -0.016,0.0204 a 17.474841,17.474841 0 0 0 -0.56602,0.74303 c -0.0842,0.11551 -0.16919,0.23918 -0.2599,0.36964 h -0.006 c 4.8e-4,0.007 -0.001,0.01 -0.004,0.0109 l -0.0343,0.0516 c -0.0354,0.0527 -0.0724,0.10532 -0.10804,0.15968 l -0.11959,0.18143 c -0.0207,0.0306 -0.0421,0.0615 -0.0632,0.0941 -0.0625,0.0958 -0.12469,0.19467 -0.18958,0.2966 a 33.074622,33.074622 0 0 0 -0.48516,0.79432 32.909846,32.909846 0 0 0 -0.4556,0.79603 c -0.004,0.006 -0.007,0.0136 -0.0116,0.0194 a 67.016955,67.016955 0 0 0 -0.22696,0.41551 l -0.0329,0.0615 c -0.0578,0.10803 -0.11755,0.21812 -0.17667,0.33261 0,0.001 -0.002,0.002 -0.002,0.004 -0.009,0.0163 -0.0169,0.0316 -0.0245,0.0479 -0.0398,0.0754 -0.0741,0.14405 -0.15288,0.29558 a 0.45933672,0.45933672 0 0 0 -0.0792,-0.0618 l 0.11721,-0.22083 c 0.016,-0.0303 0.0326,-0.0601 0.0486,-0.0917 l 0.0136,-0.0262 0.1855,-0.34009 0.0442,-0.0792 v -0.002 l -3.4e-4,-0.002 c 0.0574,-0.10532 0.11721,-0.21064 0.17666,-0.31936 0.0173,-0.0296 0.0347,-0.0588 0.052,-0.09 0.0761,-0.1342 0.15425,-0.26976 0.23239,-0.40667 a 31.149621,31.149621 0 0 1 0.72536,-1.19047 c 0.0839,-0.13114 0.17089,-0.2616 0.25617,-0.39139 0.0313,-0.0469 0.0618,-0.0924 0.0948,-0.1393 a 24.76749,24.76749 0 0 1 0.16307,-0.23816 c 0.002,-0.004 0.006,-0.008 0.009,-0.0126 h 0.002 c 0.0883,-0.12095 0.17564,-0.24224 0.26262,-0.36183 0.0944,-0.12672 0.18822,-0.24971 0.28199,-0.37033 a 10.55761,10.55761 0 0 1 0.60373,-0.70497 l -0.17497,-0.49127 c -0.0204,0.0194 -0.0428,0.0394 -0.0652,0.0604 a 10.997581,10.997581 0 0 0 -0.25753,0.24767 c -0.10023,0.0999 -0.20283,0.20589 -0.30985,0.31767 a 15.639192,15.639192 0 0 0 -0.55446,0.62445 l -0.0102,0.0112 4.8e-4,0.002 c -0.006,0.007 -0.0112,0.015 -0.0183,0.0217 -0.0904,0.10973 -0.18279,0.22049 -0.27214,0.33465 a 13.285771,13.285771 0 0 0 -0.49094,0.6625 c -0.0146,0.0204 -0.0289,0.0428 -0.0432,0.0632 a 8.9890019,8.9890019 0 0 0 -0.47666,0.78243 c -0.0442,0.0839 -0.087,0.16478 -0.1257,0.24292 -0.0326,0.0663 -0.0635,0.1342 -0.0944,0.2008 -0.0713,0.1573 -0.13522,0.31596 -0.1923,0.4753 l 4.8e-4,0.002 a 0.1223086,0.1223086 0 0 0 -0.009,0.0197 c -0.0367,0.10295 -0.069,0.20657 -0.0985,0.31053 -0.0476,0.0591 -0.1026,0.11042 -0.1641,0.15629 a 1.1908101,1.1908101 0 0 0 -0.0445,-0.052 1.7490129,1.7490129 0 0 0 0.27995,-0.75119 2.174375,2.174375 0 0 0 -0.006,-0.50554 c -0.0157,-0.1359 -0.0428,-0.27859 -0.0809,-0.43283 -0.0329,-0.13352 -0.0737,-0.2752 -0.12332,-0.42401 -0.031,0.0629 -0.0747,0.12469 -0.12877,0.18516 l -0.0292,0.0319 c -0.01,0.0109 -0.0204,0.0204 -0.0313,0.0319 0.14745,-0.22899 0.16512,-0.47463 0.12163,-0.72978 a 0.92478887,0.92478887 0 0 1 -0.16648,0.28879 c -0.0112,0.0129 -0.0245,0.0262 -0.0374,0.0394 -0.004,0.002 -0.006,0.006 -0.0112,0.01 0.0489,-0.0815 0.0849,-0.15866 0.10804,-0.23714 a 0.43827246,0.43827246 0 0 0 0.0136,-0.0496 0.9682764,0.9682764 0 0 0 0.0129,-0.0764 l 0.006,-0.0496 a 0.71686427,0.71686427 0 0 0 -4.8e-4,-0.12027 c -0.001,-0.0136 -0.001,-0.0259 -0.004,-0.0384 -0.003,-0.0187 -0.006,-0.0357 -0.009,-0.0523 a 2.5195571,2.5195571 0 0 0 -0.0656,-0.28538 c -0.004,-0.01 -0.005,-0.019 -0.009,-0.0285 -0.009,-0.0268 -0.0163,-0.0506 -0.0245,-0.071 a 0.71346679,0.71346679 0 0 0 -0.0306,-0.071 0.15458448,0.15458448 0 0 1 -0.0118,0.034 c -0.0347,0.0815 -0.11552,0.19366 -0.18924,0.2718 -0.001,0.001 -0.002,0.002 -0.002,0.003 l -0.0136,0.0146 c 0.10804,-0.19706 0.13249,-0.3214 0.1308,-0.47497 a 4.1700436,4.1700436 0 0 0 -0.0544,-0.54869 3.6284883,3.6284883 0 0 0 -0.0788,-0.37508 1.9885339,1.9885339 0 0 0 -0.0611,-0.18957 2.152971,2.152971 0 0 0 -0.0585,-0.13285 8.8945525,8.8945525 0 0 0 4.8e-4,-0.001 c -0.20725,-0.42332 -0.46409,-0.49704 -0.46409,-0.49704 0,0 -0.0917,-0.0374 -0.19774,-0.0418 z m 1.14834,5.36222 0.0109,0.0278 v 6.3e-4 c -0.0204,0.0112 -0.0394,0.0227 -0.0604,0.0329 -0.004,0.001 -0.008,0.004 -0.0133,0.006 a 0.81878807,0.81878807 0 0 0 0.0632,-0.0679 z m -0.20487,0.55242 c 0.0442,0.0462 0.0849,0.0822 0.12027,0.10873 l 0.0238,0.0771 a 0.63396627,0.63396627 0 0 0 -0.0836,0.018 l -0.0102,-0.0333 c -0.008,-0.0285 -0.0164,-0.0578 -0.0258,-0.0873 l -0.007,-0.0248 z m 0.0883,0.29729 a 0.7950059,0.7950059 0 0 1 0.0921,0.003 l 0.0238,0.0778 a 0.26432247,0.26432247 0 0 1 0.0839,-0.001 l -0.11075,0.21302 a 43.366211,43.366211 0 0 1 -0.089,-0.29286 z"
       id="path1100"
       style="fill:#ffffff;stroke-width:0.339746" />
  </g>
</svg>
