<?xml version="1.0" encoding="UTF-8"?>
<svg xmlns="http://www.w3.org/2000/svg" xmlns:xlink="http://www.w3.org/1999/xlink" width="106px" height="57px" viewBox="0 0 105 57" version="1.1">
<g id="surface1">
<path style=" stroke:none;fill-rule:nonzero;fill:rgb(56.078431%,56.078431%,56.078431%);fill-opacity:1;" d="M 79.40625 39.84375 C 74.675781 39.84375 70.835938 35.976562 70.835938 31.207031 C 70.835938 26.4375 74.675781 22.570312 79.40625 22.570312 C 84.140625 22.570312 87.976562 26.4375 87.976562 31.207031 C 87.976562 35.976562 84.140625 39.84375 79.40625 39.84375 Z M 79.40625 36.273438 C 82.183594 36.273438 84.433594 34.003906 84.433594 31.207031 C 84.433594 28.40625 82.183594 26.140625 79.40625 26.140625 C 76.628906 26.140625 74.378906 28.40625 74.378906 31.207031 C 74.378906 34.003906 76.628906 36.273438 79.40625 36.273438 Z M 61.46875 39.84375 C 56.738281 39.84375 52.898438 35.976562 52.898438 31.207031 C 52.898438 26.4375 56.738281 22.570312 61.46875 22.570312 C 66.203125 22.570312 70.039062 26.4375 70.039062 31.207031 C 70.039062 35.976562 66.203125 39.84375 61.46875 39.84375 Z M 61.46875 36.273438 C 64.246094 36.273438 66.496094 34.003906 66.496094 31.207031 C 66.496094 28.40625 64.246094 26.140625 61.46875 26.140625 C 58.691406 26.140625 56.441406 28.40625 56.441406 31.207031 C 56.441406 34.003906 58.691406 36.273438 61.46875 36.273438 Z M 52.101562 31.089844 C 52.101562 35.914062 48.261719 39.84375 43.53125 39.84375 C 38.800781 39.84375 34.960938 35.925781 34.960938 31.101562 C 34.960938 26.277344 38.445312 22.570312 43.53125 22.570312 C 45.40625 22.570312 47.140625 22.972656 48.558594 24.019531 L 48.558594 19.011719 C 48.558594 18.054688 49.390625 17.273438 50.328125 17.273438 C 51.265625 17.273438 52.101562 18.054688 52.101562 19.011719 Z M 43.53125 36.273438 C 46.308594 36.273438 48.558594 34.003906 48.558594 31.207031 C 48.558594 28.40625 46.308594 26.140625 43.53125 26.140625 C 40.753906 26.140625 38.503906 28.40625 38.503906 31.207031 C 38.503906 34.003906 40.753906 36.273438 43.53125 36.273438 Z M 43.53125 36.273438 "/>
<path style=" stroke:none;fill-rule:nonzero;fill:rgb(44.313725%,29.411765%,40.392157%);fill-opacity:1;" d="M 25.59375 39.84375 C 20.859375 39.84375 17.023438 35.976562 17.023438 31.207031 C 17.023438 26.4375 20.859375 22.570312 25.59375 22.570312 C 30.324219 22.570312 34.164062 26.4375 34.164062 31.207031 C 34.164062 35.976562 30.324219 39.84375 25.59375 39.84375 Z M 25.59375 36.273438 C 28.371094 36.273438 30.621094 34.003906 30.621094 31.207031 C 30.621094 28.40625 28.371094 26.140625 25.59375 26.140625 C 22.816406 26.140625 20.566406 28.40625 20.566406 31.207031 C 20.566406 34.003906 22.816406 36.273438 25.59375 36.273438 Z M 25.59375 36.273438 "/>
</g>
</svg>
