<?xml version="1.0" encoding="UTF-8"?>
<svg xmlns="http://www.w3.org/2000/svg" xmlns:xlink="http://www.w3.org/1999/xlink" width="55px" height="57px" viewBox="0 0 55 56" version="1.1">
<g id="surface1">
<path style=" stroke:none;fill-rule:nonzero;fill:rgb(0%,0%,0%);fill-opacity:1;" d="M 54.785156 33.53125 C 54.457031 32.542969 53.59375 31.855469 52.476562 31.691406 C 51.949219 31.613281 51.347656 31.648438 50.632812 31.792969 C 49.386719 32.046875 48.464844 32.144531 47.789062 32.160156 C 50.332031 27.921875 52.402344 23.089844 53.59375 18.539062 C 55.515625 11.179688 54.488281 7.828125 53.285156 6.3125 C 50.105469 2.300781 45.464844 0.144531 39.863281 0.078125 C 36.878906 0.0429688 34.253906 0.625 32.886719 1.042969 C 31.613281 0.820312 30.246094 0.699219 28.808594 0.675781 C 26.113281 0.632812 23.734375 1.210938 21.699219 2.402344 C 20.574219 2.027344 18.769531 1.5 16.683594 1.160156 C 11.773438 0.363281 7.820312 0.984375 4.925781 3.003906 C 1.421875 5.445312 -0.203125 9.691406 0.0976562 15.617188 C 0.195312 17.5 1.261719 23.226562 2.941406 28.65625 C 3.90625 31.78125 4.933594 34.371094 6 36.363281 C 7.507812 39.1875 9.125 40.851562 10.9375 41.449219 C 11.953125 41.78125 13.800781 42.015625 15.742188 40.417969 C 15.988281 40.714844 16.316406 41.007812 16.753906 41.277344 C 17.308594 41.621094 17.984375 41.902344 18.660156 42.070312 C 21.097656 42.671875 23.378906 42.523438 25.328125 41.679688 C 25.339844 42.019531 25.347656 42.347656 25.355469 42.628906 C 25.367188 43.085938 25.382812 43.535156 25.398438 43.957031 C 25.511719 46.792969 25.710938 48.996094 26.289062 50.539062 C 26.320312 50.625 26.363281 50.753906 26.40625 50.890625 C 26.695312 51.765625 27.179688 53.226562 28.410156 54.371094 C 29.683594 55.558594 31.222656 55.921875 32.632812 55.921875 C 33.339844 55.921875 34.015625 55.832031 34.605469 55.707031 C 36.714844 55.257812 39.113281 54.578125 40.84375 52.144531 C 42.484375 49.839844 43.28125 46.371094 43.425781 40.902344 C 43.445312 40.75 43.460938 40.601562 43.476562 40.460938 L 43.511719 40.171875 L 43.898438 40.207031 L 43.996094 40.210938 C 46.148438 40.308594 48.773438 39.859375 50.386719 39.117188 C 51.664062 38.535156 55.75 36.40625 54.785156 33.53125 "/>
<path style=" stroke:none;fill-rule:nonzero;fill:rgb(20%,40.392157%,56.862745%);fill-opacity:1;" d="M 51.113281 34.089844 C 44.722656 35.390625 44.285156 33.253906 44.285156 33.253906 C 51.03125 23.371094 53.851562 10.828125 51.417969 7.757812 C 44.777344 -0.617188 33.285156 3.34375 33.09375 3.445312 L 33.03125 3.457031 C 31.769531 3.199219 30.355469 3.042969 28.769531 3.019531 C 25.875 2.972656 23.683594 3.765625 22.019531 5.011719 C 22.019531 5.011719 1.515625 -3.324219 2.46875 15.5 C 2.671875 19.503906 8.285156 45.804688 14.976562 37.859375 C 17.425781 34.957031 19.789062 32.5 19.789062 32.5 C 20.960938 33.269531 22.367188 33.664062 23.839844 33.523438 L 23.957031 33.425781 C 23.921875 33.785156 23.9375 34.140625 24 34.554688 C 22.277344 36.457031 22.785156 36.792969 19.335938 37.492188 C 15.847656 38.203125 17.898438 39.464844 19.234375 39.796875 C 20.859375 40.195312 24.609375 40.765625 27.144531 37.261719 L 27.042969 37.660156 C 27.71875 38.195312 28.195312 41.132812 28.113281 43.800781 C 28.035156 46.464844 27.980469 48.296875 28.515625 49.726562 C 29.046875 51.15625 29.578125 54.371094 34.109375 53.414062 C 37.894531 52.613281 39.855469 50.535156 40.128906 47.074219 C 40.324219 44.613281 40.761719 44.976562 40.789062 42.773438 L 41.140625 41.734375 C 41.546875 38.394531 41.207031 37.320312 43.539062 37.820312 L 44.105469 37.871094 C 45.820312 37.945312 48.070312 37.597656 49.386719 36.992188 C 52.226562 35.691406 53.914062 33.519531 51.113281 34.089844 "/>
<path style=" stroke:none;fill-rule:nonzero;fill:rgb(100%,100%,100%);fill-opacity:1;" d="M 23.21875 17.292969 C 22.644531 17.210938 22.121094 17.285156 21.859375 17.484375 C 21.710938 17.59375 21.664062 17.722656 21.652344 17.8125 C 21.617188 18.046875 21.785156 18.304688 21.886719 18.4375 C 22.175781 18.816406 22.597656 19.078125 23.015625 19.132812 C 23.078125 19.140625 23.136719 19.144531 23.199219 19.144531 C 23.894531 19.144531 24.527344 18.609375 24.585938 18.214844 C 24.65625 17.71875 23.925781 17.386719 23.21875 17.292969 M 42.292969 17.308594 C 42.238281 16.917969 41.539062 16.808594 40.875 16.898438 C 40.210938 16.992188 39.566406 17.285156 39.621094 17.675781 C 39.664062 17.976562 40.21875 18.496094 40.875 18.496094 C 40.929688 18.496094 40.984375 18.492188 41.042969 18.484375 C 41.480469 18.421875 41.800781 18.148438 41.953125 17.992188 C 42.183594 17.75 42.320312 17.480469 42.292969 17.308594 "/>
<path style=" stroke:none;fill-rule:nonzero;fill:rgb(100%,100%,100%);fill-opacity:1;" d="M 53.238281 33.941406 C 52.996094 33.214844 52.210938 32.980469 50.90625 33.246094 C 47.039062 34.035156 45.65625 33.488281 45.199219 33.15625 C 48.207031 28.636719 50.679688 23.167969 52.015625 18.070312 C 52.644531 15.652344 52.996094 13.410156 53.023438 11.582031 C 53.054688 9.574219 52.710938 8.097656 51.996094 7.199219 C 49.117188 3.566406 44.890625 1.617188 39.773438 1.5625 C 36.257812 1.523438 33.285156 2.414062 32.710938 2.664062 C 31.496094 2.367188 30.175781 2.183594 28.734375 2.160156 C 26.09375 2.117188 23.8125 2.742188 21.925781 4.011719 C 21.101562 3.710938 18.980469 2.992188 16.386719 2.578125 C 11.902344 1.867188 8.339844 2.40625 5.796875 4.1875 C 2.765625 6.308594 1.363281 10.101562 1.632812 15.460938 C 1.726562 17.265625 2.765625 22.8125 4.410156 28.121094 C 6.570312 35.113281 8.921875 39.074219 11.394531 39.886719 C 11.683594 39.980469 12.015625 40.046875 12.382812 40.046875 C 13.285156 40.046875 14.390625 39.648438 15.542969 38.28125 C 16.945312 36.621094 18.398438 35 19.894531 33.417969 C 20.867188 33.933594 21.933594 34.222656 23.027344 34.25 C 23.027344 34.277344 23.03125 34.308594 23.035156 34.335938 C 22.847656 34.554688 22.664062 34.78125 22.480469 35.007812 C 21.726562 35.957031 21.566406 36.15625 19.132812 36.648438 C 18.4375 36.789062 16.597656 37.164062 16.570312 38.4375 C 16.542969 39.828125 18.746094 40.414062 19 40.476562 C 19.875 40.691406 20.71875 40.800781 21.519531 40.800781 C 23.476562 40.800781 25.199219 40.164062 26.574219 38.9375 C 26.53125 43.898438 26.742188 48.785156 27.34375 50.273438 C 27.839844 51.492188 29.046875 54.472656 32.859375 54.472656 C 33.417969 54.472656 34.03125 54.40625 34.710938 54.265625 C 38.691406 53.421875 40.417969 51.6875 41.085938 47.859375 C 41.445312 45.8125 42.058594 40.925781 42.347656 38.308594 C 42.957031 38.496094 43.738281 38.582031 44.585938 38.582031 C 46.355469 38.582031 48.398438 38.210938 49.675781 37.625 C 51.113281 36.964844 53.710938 35.347656 53.238281 33.941406 Z M 43.761719 16.234375 C 43.75 17.007812 43.640625 17.710938 43.527344 18.445312 C 43.40625 19.230469 43.277344 20.046875 43.246094 21.035156 C 43.214844 22 43.335938 23 43.453125 23.96875 C 43.691406 25.925781 43.9375 27.9375 42.988281 29.925781 C 42.832031 29.648438 42.691406 29.367188 42.570312 29.074219 C 42.453125 28.792969 42.199219 28.339844 41.84375 27.714844 C 40.46875 25.28125 37.25 19.582031 38.898438 17.257812 C 39.390625 16.5625 40.636719 15.851562 43.761719 16.234375 Z M 39.972656 3.128906 C 44.554688 3.230469 48.179688 4.921875 50.75 8.160156 C 52.71875 10.644531 50.550781 21.945312 44.273438 31.699219 C 44.210938 31.617188 44.144531 31.539062 44.082031 31.460938 L 44.003906 31.363281 C 45.625 28.71875 45.308594 26.101562 45.027344 23.78125 C 44.910156 22.832031 44.800781 21.933594 44.828125 21.085938 C 44.855469 20.191406 44.976562 19.425781 45.09375 18.683594 C 45.234375 17.765625 45.378906 16.820312 45.339844 15.703125 C 45.371094 15.585938 45.382812 15.449219 45.367188 15.285156 C 45.265625 14.214844 44.027344 11.011719 41.503906 8.113281 C 40.125 6.527344 38.113281 4.753906 35.367188 3.558594 C 36.546875 3.316406 38.164062 3.089844 39.972656 3.128906 Z M 14.324219 37.28125 C 13.058594 38.789062 12.179688 38.5 11.894531 38.402344 C 10.019531 37.785156 7.839844 33.871094 5.921875 27.667969 C 4.261719 22.296875 3.292969 16.898438 3.214844 15.382812 C 2.972656 10.59375 4.148438 7.257812 6.710938 5.464844 C 10.878906 2.542969 17.734375 4.292969 20.488281 5.175781 C 20.449219 5.214844 20.40625 5.253906 20.367188 5.292969 C 15.847656 9.796875 15.957031 17.496094 15.964844 17.964844 C 15.964844 18.148438 15.980469 18.40625 16.003906 18.757812 C 16.082031 20.054688 16.226562 22.464844 15.839844 25.191406 C 15.480469 27.726562 16.269531 30.210938 18.011719 32.003906 C 18.1875 32.1875 18.378906 32.359375 18.574219 32.527344 C 17.796875 33.34375 16.117188 35.15625 14.324219 37.28125 Z M 19.152344 30.921875 C 17.75 29.476562 17.113281 27.46875 17.40625 25.410156 C 17.816406 22.527344 17.664062 20.015625 17.582031 18.664062 C 17.570312 18.476562 17.5625 18.3125 17.554688 18.179688 C 18.214844 17.601562 21.277344 15.984375 23.457031 16.476562 C 24.453125 16.703125 25.058594 17.371094 25.3125 18.523438 C 26.617188 24.484375 25.484375 26.96875 24.574219 28.964844 C 24.386719 29.375 24.210938 29.765625 24.058594 30.167969 L 23.941406 30.480469 C 23.644531 31.265625 23.367188 31.996094 23.195312 32.691406 C 21.707031 32.683594 20.257812 32.058594 19.152344 30.921875 Z M 19.382812 38.960938 C 18.949219 38.851562 18.554688 38.664062 18.328125 38.511719 C 18.519531 38.421875 18.859375 38.300781 19.453125 38.179688 C 22.316406 37.597656 22.757812 37.1875 23.726562 35.976562 C 23.949219 35.699219 24.199219 35.382812 24.546875 35 C 25.066406 34.425781 25.300781 34.523438 25.730469 34.699219 C 26.078125 34.84375 26.417969 35.273438 26.554688 35.746094 C 26.621094 35.972656 26.695312 36.394531 26.457031 36.726562 C 24.4375 39.515625 21.496094 39.480469 19.382812 38.960938 Z M 34.378906 52.734375 C 30.875 53.476562 29.632812 51.710938 28.8125 49.691406 C 28.285156 48.390625 28.027344 42.511719 28.210938 36.023438 C 28.214844 35.9375 28.199219 35.855469 28.175781 35.777344 C 28.15625 35.621094 28.121094 35.46875 28.078125 35.316406 C 27.804688 34.371094 27.136719 33.582031 26.335938 33.253906 C 26.019531 33.125 25.4375 32.886719 24.734375 33.0625 C 24.882812 32.457031 25.144531 31.769531 25.425781 31.023438 L 25.542969 30.710938 C 25.675781 30.359375 25.84375 29.992188 26.019531 29.605469 C 26.972656 27.519531 28.273438 24.65625 26.859375 18.195312 C 26.328125 15.773438 24.558594 14.589844 21.875 14.867188 C 20.265625 15.03125 18.792969 15.671875 18.058594 16.039062 C 17.902344 16.117188 17.757812 16.195312 17.621094 16.269531 C 17.828125 13.828125 18.601562 9.269531 21.496094 6.386719 C 23.320312 4.570312 25.75 3.671875 28.710938 3.722656 C 34.539062 3.816406 38.277344 6.769531 40.390625 9.230469 C 42.207031 11.351562 43.191406 13.492188 43.585938 14.644531 C 40.628906 14.347656 38.621094 14.921875 37.601562 16.359375 C 35.386719 19.488281 38.8125 25.558594 40.460938 28.476562 C 40.765625 29.011719 41.023438 29.472656 41.105469 29.671875 C 41.644531 30.953125 42.339844 31.8125 42.847656 32.4375 C 43 32.628906 43.152344 32.816406 43.265625 32.976562 C 42.371094 33.234375 40.765625 33.820312 40.910156 36.761719 C 40.792969 38.238281 39.953125 45.152344 39.527344 47.59375 C 38.960938 50.820312 37.757812 52.019531 34.378906 52.734375 Z M 49.011719 36.207031 C 48.09375 36.625 46.5625 36.941406 45.109375 37.007812 C 43.5 37.082031 42.683594 36.828125 42.492188 36.675781 C 42.402344 34.839844 43.09375 34.648438 43.824219 34.445312 C 43.9375 34.414062 44.050781 34.382812 44.160156 34.347656 C 44.226562 34.402344 44.300781 34.453125 44.378906 34.507812 C 45.671875 35.347656 47.976562 35.4375 51.226562 34.777344 L 51.265625 34.769531 C 50.824219 35.175781 50.074219 35.71875 49.011719 36.207031 Z M 49.011719 36.207031 "/>
</g>
</svg>
