<?xml version="1.0" encoding="UTF-8"?>
<svg xmlns="http://www.w3.org/2000/svg" xmlns:xlink="http://www.w3.org/1999/xlink" width="57px" height="57px" viewBox="0 0 57 57" version="1.1">
<g id="surface1">
<path style=" stroke:none;fill-rule:nonzero;fill:rgb(100%,42.352941%,21.568627%);fill-opacity:1;" d="M 51.058594 11.078125 C 41.4375 -1.378906 23.535156 -3.679688 11.078125 5.945312 C -1.378906 15.566406 -3.675781 33.464844 5.945312 45.921875 C 15.570312 58.378906 33.46875 60.675781 45.925781 51.050781 C 58.375 41.429688 60.675781 23.535156 51.054688 11.078125 Z M 51.058594 11.078125 "/>
<path style=" stroke:none;fill-rule:nonzero;fill:rgb(100%,100%,100%);fill-opacity:1;" d="M 38.113281 18.15625 L 26.09375 30.269531 L 22.699219 26.78125 C 34.527344 14.953125 35.714844 16.019531 38.113281 18.15625 Z M 38.113281 18.15625 "/>
<path style=" stroke:none;fill-rule:nonzero;fill:rgb(100%,42.352941%,21.568627%);fill-opacity:1;" d="M 26.09375 30.601562 C 25.988281 30.597656 25.886719 30.558594 25.808594 30.484375 L 22.390625 27.0625 C 22.230469 26.898438 22.230469 26.636719 22.390625 26.46875 C 34.050781 14.808594 35.644531 15.355469 38.398438 17.847656 C 38.492188 17.921875 38.542969 18.035156 38.539062 18.15625 C 38.558594 18.273438 38.511719 18.390625 38.421875 18.464844 L 26.40625 30.484375 C 26.320312 30.5625 26.210938 30.605469 26.09375 30.601562 Z M 23.292969 26.777344 L 26.09375 29.582031 L 37.496094 18.179688 C 36.679688 17.160156 35.226562 16.914062 34.121094 17.609375 C 32.054688 18.539062 28.730469 21.363281 23.292969 26.777344 Z M 23.292969 26.777344 "/>
<path style=" stroke:none;fill-rule:nonzero;fill:rgb(100%,100%,100%);fill-opacity:1;" d="M 29.539062 33.621094 L 26.261719 30.269531 L 38.277344 18.394531 C 41.507812 21.554688 36.710938 26.828125 29.539062 33.617188 Z M 29.539062 33.621094 "/>
<path style=" stroke:none;fill-rule:nonzero;fill:rgb(100%,42.352941%,21.568627%);fill-opacity:1;" d="M 29.539062 34.046875 C 29.433594 34.039062 29.335938 33.996094 29.253906 33.929688 L 25.90625 30.652344 C 25.855469 30.527344 25.855469 30.390625 25.90625 30.269531 C 25.871094 30.171875 25.871094 30.0625 25.90625 29.960938 L 37.921875 17.945312 C 38.097656 17.78125 38.367188 17.78125 38.539062 17.945312 C 39.328125 18.667969 39.761719 19.699219 39.726562 20.769531 C 39.726562 23.976562 36.070312 28.015625 29.847656 33.90625 C 29.765625 33.988281 29.65625 34.035156 29.539062 34.046875 Z M 26.878906 30.269531 L 29.5625 32.953125 C 34.3125 28.464844 38.847656 23.832031 38.871094 20.699219 C 38.898438 20.035156 38.679688 19.382812 38.253906 18.871094 Z M 26.878906 30.269531 "/>
<path style=" stroke:none;fill-rule:nonzero;fill:rgb(100%,100%,100%);fill-opacity:1;" d="M 22.792969 26.851562 L 25.167969 29.226562 C 25.199219 29.253906 25.21875 29.292969 25.21875 29.332031 C 25.21875 29.375 25.199219 29.414062 25.167969 29.441406 L 20.15625 30.507812 C 19.949219 30.554688 19.738281 30.453125 19.640625 30.265625 C 19.539062 30.078125 19.578125 29.847656 19.730469 29.699219 L 22.652344 26.804688 C 22.652344 26.804688 22.746094 26.804688 22.792969 26.851562 Z M 22.792969 26.851562 "/>
<path style=" stroke:none;fill-rule:nonzero;fill:rgb(100%,42.352941%,21.568627%);fill-opacity:1;" d="M 20.039062 30.984375 C 19.71875 30.980469 19.421875 30.808594 19.253906 30.53125 C 19.066406 30.179688 19.136719 29.742188 19.421875 29.460938 L 22.320312 26.542969 C 22.535156 26.347656 22.863281 26.347656 23.078125 26.542969 L 25.453125 28.917969 C 25.59375 29.050781 25.648438 29.253906 25.597656 29.441406 C 25.542969 29.625 25.386719 29.773438 25.191406 29.820312 L 20.179688 30.886719 Z M 22.699219 27.375 L 20.015625 30.058594 L 24.457031 29.105469 Z M 22.914062 27.160156 Z M 22.914062 27.160156 "/>
<path style=" stroke:none;fill-rule:nonzero;fill:rgb(100%,100%,100%);fill-opacity:1;" d="M 44.5 11.484375 C 42.78125 9.824219 40.082031 9.757812 38.28125 11.320312 C 36.476562 12.886719 36.167969 15.570312 37.574219 17.503906 C 38.976562 19.4375 41.621094 19.976562 43.671875 18.75 L 40.441406 15.519531 Z M 44.5 11.484375 "/>
<path style=" stroke:none;fill-rule:nonzero;fill:rgb(100%,42.352941%,21.568627%);fill-opacity:1;" d="M 41.296875 19.84375 C 39.277344 19.816406 37.46875 18.585938 36.703125 16.71875 C 35.9375 14.851562 36.363281 12.707031 37.773438 11.269531 C 39.75 9.328125 42.917969 9.328125 44.898438 11.269531 C 44.988281 11.347656 45.039062 11.460938 45.039062 11.578125 C 45.039062 11.699219 44.988281 11.8125 44.898438 11.886719 L 41.050781 15.523438 L 43.972656 18.394531 C 44.066406 18.488281 44.113281 18.621094 44.089844 18.753906 C 44.074219 18.878906 44.003906 18.992188 43.898438 19.0625 C 43.113281 19.550781 42.210938 19.824219 41.289062 19.84375 Z M 41.296875 10.628906 C 39.601562 10.636719 38.089844 11.65625 37.453125 13.210938 C 36.820312 14.765625 37.164062 16.558594 38.351562 17.753906 C 39.558594 18.964844 41.378906 19.316406 42.957031 18.632812 L 40.15625 15.828125 C 40.0625 15.753906 40.007812 15.640625 40.011719 15.519531 C 40.015625 15.410156 40.066406 15.304688 40.15625 15.234375 L 43.859375 11.507812 C 43.125 10.941406 42.222656 10.632812 41.296875 10.625 Z M 41.296875 10.628906 "/>
<path style=" stroke:none;fill-rule:nonzero;fill:rgb(100%,100%,100%);fill-opacity:1;" d="M 44.574219 11.554688 L 40.511719 15.59375 L 43.742188 18.824219 C 44.066406 18.636719 44.371094 18.414062 44.644531 18.15625 C 46.402344 16.285156 46.371094 13.375 44.574219 11.554688 Z M 44.574219 11.554688 "/>
<path style=" stroke:none;fill-rule:nonzero;fill:rgb(100%,42.352941%,21.568627%);fill-opacity:1;" d="M 43.671875 19.179688 C 43.5625 19.183594 43.457031 19.140625 43.386719 19.058594 L 40.15625 15.828125 C 40.0625 15.753906 40.007812 15.640625 40.011719 15.519531 C 40.015625 15.410156 40.066406 15.304688 40.15625 15.234375 L 44.191406 11.269531 C 44.269531 11.152344 44.40625 11.078125 44.546875 11.078125 C 44.691406 11.078125 44.824219 11.152344 44.90625 11.269531 C 45.863281 12.207031 46.402344 13.492188 46.402344 14.832031 C 46.402344 16.171875 45.863281 17.457031 44.90625 18.394531 C 44.625 18.691406 44.304688 18.945312 43.953125 19.15625 C 43.867188 19.199219 43.761719 19.207031 43.667969 19.179688 Z M 41.058594 15.523438 L 43.742188 18.207031 C 43.925781 18.074219 44.101562 17.933594 44.265625 17.777344 C 45.054688 16.992188 45.496094 15.921875 45.5 14.808594 C 45.5 13.8125 45.136719 12.847656 44.476562 12.101562 Z M 41.058594 15.523438 "/>
<path style=" stroke:none;fill-rule:nonzero;fill:rgb(100%,100%,100%);fill-opacity:1;" d="M 38.609375 18.65625 C 37.941406 18.03125 36.902344 18.03125 36.234375 18.65625 L 25.476562 29.390625 L 27.257812 31.195312 L 38.636719 21.222656 C 38.988281 20.886719 39.183594 20.417969 39.179688 19.933594 C 39.171875 19.445312 38.96875 18.984375 38.609375 18.65625 Z M 38.609375 18.65625 "/>
<path style=" stroke:none;fill-rule:nonzero;fill:rgb(100%,42.352941%,21.568627%);fill-opacity:1;" d="M 27.164062 31.625 C 27.058594 31.621094 26.957031 31.578125 26.878906 31.507812 L 25.074219 29.699219 C 24.914062 29.535156 24.914062 29.273438 25.074219 29.105469 L 35.832031 18.394531 C 36.6875 17.542969 38.066406 17.542969 38.921875 18.394531 C 39.347656 18.824219 39.578125 19.40625 39.5625 20.007812 C 39.535156 20.609375 39.269531 21.175781 38.824219 21.578125 L 27.449219 31.550781 C 27.367188 31.609375 27.265625 31.636719 27.164062 31.625 Z M 25.90625 29.390625 L 27.09375 30.601562 L 38.253906 20.886719 C 38.53125 20.648438 38.695312 20.304688 38.707031 19.9375 C 38.71875 19.570312 38.574219 19.214844 38.304688 18.964844 C 37.785156 18.449219 36.945312 18.449219 36.425781 18.964844 Z M 25.90625 29.390625 "/>
<path style=" stroke:none;fill-rule:nonzero;fill:rgb(100%,100%,100%);fill-opacity:1;" d="M 17.140625 41.621094 C 17.078125 41.707031 17.078125 41.824219 17.140625 41.90625 L 17.617188 43.972656 C 17.65625 44.21875 17.539062 44.464844 17.320312 44.597656 C 17.105469 44.722656 16.828125 44.695312 16.640625 44.527344 L 13.390625 41.394531 L 23.53125 31.171875 L 27.046875 31.171875 L 29.421875 33.546875 C 25.714844 36.785156 21.585938 39.503906 17.140625 41.621094 Z M 17.140625 41.621094 "/>
<path style=" stroke:none;fill-rule:nonzero;fill:rgb(100%,42.352941%,21.568627%);fill-opacity:1;" d="M 16.929688 45.113281 C 16.660156 45.109375 16.394531 44.996094 16.214844 44.804688 L 13.105469 41.695312 C 13.011719 41.617188 12.957031 41.503906 12.960938 41.382812 C 12.964844 41.273438 13.015625 41.167969 13.105469 41.101562 L 23.316406 30.863281 C 23.375 30.804688 23.449219 30.761719 23.53125 30.746094 L 27.070312 30.746094 C 27.160156 30.710938 27.261719 30.710938 27.355469 30.746094 L 29.730469 33.121094 C 29.820312 33.207031 29.867188 33.328125 29.847656 33.453125 C 29.851562 33.574219 29.796875 33.6875 29.703125 33.761719 L 29.515625 33.929688 C 25.796875 37.03125 21.703125 39.65625 17.332031 41.742188 L 17.78125 43.664062 C 17.855469 43.964844 17.785156 44.28125 17.597656 44.527344 C 17.40625 44.769531 17.117188 44.917969 16.808594 44.925781 Z M 14.03125 41.382812 L 16.832031 44.210938 C 16.886719 44.257812 16.96875 44.257812 17.023438 44.210938 C 17.058594 44.160156 17.058594 44.09375 17.023438 44.042969 L 16.546875 41.976562 C 16.472656 41.671875 16.617188 41.355469 16.902344 41.21875 C 21.15625 39.160156 25.144531 36.589844 28.777344 33.570312 L 26.832031 31.621094 L 23.648438 31.621094 Z M 17.449219 41.8125 Z M 17.449219 41.8125 "/>
<path style=" stroke:none;fill-rule:nonzero;fill:rgb(100%,100%,100%);fill-opacity:1;" d="M 10.941406 43.832031 L 13.320312 41.457031 L 16.976562 45.113281 L 11.15625 44.710938 C 10.953125 44.695312 10.777344 44.550781 10.730469 44.347656 C 10.679688 44.148438 10.769531 43.9375 10.945312 43.832031 Z M 10.941406 43.832031 "/>
<path style=" stroke:none;fill-rule:nonzero;fill:rgb(100%,42.352941%,21.568627%);fill-opacity:1;" d="M 17.046875 45.46875 L 11.25 45.066406 C 10.90625 45.035156 10.613281 44.800781 10.492188 44.484375 C 10.371094 44.171875 10.445312 43.796875 10.679688 43.546875 L 13.054688 41.171875 C 13.222656 41.011719 13.484375 41.011719 13.652344 41.171875 L 17.285156 44.804688 C 17.386719 44.945312 17.386719 45.136719 17.285156 45.28125 C 17.230469 45.367188 17.144531 45.433594 17.046875 45.46875 Z M 11.25 44.140625 L 16 44.449219 L 13.390625 42.003906 Z M 11.25 44.140625 "/>
<path style=" stroke:none;fill-rule:nonzero;fill:rgb(100%,100%,100%);fill-opacity:1;" d="M 27.378906 31.457031 L 22.578125 32.195312 L 25.359375 29.441406 Z M 27.378906 31.457031 "/>
<path style=" stroke:none;fill-rule:nonzero;fill:rgb(100%,42.352941%,21.568627%);fill-opacity:1;" d="M 22.578125 32.644531 C 22.417969 32.648438 22.269531 32.554688 22.199219 32.40625 C 22.097656 32.265625 22.097656 32.074219 22.199219 31.933594 L 24.953125 29.152344 C 25.128906 28.992188 25.398438 28.992188 25.570312 29.152344 L 27.589844 31.171875 C 27.675781 31.300781 27.675781 31.46875 27.589844 31.597656 C 27.550781 31.757812 27.421875 31.878906 27.257812 31.910156 L 22.507812 32.644531 Z M 25.359375 30.054688 L 23.816406 31.597656 L 26.476562 31.195312 Z M 25.359375 30.054688 "/>
<path style=" stroke:none;fill-rule:nonzero;fill:rgb(100%,100%,100%);fill-opacity:1;" d="M 27.378906 31.457031 L 24.027344 31.882812 C 23.84375 31.925781 23.65625 31.84375 23.5625 31.679688 C 23.46875 31.515625 23.496094 31.308594 23.625 31.171875 L 25.359375 29.4375 Z M 27.378906 31.457031 "/>
<path style=" stroke:none;fill-rule:nonzero;fill:rgb(100%,42.352941%,21.568627%);fill-opacity:1;" d="M 23.933594 32.335938 C 23.617188 32.335938 23.328125 32.160156 23.175781 31.886719 C 22.988281 31.550781 23.046875 31.132812 23.316406 30.863281 L 25.050781 29.128906 C 25.222656 28.964844 25.492188 28.964844 25.667969 29.128906 L 27.6875 31.148438 C 27.808594 31.265625 27.851562 31.441406 27.796875 31.601562 C 27.738281 31.761719 27.59375 31.871094 27.425781 31.886719 L 24.101562 32.3125 Z M 23.933594 31.457031 L 26.453125 31.148438 L 25.335938 30.03125 L 23.910156 31.457031 Z M 44.597656 14.285156 C 44.503906 14.132812 44.308594 14.070312 44.144531 14.144531 C 44.066406 14.183594 44.003906 14.253906 43.980469 14.339844 C 43.953125 14.425781 43.960938 14.515625 44.003906 14.59375 C 44.167969 14.945312 44.121094 15.359375 43.882812 15.664062 C 43.820312 15.722656 43.792969 15.804688 43.792969 15.890625 C 43.796875 15.972656 43.828125 16.054688 43.882812 16.113281 C 43.945312 16.140625 44.011719 16.140625 44.074219 16.113281 C 44.1875 16.144531 44.304688 16.105469 44.382812 16.019531 C 44.78125 15.53125 44.863281 14.855469 44.597656 14.285156 Z M 44.597656 14.285156 "/>
</g>
</svg>
