<?xml version="1.0" encoding="UTF-8" standalone="no"?>
<svg
   xmlns:dc="http://purl.org/dc/elements/1.1/"
   xmlns:cc="http://creativecommons.org/ns#"
   xmlns:rdf="http://www.w3.org/1999/02/22-rdf-syntax-ns#"
   xmlns:svg="http://www.w3.org/2000/svg"
   xmlns="http://www.w3.org/2000/svg"
   xmlns:sodipodi="http://sodipodi.sourceforge.net/DTD/sodipodi-0.dtd"
   xmlns:inkscape="http://www.inkscape.org/namespaces/inkscape"
   width="15mm"
   height="15mm"
   viewBox="0 0 15 15"
   version="1.1"
   id="svg1160"
   inkscape:version="1.0.2-2 (e86c870879, 2021-01-15)"
   sodipodi:docname="python.svg">
  <defs
     id="defs1154" />
  <sodipodi:namedview
     id="base"
     pagecolor="#ffffff"
     bordercolor="#666666"
     borderopacity="1.0"
     inkscape:pageopacity="0.0"
     inkscape:pageshadow="2"
     inkscape:zoom="1.979899"
     inkscape:cx="91.129041"
     inkscape:cy="123.02595"
     inkscape:document-units="mm"
     inkscape:current-layer="layer1"
     inkscape:document-rotation="0"
     showgrid="false"
     fit-margin-top="0"
     fit-margin-left="0"
     fit-margin-right="0"
     fit-margin-bottom="0"
     inkscape:window-width="1920"
     inkscape:window-height="1017"
     inkscape:window-x="-8"
     inkscape:window-y="-8"
     inkscape:window-maximized="1" />
  <metadata
     id="metadata1157">
    <rdf:RDF>
      <cc:Work
         rdf:about="">
        <dc:format>image/svg+xml</dc:format>
        <dc:type
           rdf:resource="http://purl.org/dc/dcmitype/StillImage" />
        <dc:title></dc:title>
      </cc:Work>
    </rdf:RDF>
  </metadata>
  <g
     inkscape:label="Capa 1"
     inkscape:groupmode="layer"
     id="layer1"
     transform="translate(-43.648297,-32.305079)">
    <g
       id="g1137"
       transform="matrix(0.48382,0,0,0.48382,-31.351702,20.796459)">
      <rect
         style="fill:#3776ab;fill-opacity:1;stroke:none;stroke-width:0.264583;stroke-opacity:1"
         id="rect965-8-3-8"
         width="31.003265"
         height="31.003265"
         x="155.01633"
         y="23.786987"
         ry="0" />
      <path
         d="m 171.89,27.8413 0.54859,0.121914 0.44496,0.158476 0.35962,0.182847 0.27429,0.195057 0.20733,0.207245 0.15229,0.207245 0.0974,0.20114 0.061,0.182847 0.0245,0.158474 0.0115,0.121915 -0.007,0.07925 v 3.254898 l -0.0304,0.384004 -0.0792,0.335242 -0.12809,0.280386 -0.1585,0.23162 -0.18293,0.188954 -0.20111,0.152393 -0.21332,0.115809 -0.21332,0.08534 -0.20112,0.06096 -0.18292,0.04266 -0.1585,0.02436 -0.12808,0.01221 h -3.6389 l -0.42057,0.03047 -0.35964,0.08534 -0.30477,0.134101 -0.2499,0.164579 -0.20112,0.195059 -0.16448,0.213325 -0.12187,0.219432 -0.0914,0.225536 -0.061,0.213327 -0.0426,0.195057 -0.0245,0.16458 -0.0115,0.127996 v 1.865167 h -1.35926 l -0.12809,-0.01819 -0.1707,-0.04266 -0.19512,-0.07315 -0.21333,-0.109726 -0.21954,-0.158475 -0.21933,-0.219432 -0.21332,-0.280384 -0.19512,-0.359622 -0.17071,-0.444959 -0.12809,-0.536387 -0.0852,-0.640006 -0.0304,-0.749726 0.0366,-0.743629 0.0975,-0.633912 0.14628,-0.530292 0.19513,-0.432768 0.21956,-0.347432 0.24382,-0.268195 0.25599,-0.201139 0.25601,-0.146288 0.24381,-0.09752 0.21932,-0.06096 0.19512,-0.03047 0.14629,-0.0063 h 0.0975 l 0.0365,0.0063 h 4.97378 V 31.02928 h -3.55965 l -0.007,-1.676211 -0.0116,-0.225536 0.0304,-0.207245 0.0671,-0.188953 0.10366,-0.17066 0.15228,-0.158475 0.18891,-0.140184 0.23162,-0.121913 0.26818,-0.109728 0.31086,-0.09144 0.35353,-0.07315 0.39012,-0.06096 0.43275,-0.03658 0.46935,-0.02436 0.512,-0.01221 0.77411,0.03047 z m -3.84004,1.206873 -0.1403,0.201141 -0.0488,0.249906 0.0488,0.249908 0.1403,0.207244 0.20112,0.1341 0.24991,0.05486 0.24991,-0.05486 0.20111,-0.1341 0.1403,-0.207244 0.0488,-0.249908 -0.0488,-0.249906 -0.1403,-0.201141 -0.20111,-0.134101 -0.24991,-0.05485 -0.24991,0.05485 z m 7.97878,2.407649 0.1707,0.03659 0.19513,0.07314 0.21333,0.109704 0.21931,0.164579 0.21933,0.213327 0.21332,0.286481 0.19512,0.359623 0.17072,0.444959 0.12809,0.536387 0.0852,0.633913 0.0304,0.749723 -0.0366,0.749725 -0.0974,0.633912 -0.14629,0.524197 -0.19513,0.432767 -0.21931,0.347434 -0.24382,0.274289 -0.25601,0.201139 -0.25598,0.146287 -0.24381,0.09752 -0.21932,0.05485 -0.19512,0.03047 -0.14629,0.01221 -0.0975,-0.0063 h -5.01036 v 0.499848 h 3.55968 l 0.007,1.682307 0.0115,0.219431 -0.0304,0.207245 -0.067,0.188953 -0.10367,0.176766 -0.15227,0.152392 -0.18891,0.146288 -0.23165,0.121914 -0.26817,0.103621 -0.31088,0.09144 -0.35352,0.07925 -0.39008,0.05485 -0.4328,0.04266 -0.46933,0.02438 -0.51202,0.0059 -0.7741,-0.02436 -0.65219,-0.08534 -0.54859,-0.121914 -0.44494,-0.152391 -0.35964,-0.182849 -0.27427,-0.20114 -0.20735,-0.207243 -0.15226,-0.207246 -0.0975,-0.201139 -0.061,-0.182872 -0.0245,-0.15237 -0.0115,-0.121913 0.007,-0.07925 v -3.254899 l 0.0304,-0.390101 0.0793,-0.329147 0.12808,-0.280384 0.1585,-0.231623 0.18292,-0.195057 0.20111,-0.146288 0.21333,-0.121913 0.21333,-0.08534 0.20111,-0.06096 0.18292,-0.03655 0.15851,-0.02438 0.12808,-0.01221 0.0792,-0.0063 h 3.55965 l 0.42058,-0.03047 0.35964,-0.08534 0.30475,-0.127996 0.24992,-0.170662 0.20112,-0.195057 0.16448,-0.213328 0.12187,-0.21943 0.0914,-0.219432 0.061,-0.213325 0.0426,-0.195059 0.0245,-0.170661 0.0116,-0.127995 v -1.865168 h 1.27393 l 0.0851,0.0063 z m -3.94368,8.685824 -0.14031,0.20114 -0.0488,0.249907 0.0488,0.249907 0.14031,0.201141 0.20111,0.140182 0.24991,0.04876 0.24992,-0.04876 0.20112,-0.140182 0.14028,-0.201141 0.0488,-0.249907 -0.0488,-0.249907 -0.14028,-0.20114 -0.20112,-0.140183 -0.24992,-0.04877 -0.24991,0.04877 z"
         id="path1102"
         style="fill:#ffffff;stroke-width:0.60953" />
      <text
         xml:space="preserve"
         style="font-style:normal;font-weight:normal;font-size:4.93889px;line-height:1.25;font-family:sans-serif;fill:#ffffff;fill-opacity:1;stroke:none;stroke-width:0.264583"
         x="162.80698"
         y="50.231182"
         id="text874-7-4-7-1"><tspan
           sodipodi:role="line"
           id="tspan872-5-8-8-1"
           x="162.80698"
           y="50.231182"
           style="font-style:normal;font-variant:normal;font-weight:normal;font-stretch:normal;font-size:4.93889px;font-family:'Segoe UI';-inkscape-font-specification:'Segoe UI';fill:#ffffff;stroke-width:0.264583">Python</tspan></text>
    </g>
  </g>
</svg>
