<?xml version="1.0" encoding="UTF-8"?>
<svg xmlns="http://www.w3.org/2000/svg" xmlns:xlink="http://www.w3.org/1999/xlink" width="57px" height="57px" viewBox="0 0 57 57" version="1.1">
<g id="surface1">
<path style=" stroke:none;fill-rule:nonzero;fill:rgb(38.823529%,39.215686%,40%);fill-opacity:1;" d="M 9.53125 43.460938 C 9.53125 44.265625 8.863281 45.019531 7.972656 45.019531 C 7.304688 45.019531 6.722656 45.199219 6.191406 45.601562 C 5.609375 45.957031 5.210938 46.445312 4.855469 47.023438 C 4.140625 47.960938 3.785156 49.074219 3.652344 49.472656 L 3.652344 55.039062 C 3.652344 55.886719 2.9375 56.597656 2.046875 56.597656 C 1.203125 56.597656 0.488281 55.886719 0.488281 55.039062 L 0.488281 43.460938 C 0.488281 42.617188 1.203125 41.949219 2.046875 41.949219 C 2.9375 41.949219 3.652344 42.617188 3.652344 43.460938 L 3.652344 43.683594 C 3.828125 43.460938 4.050781 43.238281 4.273438 43.105469 C 5.253906 42.484375 6.5 41.949219 7.972656 41.949219 C 8.863281 41.949219 9.53125 42.617188 9.53125 43.460938 Z M 8.683594 49.25 C 8.726562 45.242188 11.800781 41.902344 15.851562 41.902344 C 19.683594 41.902344 22.667969 44.753906 22.933594 48.71875 L 22.933594 48.851562 C 22.933594 48.894531 22.933594 49.074219 22.890625 49.117188 C 22.800781 49.832031 22.175781 50.277344 21.375 50.277344 L 12.023438 50.277344 C 12.15625 50.945312 12.511719 51.699219 13.003906 52.191406 C 13.625 52.902344 14.785156 53.4375 15.808594 53.527344 C 16.878906 53.617188 18.125 53.347656 18.835938 52.8125 C 19.460938 52.191406 20.664062 52.234375 21.019531 52.726562 C 21.417969 53.125 21.6875 54.015625 21.019531 54.640625 C 19.59375 55.976562 17.855469 56.554688 15.765625 56.554688 C 11.800781 56.554688 8.683594 53.214844 8.683594 49.25 Z M 11.84375 47.828125 L 20.128906 47.828125 C 19.816406 46.667969 18.347656 44.933594 15.808594 44.710938 C 13.316406 44.796875 12.113281 46.625 11.84375 47.828125 Z M 37.808594 54.996094 C 37.808594 55.84375 37.09375 56.597656 36.203125 56.597656 C 35.402344 56.597656 34.777344 56.019531 34.644531 55.351562 C 33.53125 56.109375 32.105469 56.597656 30.636719 56.597656 C 26.675781 56.597656 23.511719 53.257812 23.511719 49.296875 C 23.511719 45.289062 26.675781 41.949219 30.636719 41.949219 C 32.0625 41.949219 33.488281 42.4375 34.554688 43.195312 L 34.554688 37.628906 C 34.554688 36.78125 35.269531 36.027344 36.160156 36.027344 C 37.050781 36.027344 37.761719 36.738281 37.761719 37.628906 L 37.761719 49.296875 Z M 30.683594 45.109375 C 29.613281 45.109375 28.679688 45.554688 27.921875 46.3125 C 27.207031 47.023438 26.761719 48.09375 26.761719 49.25 C 26.761719 50.363281 27.207031 51.433594 27.921875 52.144531 C 28.632812 52.902344 29.613281 53.347656 30.683594 53.347656 C 31.75 53.347656 32.6875 52.902344 33.441406 52.144531 C 34.15625 51.433594 34.601562 50.363281 34.601562 49.25 C 34.601562 48.09375 34.15625 47.023438 33.441406 46.3125 C 32.730469 45.554688 31.796875 45.109375 30.683594 45.109375 Z M 43.417969 38.253906 C 43.417969 39.144531 42.75 39.855469 41.816406 39.855469 C 40.925781 39.855469 40.210938 39.144531 40.210938 38.253906 L 40.210938 37.628906 C 40.210938 36.738281 40.925781 36.027344 41.816406 36.027344 C 42.707031 36.027344 43.417969 36.738281 43.417969 37.628906 Z M 43.417969 43.550781 L 43.417969 54.996094 C 43.417969 55.886719 42.75 56.597656 41.816406 56.597656 C 40.925781 56.597656 40.210938 55.886719 40.210938 54.996094 L 40.210938 43.550781 C 40.210938 42.617188 40.925781 41.949219 41.816406 41.949219 C 42.75 41.949219 43.417969 42.617188 43.417969 43.550781 Z M 45.421875 52.367188 C 45.957031 51.65625 46.980469 51.566406 47.605469 52.144531 C 48.359375 52.769531 49.695312 53.480469 50.808594 53.4375 C 51.613281 53.4375 52.324219 53.171875 52.8125 52.859375 C 53.214844 52.503906 53.347656 52.234375 53.347656 51.96875 C 53.347656 51.835938 53.304688 51.746094 53.257812 51.65625 C 53.214844 51.566406 53.125 51.433594 52.859375 51.300781 C 52.457031 50.988281 51.566406 50.675781 50.5 50.5 L 50.453125 50.5 C 49.5625 50.320312 48.671875 50.097656 47.914062 49.742188 C 47.113281 49.339844 46.402344 48.851562 45.910156 48.050781 C 45.601562 47.515625 45.421875 46.890625 45.421875 46.222656 C 45.421875 44.886719 46.179688 43.730469 47.160156 43.015625 C 48.183594 42.304688 49.429688 41.949219 50.765625 41.949219 C 52.769531 41.949219 54.238281 42.929688 55.175781 43.550781 C 55.886719 44.042969 56.066406 44.976562 55.664062 45.734375 C 55.175781 46.445312 54.238281 46.625 53.480469 46.132812 C 52.546875 45.511719 51.699219 45.066406 50.765625 45.066406 C 50.054688 45.066406 49.386719 45.289062 48.984375 45.601562 C 48.582031 45.867188 48.496094 46.132812 48.496094 46.269531 C 48.496094 46.402344 48.496094 46.402344 48.539062 46.492188 C 48.582031 46.535156 48.671875 46.667969 48.851562 46.800781 C 49.25 47.070312 50.007812 47.335938 50.988281 47.515625 L 51.03125 47.558594 L 51.078125 47.558594 C 52.058594 47.738281 52.949219 48.003906 53.792969 48.40625 C 54.59375 48.761719 55.398438 49.296875 55.886719 50.140625 C 56.242188 50.722656 56.464844 51.390625 56.464844 52.058594 C 56.464844 53.480469 55.664062 54.683594 54.640625 55.441406 C 53.570312 56.152344 52.28125 56.597656 50.808594 56.597656 C 48.539062 56.554688 46.757812 55.53125 45.601562 54.59375 C 44.976562 54.015625 44.886719 53.035156 45.421875 52.367188 Z M 45.421875 52.367188 "/>
<path style=" stroke:none;fill-rule:nonzero;fill:rgb(64.313725%,11.764706%,6.666667%);fill-opacity:1;" d="M 47.605469 27.921875 C 45.378906 29.078125 33.933594 33.800781 31.484375 35.046875 C 29.035156 36.335938 27.699219 36.292969 25.785156 35.402344 C 23.824219 34.46875 11.667969 29.570312 9.441406 28.5 C 8.328125 27.964844 7.75 27.519531 7.75 27.121094 L 7.75 22.933594 C 7.75 22.933594 23.601562 19.460938 26.183594 18.570312 C 28.765625 17.632812 29.65625 17.632812 31.796875 18.4375 C 33.976562 19.238281 47.023438 21.597656 49.164062 22.355469 L 49.164062 26.496094 C 49.207031 26.898438 48.71875 27.34375 47.605469 27.921875 Z M 47.605469 27.921875 "/>
<path style=" stroke:none;fill-rule:nonzero;fill:rgb(84.705882%,17.254902%,12.54902%);fill-opacity:1;" d="M 47.605469 23.734375 C 45.378906 24.894531 33.933594 29.613281 31.484375 30.859375 C 29.035156 32.152344 27.699219 32.105469 25.785156 31.214844 C 23.824219 30.28125 11.667969 25.382812 9.441406 24.3125 C 7.257812 23.246094 7.214844 22.53125 9.351562 21.6875 C 11.488281 20.839844 23.644531 16.074219 26.183594 15.183594 C 28.765625 14.25 29.65625 14.25 31.796875 15.050781 C 33.976562 15.851562 45.378906 20.394531 47.515625 21.152344 C 49.742188 21.953125 49.832031 22.578125 47.605469 23.734375 Z M 47.605469 23.734375 "/>
<path style=" stroke:none;fill-rule:nonzero;fill:rgb(64.313725%,11.764706%,6.666667%);fill-opacity:1;" d="M 47.605469 21.109375 C 45.378906 22.265625 33.933594 26.984375 31.484375 28.234375 C 29.035156 29.523438 27.699219 29.480469 25.785156 28.589844 C 23.824219 27.652344 11.667969 22.710938 9.441406 21.6875 C 8.328125 21.152344 7.75 20.707031 7.75 20.304688 L 7.75 16.121094 C 7.75 16.121094 23.601562 12.648438 26.183594 11.757812 C 28.765625 10.820312 29.65625 10.820312 31.796875 11.621094 C 33.976562 12.425781 47.023438 14.785156 49.164062 15.542969 L 49.164062 19.683594 C 49.207031 20.082031 48.71875 20.527344 47.605469 21.109375 Z M 47.605469 21.109375 "/>
<path style=" stroke:none;fill-rule:nonzero;fill:rgb(84.705882%,17.254902%,12.54902%);fill-opacity:1;" d="M 47.605469 16.921875 C 45.378906 18.078125 33.933594 22.800781 31.484375 24.046875 C 29.035156 25.339844 27.699219 25.292969 25.785156 24.402344 C 23.867188 23.46875 11.667969 18.570312 9.484375 17.5 C 7.304688 16.433594 7.257812 15.71875 9.394531 14.875 C 11.535156 14.027344 23.691406 9.261719 26.230469 8.371094 C 28.8125 7.4375 29.703125 7.4375 31.839844 8.238281 C 34.023438 9.039062 45.421875 13.582031 47.558594 14.339844 C 49.742188 15.097656 49.832031 15.765625 47.605469 16.921875 Z M 47.605469 16.921875 "/>
<path style=" stroke:none;fill-rule:nonzero;fill:rgb(64.313725%,11.764706%,6.666667%);fill-opacity:1;" d="M 47.605469 14.027344 C 45.378906 15.183594 33.933594 19.90625 31.484375 21.152344 C 29.035156 22.445312 27.699219 22.398438 25.785156 21.507812 C 23.867188 20.574219 11.667969 15.675781 9.484375 14.605469 C 8.371094 14.070312 7.792969 13.625 7.792969 13.226562 L 7.792969 9.039062 C 7.792969 9.039062 23.644531 5.566406 26.230469 4.675781 C 28.8125 3.742188 29.703125 3.742188 31.839844 4.542969 C 34.023438 5.34375 47.070312 7.703125 49.207031 8.460938 L 49.207031 12.601562 C 49.207031 12.957031 48.71875 13.449219 47.605469 14.027344 Z M 47.605469 14.027344 "/>
<path style=" stroke:none;fill-rule:nonzero;fill:rgb(84.705882%,17.254902%,12.54902%);fill-opacity:1;" d="M 47.605469 9.839844 C 45.378906 11 33.933594 15.71875 31.484375 16.964844 C 29.035156 18.257812 27.699219 18.214844 25.785156 17.324219 C 23.867188 16.386719 11.667969 11.488281 9.484375 10.421875 C 7.304688 9.351562 7.257812 8.640625 9.394531 7.792969 C 11.535156 6.945312 23.691406 2.183594 26.230469 1.292969 C 28.8125 0.355469 29.703125 0.355469 31.839844 1.15625 C 34.023438 1.960938 45.421875 6.5 47.558594 7.257812 C 49.742188 8.015625 49.832031 8.683594 47.605469 9.839844 Z M 47.605469 9.839844 "/>
<path style=" stroke:none;fill-rule:nonzero;fill:rgb(100%,100%,100%);fill-opacity:1;" d="M 33.933594 5.789062 L 30.324219 6.144531 L 29.523438 8.105469 L 28.234375 5.921875 L 24.089844 5.566406 L 27.164062 4.453125 L 26.273438 2.761719 L 29.167969 3.875 L 31.882812 2.984375 L 31.128906 4.765625 Z M 29.300781 15.183594 L 22.621094 12.378906 L 32.242188 10.910156 Z M 29.300781 15.183594 "/>
<path style=" stroke:none;fill-rule:nonzero;fill:rgb(100%,100%,100%);fill-opacity:1;" d="M 25.160156 8.863281 C 25.160156 7.753906 22.867188 6.859375 20.039062 6.859375 C 17.210938 6.859375 14.917969 7.753906 14.917969 8.863281 C 14.917969 9.96875 17.210938 10.867188 20.039062 10.867188 C 22.867188 10.867188 25.160156 9.96875 25.160156 8.863281 Z M 25.160156 8.863281 "/>
<path style=" stroke:none;fill-rule:nonzero;fill:rgb(47.843137%,4.705882%,0%);fill-opacity:1;" d="M 38.164062 6.324219 L 43.863281 8.550781 L 38.164062 10.820312 Z M 38.164062 6.324219 "/>
<path style=" stroke:none;fill-rule:nonzero;fill:rgb(67.843137%,12.941176%,8.235294%);fill-opacity:1;" d="M 31.882812 8.816406 L 38.164062 6.324219 L 38.164062 10.820312 L 37.585938 11.042969 Z M 31.882812 8.816406 "/>
</g>
</svg>
