<?xml version="1.0" encoding="UTF-8"?>
<svg xmlns="http://www.w3.org/2000/svg" xmlns:xlink="http://www.w3.org/1999/xlink" width="57px" height="57px" viewBox="0 0 57 52" version="1.1">
<defs>
<radialGradient id="radial0" gradientUnits="userSpaceOnUse" cx="443.062" cy="1438.7802" fx="443.062" fy="1438.7802" r="280.586" gradientTransform="matrix(6.4314,0,0,-6.4314,-2580.3687,11395.7158)">
<stop offset="0" style="stop-color:rgb(16.862745%,16.862745%,16.862745%);stop-opacity:1;"/>
<stop offset="1" style="stop-color:rgb(51.372549%,51.372549%,51.372549%);stop-opacity:1;"/>
</radialGradient>
<radialGradient id="radial1" gradientUnits="userSpaceOnUse" cx="517.438" cy="1793.2312" fx="517.438" fy="1793.2312" r="271.138" gradientTransform="matrix(0.147438,0,0,-0.14589,-59.154205,258.503001)">
<stop offset="0" style="stop-color:rgb(100%,100%,100%);stop-opacity:0.8;"/>
<stop offset="1" style="stop-color:rgb(100%,100%,100%);stop-opacity:0.2;"/>
</radialGradient>
<linearGradient id="linear0" gradientUnits="userSpaceOnUse" x1="575.7238" y1="1584.0801" x2="703.5588" y2="1734.3831" gradientTransform="matrix(6.4314,0,0,-6.4314,-2580.3687,11395.7158)">
<stop offset="0" style="stop-color:rgb(13.333333%,46.666667%,8.627451%);stop-opacity:1;"/>
<stop offset="1" style="stop-color:rgb(12.54902%,69.803922%,15.686275%);stop-opacity:1;"/>
</linearGradient>
<radialGradient id="radial2" gradientUnits="userSpaceOnUse" cx="710.5722" cy="1585.0076" fx="710.5722" fy="1585.0076" r="88.692" gradientTransform="matrix(0.115871,-0.0902186,-0.259313,-0.326091,363.234515,600.572875)">
<stop offset="0" style="stop-color:rgb(100%,100%,100%);stop-opacity:0.4;"/>
<stop offset="0.998" style="stop-color:rgb(100%,100%,100%);stop-opacity:0;"/>
</radialGradient>
</defs>
<g id="surface1">
<path style="fill-rule:nonzero;fill:url(#radial0);stroke-width:6.973;stroke-linecap:butt;stroke-linejoin:miter;stroke:rgb(17.254902%,17.254902%,17.254902%);stroke-opacity:1;stroke-miterlimit:10;" d="M 1876.216447 2288.618126 L 388.670395 2246.256142 C 208.563158 2238.506999 0.851974 2024.286238 3.578289 1845.539333 L 10.564474 350.815696 C 13.120395 171.379979 217.082895 1.587639 396.508553 3.481874 L 1864.118421 57.553674 C 2042.8625 60.136722 2248.017763 225.451778 2245.461842 404.198683 L 2245.461842 1930.435503 C 2245.461842 2125.197304 2090.573026 2288.618126 1876.216447 2288.618126 Z M 1876.216447 2288.618126 " transform="matrix(0.0229247,0,0,0.022684,0,0.00304856)"/>
<path style="fill-rule:nonzero;fill:rgb(100%,100%,100%);fill-opacity:1;stroke-width:3.486;stroke-linecap:butt;stroke-linejoin:miter;stroke:rgb(17.254902%,17.254902%,17.254902%);stroke-opacity:1;stroke-miterlimit:10;" d="M 131.544737 1728.441168 L 368.223026 1671.269711 C 377.765132 1699.511033 415.763158 1769.597729 449.160526 1797.839051 C 482.557895 1826.252577 576.445395 1841.57866 638.980263 1835.723752 C 701.344737 1830.041047 732.186184 1775.280434 735.423684 1734.812686 C 737.979605 1694.861547 718.725 1666.620225 681.919737 1648.022281 C 645.284868 1629.424337 604.219737 1618.403334 546.285526 1601.183015 C 488.351316 1584.479306 384.921711 1561.231877 303.132237 1505.954655 C 222.194737 1450.677432 202.258553 1323.935889 201.576974 1278.818655 C 201.065789 1233.873624 211.971053 1167.575398 240.767763 1119.358506 C 269.734868 1070.452802 364.303947 965.064454 552.078947 965.064454 C 739.853947 965.064454 818.405921 1024.818958 861.345395 1059.431798 C 904.455263 1094.216842 973.294737 1218.375337 973.294737 1218.375337 L 757.234211 1296.211176 C 720.428947 1188.75639 652.441447 1152.077111 559.065132 1152.077111 C 465.859211 1152.077111 444.048684 1211.315007 444.048684 1246.616659 C 444.048684 1281.918312 464.666447 1324.452499 553.271711 1347.527725 C 642.047368 1370.775155 788.757237 1407.454433 858.789474 1452.399464 C 928.821711 1497.344495 993.230921 1590.678621 993.230921 1699.33883 C 993.230921 1808.171242 950.802632 1867.236935 914.167763 1907.876886 C 877.3625 1947.655821 788.757237 2040.301134 599.619079 2040.301134 C 417.6375 2039.784525 233.781579 1959.365638 131.544737 1728.441168 Z M 1776.024342 1701.405268 C 1776.024342 1701.405268 1811.466447 1261.426133 1400.474342 1261.426133 C 1028.673026 1261.426133 1042.815789 1642.856186 1042.815789 1669.203273 C 1042.815789 1779.241108 1107.054605 2061.482126 1420.921711 2061.482126 C 1734.959211 2061.482126 1776.024342 1797.839051 1776.024342 1797.839051 L 1561.838158 1772.697387 C 1551.444079 1799.733286 1530.315132 1896.855882 1429.952632 1896.855882 C 1329.760526 1896.855882 1297.555921 1815.748183 1289.717763 1789.401095 C 1282.05 1763.054008 1283.924342 1701.233065 1283.924342 1701.233065 Z M 1282.05 1573.974912 C 1282.05 1573.974912 1276.256579 1407.454433 1420.410526 1407.454433 C 1564.564474 1407.454433 1554.851974 1573.974912 1554.851974 1573.974912 Z M 1282.05 1573.974912 " transform="matrix(0.0229247,0,0,0.022684,0,0.00304856)"/>
<path style=" stroke:none;fill-rule:nonzero;fill:url(#radial1);" d="M 1.9375 11.476562 L 1.9375 28.265625 C 1.9375 28.265625 3.941406 37.136719 10.222656 37.3125 C 16.5 37.484375 39.976562 38.433594 42.097656 38.332031 C 44.222656 38.230469 49.8125 35.34375 49.8125 29.738281 L 49.8125 13.125 C 49.8125 9.902344 47.925781 3.628906 40.726562 3.292969 C 33.535156 2.957031 13.320312 2.445312 11.035156 2.445312 C 7.304688 2.429688 1.9375 3.847656 1.9375 11.476562 Z M 1.9375 11.476562 "/>
<path style="fill-rule:nonzero;fill:url(#linear0);stroke-width:4.649;stroke-linecap:butt;stroke-linejoin:miter;stroke:rgb(4.705882%,0%,0%);stroke-opacity:1;stroke-miterlimit:10;" d="M 1035.148026 617.730632 L 1466.5875 1161.20388 L 2483.332895 314.825231 L 2343.268421 33.100822 L 1498.792105 752.049115 L 1197.875 411.947827 Z M 1035.148026 617.730632 " transform="matrix(0.0229247,0,0,0.022684,0,0.00304856)"/>
<path style=" stroke:none;fill-rule:nonzero;fill:url(#radial2);" d="M 24.273438 13.882812 L 33.933594 22.546875 L 49.753906 10.21875 L 47.925781 6.074219 L 34.316406 17.542969 L 27.460938 9.898438 Z M 24.273438 13.882812 "/>
</g>
</svg>
