<?xml version="1.0" encoding="UTF-8" standalone="no"?>
<svg
   xmlns:dc="http://purl.org/dc/elements/1.1/"
   xmlns:cc="http://creativecommons.org/ns#"
   xmlns:rdf="http://www.w3.org/1999/02/22-rdf-syntax-ns#"
   xmlns:svg="http://www.w3.org/2000/svg"
   xmlns="http://www.w3.org/2000/svg"
   xmlns:sodipodi="http://sodipodi.sourceforge.net/DTD/sodipodi-0.dtd"
   xmlns:inkscape="http://www.inkscape.org/namespaces/inkscape"
   width="15mm"
   height="15mm"
   viewBox="0 0 15 15"
   version="1.1"
   id="svg1024"
   inkscape:version="1.0.2-2 (e86c870879, 2021-01-15)"
   sodipodi:docname="spring.svg">
  <defs
     id="defs1018" />
  <sodipodi:namedview
     id="base"
     pagecolor="#ffffff"
     bordercolor="#666666"
     borderopacity="1.0"
     inkscape:pageopacity="0.0"
     inkscape:pageshadow="2"
     inkscape:zoom="0.35"
     inkscape:cx="-803.75695"
     inkscape:cy="959.1001"
     inkscape:document-units="mm"
     inkscape:current-layer="layer1"
     inkscape:document-rotation="0"
     showgrid="false"
     inkscape:window-width="1298"
     inkscape:window-height="1040"
     inkscape:window-x="52"
     inkscape:window-y="0"
     inkscape:window-maximized="0" />
  <metadata
     id="metadata1021">
    <rdf:RDF>
      <cc:Work
         rdf:about="">
        <dc:format>image/svg+xml</dc:format>
        <dc:type
           rdf:resource="http://purl.org/dc/dcmitype/StillImage" />
        <dc:title></dc:title>
      </cc:Work>
    </rdf:RDF>
  </metadata>
  <g
     inkscape:label="Capa 1"
     inkscape:groupmode="layer"
     id="layer1"
     transform="translate(-318.49402,105.59524)">
    <rect
       style="fill:#6db33f;fill-opacity:1;stroke:none;stroke-width:0.128011;stroke-opacity:1"
       id="rect965-8-3-8-2-9-6-5-9-8-6"
       width="15"
       height="15"
       x="318.49402"
       y="-105.59524"
       ry="0" />
    <text
       xml:space="preserve"
       style="font-style:normal;font-weight:normal;font-size:2.38953px;line-height:1.25;font-family:sans-serif;fill:#ffffff;fill-opacity:1;stroke:none;stroke-width:0.128011"
       x="322.59875"
       y="-92.80101"
       id="text874-7-4-7-1-5-9-3-0-8-2-9"><tspan
         sodipodi:role="line"
         id="tspan872-5-8-8-1-9-3-1-2-0-5-6"
         x="322.59875"
         y="-92.80101"
         style="font-style:normal;font-variant:normal;font-weight:normal;font-stretch:normal;font-size:2.38953px;font-family:'Segoe UI';-inkscape-font-specification:'Segoe UI';fill:#ffffff;stroke-width:0.128011">Spring</tspan></text>
    <path
       d="m 328.60088,-102.43271 a 2.7650016,2.7650016 0 0 1 -0.33972,0.59454 3.1661629,3.1661629 0 1 0 -4.42328,4.527766 l 0.11761,0.104539 a 3.1629085,3.1629085 0 0 0 5.19419,-2.195275 c 0.0915,-0.79708 -0.15028,-1.81634 -0.54883,-3.0316 z m -4.30562,5.148447 a 0.26918708,0.26918708 0 1 1 -0.0392,-0.378962 0.27506083,0.27506083 0 0 1 0.0392,0.378962 z m 4.28602,-0.947368 c -0.77748,1.038834 -2.45007,0.686013 -3.51505,0.738295 0,0 -0.18946,0.01306 -0.37896,0.03919 0,0 0.0719,-0.03266 0.16335,-0.06532 0.75137,-0.261331 1.10416,-0.313612 1.56152,-0.548826 0.85591,-0.437751 1.7118,-1.398163 1.88167,-2.391268 -0.32668,0.953892 -1.31977,1.777116 -2.22142,2.110333 -0.62069,0.228682 -1.73791,0.450823 -1.73791,0.450823 l -0.0457,-0.02613 c -0.7579,-0.372425 -0.78402,-2.018874 0.60107,-2.548096 0.60765,-0.23522 1.18259,-0.10451 1.84248,-0.26133 0.69909,-0.16335 1.50927,-0.68604 1.83595,-1.37205 0.36586,1.10416 0.81015,2.815962 0.0131,3.8744 z"
       id="path1349"
       style="fill:#ffffff;stroke-width:0.264583" />
  </g>
</svg>
